<svg width="223" height="183" viewBox="0 0 223 183" fill="none" xmlns="http://www.w3.org/2000/svg">
<path fill-rule="evenodd" clip-rule="evenodd" d="M111.5 0C173.082 0 223 40.7687 223 91.0755C223 141.37 173.082 182.151 111.5 182.151C49.918 182.151 0 141.382 0 91.0755C0 40.7814 49.918 0 111.5 0Z" fill="#17B255" fill-opacity="0.501961"/>
<path fill-rule="evenodd" clip-rule="evenodd" d="M111.501 3.49292C170.722 3.49292 218.724 42.6995 218.724 91.0758C218.724 139.439 170.722 178.659 111.501 178.659C52.2798 178.659 4.27832 139.452 4.27832 91.0758C4.27832 42.7122 52.2798 3.49292 111.501 3.49292V3.49292Z" fill="#0E9B53"/>
<path fill-rule="evenodd" clip-rule="evenodd" d="M111.5 28.9065C155.098 28.9065 190.433 56.7334 190.433 91.0756C190.433 125.405 155.098 153.245 111.5 153.245C67.9031 153.245 32.5684 125.418 32.5684 91.0756C32.5684 56.7461 67.9031 28.9065 111.5 28.9065V28.9065Z" fill="#ED3237"/>
<path fill-rule="evenodd" clip-rule="evenodd" d="M42.5564 105.16C42.3026 105.643 41.8583 105.986 41.1983 105.986C40.9445 105.986 40.5891 105.961 40.2845 105.884C39.9926 106.1 39.6118 106.202 39.2311 106.202C37.5811 106.177 34.8142 107.408 33.4308 108.221C32.5043 108.767 31.5524 109.695 31.895 110.863C32.06 111.447 32.517 111.917 33.05 112.197C40.0561 115.765 48.5471 117.683 56.3781 117.429C62.6607 117.226 70.0982 116.4 75.8858 113.683C77.0408 113.149 78.5892 112.667 79.8584 112.501C82.3715 112.171 85.1003 111.511 87.5372 110.876C92.0302 109.707 96.5739 108.64 101.092 107.574L101.46 107.485L102.628 108.704L106.321 111.447C106.372 110.685 106.537 109.898 106.753 109.263C107.07 108.31 107.4 107.142 107.527 106.126L107.578 105.656L108.035 105.554C108.428 105.465 108.847 105.338 109.241 105.224C111.081 104.703 112.909 104.144 114.749 103.586C121.209 101.617 127.631 99.3944 134.028 97.2481L134.257 97.1719L134.485 97.2608C135.564 97.6926 136.884 98.0609 137.988 98.4038C139.968 99.0261 142.418 99.4072 144.613 99.6231C144.271 98.8737 143.979 98.0609 143.814 97.3751C143.56 96.3082 143.75 94.8985 144.131 93.8697L144.22 93.6157L145.02 93.2474H145.147C145.654 93.2347 147.939 93.8824 148.434 94.0094C150.68 94.5682 152.978 95.0255 155.262 95.47C155.021 94.5555 154.551 93.4633 154.196 92.587L153.803 91.6471L156.189 91.736L156.379 91.9646C157.293 93.1077 158.232 94.2253 159.159 95.3557C160.694 97.2227 162.319 100.207 162.763 102.62L162.954 103.675L161.926 103.37C160.834 103.039 159.412 102.874 158.283 102.747C154.628 102.354 150.833 102.43 147.177 102.735C141.631 103.192 134.841 104.779 129.421 106.9C129.611 107.002 129.776 107.091 129.865 107.142C131.211 107.878 132.366 109.009 133.368 110.177C133.8 110.685 135.12 110.901 135.767 110.977C137.544 111.181 138.42 113.708 139.131 115.105C139.346 115.537 140.095 117.086 140.527 117.34C140.704 117.442 140.984 117.518 141.174 117.594C142.088 117.937 142.735 117.556 142.773 118.991C142.799 119.779 142.71 120.401 143.585 120.731C145.07 121.29 145.185 122.09 146.048 123.221C146.923 124.376 147.304 125.71 147.012 127.145C146.974 127.323 146.923 127.475 146.873 127.64C147.304 127.64 147.723 127.78 147.952 128.187C148.104 128.466 148.078 128.631 148.078 128.822C149.601 128.72 149.906 129.584 149.957 130.93C149.97 131.285 151.213 131.654 151.543 132.352C151.962 133.241 152.013 133.953 151.95 134.931C151.886 135.883 152.051 135.997 152.622 136.759C153.409 137.839 153.269 137.648 153.117 138.766C153.016 139.465 153.13 139.528 153.612 140.1C154.475 141.128 154.463 141.154 154.45 142.5C154.45 142.614 154.45 142.932 154.475 143.135H154.488C155.529 143.326 155.389 144.062 155.491 144.977C155.567 145.637 155.516 146.399 155.414 147.123C156.011 146.831 156.62 146.564 157.166 146.31C161.621 144.24 166.723 137.344 169.198 133.33C171.876 129.012 174.668 122.687 175.582 117.594L175.62 117.417L180.088 112.324L182.728 116.312C183.096 114.953 183.35 113.238 183.502 112.184C183.857 109.707 183.286 106.443 182.322 104.106L182.207 103.827L182.347 103.56C182.588 103.09 182.855 102.62 183.121 102.163C183.857 100.817 183.832 95.4192 183.743 93.8951C183.426 88.0783 181.954 82.2614 179.517 76.978C177.016 71.5549 173.221 66.7922 168.728 62.8931C166.85 61.2674 164.439 59.4005 162.243 58.2193L161.672 57.9145L161.976 57.343C162.471 56.3904 163.702 55.8951 164.718 55.857C165.327 55.8316 165.924 55.8189 166.533 55.8062C164.02 52.466 161.367 47.8938 160.402 44.0709C159.298 39.6892 159.831 33.0977 161.354 28.8557C161.443 28.6017 161.964 27.0014 161.748 26.7601C160.402 26.6077 150.465 30.8751 149.068 31.4847C146.67 32.5134 144.347 33.8597 142.151 35.2567C137.849 37.9874 133.406 41.3149 129.548 44.6678L129.307 44.8711L129.002 44.8202C120.283 43.2454 110.104 44.0836 101.435 45.6331C77.1804 49.964 62.2545 59.4386 45.0314 76.6732C40.9318 80.7755 37.0988 85.0047 34.0527 89.958C32.9739 91.7233 33.2404 92.4854 31.3239 93.9332C29.6993 95.1652 30.2831 97.1465 30.8416 98.7975C31.4635 100.626 33.2658 100.004 34.7127 99.6739C35.1569 99.5723 36.0073 99.3944 36.7053 99.4579C36.9465 99.1912 37.3019 99.0007 37.6065 98.8737C38.1903 98.6451 38.9138 98.6197 39.5611 98.7594C40.1322 98.3276 41.0968 98.0736 41.5791 97.9593C42.1503 97.8196 42.9625 97.6799 43.4956 98.0609C44.3841 97.4894 45.501 96.9178 46.4021 96.7654C47.0875 96.6511 47.7602 96.8289 48.1536 97.2735C48.839 96.8543 49.6386 96.5495 50.362 96.4987C50.9586 96.4479 51.5932 96.613 52.012 96.994C52.4816 96.7527 53.0654 96.6638 53.5477 96.6892C54.322 96.7273 55.3754 96.8797 56.0989 97.1719L57.2665 97.6291L56.2385 98.3149C55.3246 98.9372 54.4108 99.5723 53.4716 100.169C53.0655 100.423 52.6212 100.55 52.1643 100.563L52.4435 101.046L51.8597 101.363C50.5651 102.049 49.2578 102.722 47.9505 103.382C46.8336 103.941 45.2471 104.818 44.0794 105.186C43.5591 105.351 43.0387 105.326 42.6072 105.135L42.5564 105.16Z" fill="#FFF212"/>
<path fill-rule="evenodd" clip-rule="evenodd" d="M79.9225 113.15C79.9225 113.15 77.9933 113.416 76.1403 114.28C74.2999 115.144 68.6139 117.684 56.3787 118.077C44.1435 118.484 34.561 113.696 32.7333 112.769C30.9184 111.841 30.2076 109.314 33.076 107.638C35.9444 105.974 38.4067 105.529 39.219 105.529C40.0186 105.542 40.0821 104.983 40.0821 104.983C40.0821 104.983 40.0948 105.313 41.1863 105.313C42.2778 105.313 42.1636 103.789 42.1636 103.789C42.1636 103.789 42.5316 104.983 43.8262 104.577C45.1335 104.17 51.4922 100.792 51.4922 100.792L50.7053 99.3949C50.7053 99.3949 51.8603 100.398 53.0788 99.6235C54.2972 98.8488 55.8329 97.7819 55.8329 97.7819C55.8329 97.7819 54.8683 97.4136 53.4849 97.3374C52.1142 97.2739 51.8096 98.036 51.8096 98.036C51.8096 98.036 51.7207 97.0453 50.3753 97.1469C49.03 97.2485 47.7989 98.3027 47.7989 98.3027C47.7989 98.3027 47.8496 97.1723 46.4662 97.4009C45.0827 97.6295 43.2043 99.0139 43.2043 99.0139C43.2043 99.0139 43.4962 98.163 41.6813 98.5948C39.8663 99.0266 39.7013 99.4838 39.7013 99.4838C39.7013 99.4838 38.6732 99.1282 37.7975 99.4711C36.9217 99.814 37.0106 100.208 37.0106 100.208C37.0106 100.208 36.6552 99.8775 34.8148 100.297C32.9618 100.716 30.9438 101.249 30.1822 98.9885C29.408 96.7278 29.0907 94.7465 30.8803 93.3876C32.6699 92.0286 32.4541 91.2158 33.4441 89.5901C34.4341 87.9771 36.8963 83.7987 44.5116 76.1783C61.8871 58.804 76.8764 49.3167 101.258 44.9604C111.221 43.1823 121.223 42.7251 129.066 44.1476C129.066 44.1476 140.096 34.5841 148.752 30.8628C157.42 27.1289 161.228 25.8842 161.863 26.1128C162.497 26.3414 162.561 27.2559 161.913 29.0593C161.266 30.8628 159.489 37.9624 160.987 43.8936C162.485 49.8247 167.815 56.429 167.815 56.429C167.815 56.429 166.305 56.429 164.693 56.4925C163.081 56.5433 162.51 57.6228 162.51 57.6228C162.51 57.6228 174.187 63.8969 180.076 76.6736C185.965 89.4504 184.416 101.059 183.655 102.443C182.893 103.84 182.893 103.84 182.893 103.84C182.893 103.84 184.708 108.184 184.112 112.261C183.515 116.337 182.881 117.773 182.881 117.773L179.987 113.391L176.205 117.709C176.205 117.709 174.809 125.482 169.732 133.674C164.655 141.865 159.807 145.79 157.408 146.908C155.009 148.025 154.476 148.343 154.476 148.343C154.476 148.343 154.945 146.45 154.793 145.041C154.641 143.631 154.704 143.847 154.324 143.783C153.943 143.72 153.74 143.745 153.752 142.501C153.765 141.243 153.79 141.383 153.08 140.519C152.356 139.668 152.331 139.452 152.432 138.678C152.534 137.903 152.788 138.132 152.064 137.141C151.341 136.15 151.201 135.947 151.265 134.88C151.341 133.813 151.239 133.28 150.922 132.632C150.605 131.972 149.297 131.883 149.272 130.943C149.247 130.003 149.221 129.368 148.003 129.482C146.784 129.597 148.028 128.263 146.81 128.301C145.591 128.339 146.112 128.225 146.353 127.019C146.594 125.825 146.315 124.682 145.503 123.615C144.703 122.561 144.601 121.824 143.332 121.341C142.063 120.859 142.126 119.881 142.101 119.005C142.076 118.128 141.949 118.585 140.921 118.204C139.893 117.823 139.842 117.988 138.522 115.398C137.202 112.807 136.808 111.753 135.666 111.613C134.524 111.486 133.356 111.181 132.849 110.584C132.341 109.987 131.072 108.552 129.523 107.701C127.975 106.85 127.784 106.837 127.784 106.837C127.784 106.837 137.088 102.888 147.102 102.075C157.129 101.262 162.091 102.735 162.091 102.735C162.091 102.735 161.406 99.1536 158.626 95.7626C155.834 92.3715 155.834 92.3715 155.834 92.3715L154.768 92.3334C154.768 92.3334 155.682 94.5433 155.897 95.4196C156.113 96.296 156.075 96.296 156.075 96.296C156.075 96.296 151.239 95.3942 148.244 94.6449C145.249 93.8956 145.134 93.9083 145.134 93.9083L144.703 94.1115C144.703 94.1115 144.068 95.8261 144.398 97.2358C144.741 98.6583 145.68 100.386 145.68 100.386C145.68 100.386 140.895 100.03 137.748 99.0266C134.6 98.036 134.194 97.8581 134.194 97.8581C134.194 97.8581 120.753 102.418 114.902 104.208C109.051 105.999 108.15 106.19 108.15 106.19C108.15 106.19 107.972 107.625 107.35 109.466C106.728 111.308 107.007 112.781 107.007 112.781L102.172 109.187L101.233 108.196C101.233 108.196 92.4877 110.254 87.6901 111.486C82.8925 112.73 79.9225 113.124 79.9225 113.124V113.15ZM135.488 43.2839C135.488 43.2839 139.804 36.6416 148.46 32.5647C157.116 28.4878 158.715 28.2211 159.553 27.9036C160.403 27.5861 160.619 27.9417 160.403 28.6656C160.378 28.7545 160.314 28.9323 160.251 29.1863C159.134 29.5166 156.697 30.3548 151.76 32.4758C144.043 35.7906 136.923 43.2204 136.923 43.2204C136.923 43.2204 142.076 38.7753 148.396 35.4223C153.384 32.7679 158.042 31.4724 159.794 31.0533C159.616 31.8789 159.438 32.8822 159.312 34.038C158.372 34.1777 156.265 34.6603 151.722 36.2224C144.246 38.788 138.497 44.1603 138.497 44.1603C138.497 44.1603 143.205 40.4644 151.201 37.6195C156.151 35.8668 158.271 35.6128 159.159 35.6636C159.108 36.3622 159.083 37.0988 159.096 37.8608C157.979 37.9751 155.187 38.3942 151.138 40.0326C145.82 42.1917 141.682 46.0527 141.682 46.0527C150.567 40.7311 157.128 39.5246 159.134 39.2706C159.159 39.8802 159.21 40.5152 159.286 41.1503C158.245 41.2773 155.783 41.7091 151.95 43.0807C147.927 44.5159 144.779 46.9036 143.535 47.9323C139.195 46.548 136.542 45.2398 135.501 43.2712L135.488 43.2839ZM159.426 42.3568L159.451 42.5219C159.502 42.8521 159.565 43.1823 159.642 43.5126C155.161 44.5921 150.656 46.0908 147.089 49.0881C146.531 48.8722 145.998 48.6817 145.49 48.542L145.058 48.415C146.023 47.6783 148.168 46.2686 152.102 44.6048C156.278 42.8394 158.525 42.4457 159.438 42.3568H159.426ZM159.883 44.554C160.01 45.0366 160.149 45.5065 160.289 45.9638C159.692 46.1543 158.575 46.5226 156.545 47.1576C154.032 47.945 151.646 49.6723 150.465 50.6122C149.336 50.0533 148.206 49.5326 147.153 49.1262C147.698 48.796 148.904 48.1483 151.328 47.0941C154.349 45.7606 158.423 44.8588 159.883 44.5667V44.554ZM160.822 47.437C161.038 47.9831 161.253 48.4912 161.482 48.9992C160.847 49.0373 159.845 49.1897 158.436 49.6342C156.405 50.2819 154.463 51.6282 153.613 52.2759C153.13 52.0092 152.636 51.7298 152.128 51.4631C152.813 50.8916 153.955 50.066 155.479 49.3548C157.408 48.4658 159.756 47.7545 160.822 47.437V47.437ZM162.078 50.2311C162.205 50.4851 162.345 50.7392 162.472 50.9805C160.581 51.2599 157.56 52.5807 156.177 53.7492C155.809 53.5333 155.415 53.3047 155.022 53.0634C155.58 52.5426 156.621 51.679 157.928 51.1329C159.337 50.5486 161.165 50.3073 162.078 50.2184V50.2311ZM163.106 52.0854C163.322 52.441 163.538 52.7839 163.728 53.0888C163.056 53.0888 162.066 53.1777 160.822 53.5333C159.4 53.9397 158.55 54.5112 158.08 54.9303C157.839 54.7779 157.573 54.6128 157.306 54.4477C158.817 53.1142 161.076 52.1743 163.106 52.0981V52.0854ZM164.553 54.2953C164.998 54.9176 165.277 55.2478 165.277 55.2478C165.277 55.2478 162.675 55.2478 161.33 55.6924C159.984 56.1369 159.984 56.1369 159.984 56.1369C159.984 56.1369 159.73 55.9718 159.286 55.6797C159.794 55.3622 160.581 54.9303 161.558 54.6509C162.599 54.3461 163.779 54.2953 164.553 54.2953ZM110.587 90.7204L109.571 88.4978C109.571 88.4978 114.102 83.062 124.319 78.8581C134.537 74.6416 141.365 74.1081 143.98 74.1208C146.594 74.1335 149.754 74.7686 149.754 74.7686C149.754 74.7686 143.269 77.8548 136.39 83.4811C129.511 89.0948 125.068 97.1469 125.068 97.1469C125.068 97.1469 120.791 97.5533 117.161 96.7786C113.531 96.0039 112.046 95.4323 112.046 95.4323C112.046 95.4323 116.692 95.3307 120.334 95.3053C123.977 95.2799 124.814 95.191 124.814 95.191C124.814 95.191 125.018 94.8608 125.398 94.2893C124.814 94.2639 123.863 94.2385 122.428 94.2385C119.623 94.2131 116.349 93.7178 116.349 93.7178C116.349 93.7178 117.961 93.4511 120.931 93.4257C123.063 93.4003 125.043 93.413 125.995 93.4257C126.249 93.07 126.528 92.6636 126.845 92.2191C125.779 91.9651 123.406 91.4952 120.842 91.673C117.39 91.927 112.77 93.2606 112.77 93.2606C112.77 93.2606 118.303 90.8601 122.479 90.5426C125.424 90.3267 127.086 90.6696 127.822 90.8855C128.508 89.9838 129.295 89.0059 130.183 87.9644C129.104 87.8374 126.604 87.7485 122.796 88.8027C117.593 90.2378 113.366 91.6349 113.366 91.6349C113.366 91.6349 119.928 88.574 125.056 87.1643C128.724 86.1609 130.361 86.6563 131.008 87.0246C131.922 85.9958 132.937 84.9417 134.016 83.913C132.76 83.8241 130.031 83.913 125.436 85.4243C118.773 87.6088 112.44 90.8601 112.44 90.8601C112.44 90.8601 120.296 85.945 127.34 83.8113C132.15 82.3508 134.422 82.4524 135.374 82.6683C135.565 82.5032 135.755 82.3254 135.945 82.1603L138.865 79.6456C132.76 79.1757 120.69 84.5988 115.575 86.9865C123.114 82.4524 131.541 78.312 140.515 78.2358L143.294 75.8481C143.294 75.8481 121.514 76.2164 110.549 90.7331L110.587 90.7204ZM172.016 104.551C172.016 104.551 171.902 101.935 173.971 100.932C176.04 99.9283 178.121 100.411 178.604 104.247C179.086 108.082 178.781 108.743 178.781 108.743L182.957 113.429C182.957 113.429 182.893 114.102 182.767 114.382C182.64 114.674 182.513 114.864 182.513 114.864L178.337 109.505C178.337 109.505 177.677 113.277 176.674 114.978C175.672 116.693 175.075 117.48 175.075 117.48C175.075 117.48 172.803 123.081 170.125 128.949C167.434 134.804 166.102 135.718 166.102 135.718L168.97 128.936C168.97 128.936 166.153 133.839 162.903 138.195C159.654 142.551 156.164 145.511 156.164 145.511L155.809 144.101C155.809 144.101 155.809 144.012 155.796 143.898C156.659 143.351 158.106 142.272 159.629 140.405C162.066 137.42 165.01 132.238 165.01 132.238C165.01 132.238 164.16 133.699 161.723 136.569C159.857 138.767 156.608 141.726 155.174 142.996C154.869 142.843 154.78 142.691 154.73 142.45C155.682 141.7 157.649 139.973 160.39 136.658C164.35 131.87 169.465 124.478 169.465 124.478C169.465 124.478 165.632 129.686 161.38 134.309C158.169 137.801 155.529 140.227 154.438 141.205C154.209 140.761 153.79 140.646 153.689 140.011C154.514 139.541 156.1 138.563 157.75 137.179C160.149 135.172 164.807 129.609 164.807 129.609C164.807 129.609 164.261 130.079 160.302 133.813C157.281 136.658 154.755 138.297 153.727 138.919C153.854 137.979 153.892 137.585 153.702 137.192C154.882 136.595 157.382 135.198 160.581 132.62C165.086 128.987 169.719 121.659 169.719 121.659C169.719 121.659 168.247 123.831 163.31 128.517C159.388 132.238 154.552 135.058 152.712 136.061C152.242 135.604 152.102 135.414 152.255 134.486C152.267 134.372 152.28 134.271 152.293 134.182C153.181 133.763 154.704 132.988 156.76 131.718C160.213 129.571 162.827 126.955 166.115 123.539C169.402 120.122 172.854 113.772 172.854 113.772C172.854 113.772 172.486 114.407 170.684 116.833C168.869 119.259 164.528 124.44 159.502 128.352C155.974 131.095 153.334 132.416 152.064 132.95C151.925 132.683 151.734 132.429 151.544 132.124C151.062 131.349 151.963 130.994 153.422 130.397C154.882 129.787 164.795 122.662 168.361 118.484C171.915 114.305 173.539 110.368 173.539 110.368C173.539 110.368 168.539 114.839 169.567 113.162C170.608 111.486 169.96 112.121 169.96 112.121C169.96 112.121 168.069 113.696 166.419 114.788C164.756 115.867 166.115 114.801 168.094 112.362C170.074 109.936 171.356 108.26 171.356 108.26C171.356 108.26 167.815 111.283 165.569 112.883C163.322 114.47 161.418 115.69 164.236 112.984C167.054 110.279 167.866 109.047 167.866 109.047C167.866 109.047 160.822 114.255 155.402 116.972C149.983 119.703 145.629 121.9 145.629 121.9C145.629 121.9 145.325 121.786 144.69 120.96L144.462 120.656C144.817 120.3 145.515 119.767 146.886 118.966C149.97 117.163 155.06 114.826 155.06 114.826C155.06 114.826 152.597 115.118 148.65 116.896C145.909 118.141 144.576 119.36 144.018 119.995C143.878 119.728 143.789 119.436 143.65 118.954C143.586 118.7 143.51 118.509 143.434 118.369C144.513 117.76 146.67 116.579 149.64 115.156C154.006 113.073 162.485 110.495 162.485 110.495C162.485 110.495 156.1 111.791 150.287 114.039C146.15 115.639 143.51 117.023 142.342 117.684L142.279 117.658C141.479 117.379 140.718 117.95 139.981 115.982C139.943 115.867 139.905 115.766 139.855 115.664C140.845 115.309 143.205 114.509 146.239 113.721C150.3 112.667 153.207 112.248 153.207 112.248C153.207 112.248 152.699 112.108 150.897 112.324C149.094 112.54 151.557 111.435 156.05 110.394C160.543 109.352 161.99 109.124 161.99 109.124C161.99 109.124 155.783 109.098 148.904 111.054C143.802 112.502 140.527 113.67 139.182 114.178C138.966 113.785 138.738 113.429 138.497 113.086C139.448 112.756 143.434 111.384 149.234 109.911C155.91 108.209 164.35 107.307 164.35 107.307C164.35 107.307 150.998 107.942 144.17 109.847C139.702 111.092 138.179 111.714 137.659 112.007L137.557 111.88C137.202 111.435 136.897 111.156 136.605 110.94C137.9 110.355 141.441 108.806 144.474 108.069C148.257 107.155 155.39 106.558 155.39 106.558C155.39 106.558 147.762 106.19 142.418 107.511C138.37 108.514 136.085 109.581 135.209 110.025L135.184 110.013C134.372 109.378 133.75 108.844 133.75 108.844C133.75 108.844 137.722 106.291 145.096 105.682C152.471 105.072 161.609 106.774 161.609 106.774C154.463 104.031 147.292 103.777 139.042 105.821C139.042 105.821 146.239 101.948 154.59 103.243C162.929 104.539 164.033 104.996 164.033 104.996C164.033 104.996 163.475 103.561 163.741 102.837C164.008 102.126 163.436 102.38 163.513 101.389C163.589 100.398 163.475 100.347 162.815 99.9283C162.155 99.5092 162.066 99.306 162.408 98.8488C162.764 98.3916 162.256 98.074 161.888 97.9597C161.52 97.8454 161.127 97.6422 161.418 96.9818C161.71 96.3214 161.622 96.169 160.784 95.9404C159.946 95.7118 159.756 95.6102 159.768 95.2164C159.781 94.8227 158.931 94.9624 159.197 94.302C159.464 93.6416 161.571 93.6797 161.685 94.7973C161.799 95.915 162.446 95.1656 162.662 95.9404C162.865 96.7151 163.868 97.0199 163.931 97.2739C163.995 97.5279 163.982 97.4263 164.084 98.0486C164.185 98.671 165.315 98.9758 164.909 99.3822C164.503 99.7886 164.236 100.449 164.845 100.716C165.455 100.982 165.581 100.843 165.099 101.338C164.617 101.821 165.48 101.745 165.163 102.507C164.845 103.269 165.061 104.285 165.531 104.348C166 104.412 166.483 103.332 166.216 102.862C165.937 102.405 165.848 102.583 165.975 101.884C166.102 101.173 165.848 100.538 165.708 100.246C165.569 99.9664 166.406 99.3314 165.632 98.6329C164.858 97.9344 164.909 97.9851 164.82 97.566C164.731 97.1469 164.452 97.4263 164.198 96.7024C163.944 95.9785 163.792 95.4069 163.792 95.4069C163.792 95.4069 165.416 96.6262 166.153 97.693C166.889 98.7599 166.914 98.6837 167.016 99.3314C167.117 99.9791 167.295 99.7886 167.396 100.601C167.498 101.402 167.98 101.567 168.171 101.249C168.374 100.932 168.501 100.322 169.211 101.325C169.922 102.316 172.029 104.628 172.029 104.628L172.016 104.551ZM146.594 122.459C146.594 122.459 150.211 121.532 154.349 119.246C158.499 116.972 158.499 116.934 158.499 116.934C158.499 116.934 154.362 120.376 151.087 121.837C147.813 123.31 146.378 123.869 146.594 122.446V122.459ZM150.148 129.317C150.148 129.317 152.661 128.124 155.44 126.434C158.22 124.745 159.235 123.97 159.235 123.97C159.235 123.97 157.294 126.587 154.945 128.238C152.597 129.889 151.176 130.524 150.681 130.384C150.186 130.245 149.856 129.584 150.148 129.33V129.317ZM64.0574 99.179C64.0574 99.179 58.0033 95.9404 52.3934 95.9023C46.7835 95.8642 41.9986 97.312 39.6505 97.8454C37.3025 98.3789 32.5937 100.068 31.7941 99.1028C30.9945 98.1376 30.2838 96.1817 31.9718 95.2418C33.6599 94.3147 34.9672 93.4257 35.1195 92.4731C35.2845 91.5079 36.0841 90.3775 37.0994 89.0059C38.1275 87.6342 39.3332 87.2151 39.714 87.4691C40.1074 87.7231 40.4501 87.7485 40.4501 87.7485C40.4501 87.7485 41.3894 86.2626 42.3032 86.0466C43.217 85.8307 43.8262 85.9958 43.8262 85.9958C43.8262 85.9958 43.2932 83.3668 48.205 80.3568C53.1168 77.3341 56.8864 78.8454 57.5591 79.8107C58.2317 80.7759 57.5464 82.9604 57.5464 82.9604C57.5464 82.9604 59.4248 81.5634 60.1609 81.1823C60.9098 80.814 60.8717 79.6456 60.8463 78.947C60.8209 78.2485 61.7602 78.2231 62.2932 78.6041C62.8263 78.9978 62.8897 78.9978 62.8897 78.9978C62.8897 78.9978 62.6867 78.0707 62.0775 77.3976C61.4682 76.7245 61.519 74.4384 62.8897 73.6382C64.2605 72.8381 65.7201 72.9016 66.4816 73.1175C67.2431 73.3207 67.497 72.0888 66.8878 71.1235C66.2785 70.1583 65.8597 68.6977 68.4362 68.7866C71.0127 68.8755 70.4415 67.6055 69.8831 66.8053C69.3373 66.0052 69.7181 65.1797 71.7107 65.6877C73.7161 66.2084 73.9953 66.0179 74.3761 65.0146C74.7568 64.0112 75.0868 63.7064 76.4068 63.0841C77.7268 62.4617 78.171 61.8521 78.7295 62.6523C79.2752 63.4524 78.4122 63.5921 81.7375 63.6048C85.0628 63.6175 85.5451 63.9477 87.6266 65.1035C89.7081 66.2592 93.5792 68.5072 95.6988 69.9805C97.8057 71.441 98.3134 71.4283 98.9099 73.4096C99.5064 75.3909 100.788 80.1536 99.7095 82.3635C98.6307 84.5607 97.7676 87.1135 96.1049 88.5614C94.4423 90.0092 93.9219 90.0346 93.9219 90.0346C93.9219 90.0346 95.7876 90.3521 97.2599 88.6376C98.7449 86.9103 99.8872 84.4972 99.8872 84.4972C99.8872 84.4972 100.573 85.5386 100.179 87.8501C99.7856 90.1616 98.8718 93.1335 96.8538 95.8007C94.8357 98.4678 90.8377 102.761 88.3374 104.704C85.8497 106.647 84.9105 107.231 84.9105 107.231C84.9105 107.231 92.5004 103.129 96.2319 98.7472C99.9633 94.3782 100.331 92.4731 100.268 91.6603C100.192 90.8601 100.903 90.4664 101.182 89.6536C101.474 88.8408 101.778 86.0847 101.423 84.5734C101.055 83.062 100.636 82.4397 101.106 81.8428C101.575 81.2458 101.854 80.0266 101.829 79.1249C101.804 78.2231 101.791 77.9183 101.791 77.9183C101.791 77.9183 104.482 81.9571 104.609 85.818C104.736 89.679 103.987 92.8795 101.677 96.1055C99.3668 99.3187 93.9473 103.802 93.9473 103.802C93.9473 103.802 103.416 97.312 105.066 93.9845C106.728 90.6569 107.579 84.7258 105.421 80.7251C103.276 76.7245 100.738 75.3909 101.867 75.048C102.997 74.7051 103.39 74.4257 103.174 73.8922C102.959 73.3588 102.476 73.2064 101.829 73.7017C101.169 74.197 100.484 73.816 100.369 73.181C100.243 72.546 99.5699 71.7585 99.3414 71.441C99.113 71.1235 99.2399 70.6663 100.382 70.7044C101.524 70.7425 101.588 70.7425 101.588 70.7425C101.588 70.7425 101.309 70.0313 99.811 69.3581C98.3261 68.685 97.6788 69.4724 96.9426 68.7739C96.1938 68.0754 96.9426 67.4404 97.8818 66.9069C98.8337 66.3735 99.1891 67.0847 100.319 67.2245C101.448 67.3642 102.197 66.7799 102.197 66.7799C102.197 66.7799 101.753 66.8307 100.192 66.2465C98.618 65.6496 96.6888 65.3321 95.4449 65.6242C94.2138 65.9036 93.3 66.2973 92.5892 65.6115C91.8785 64.9257 88.9339 63.554 90.4062 63.3762C91.8912 63.1984 92.9446 62.0553 93.8838 62.8936C94.823 63.7318 95.5719 63.6302 96.3715 62.665C97.1838 61.6997 97.8438 61.6489 98.986 61.6362C100.128 61.6235 101.156 62.2331 102.413 61.8013C103.657 61.3695 103.999 61.1282 104.342 61.1155C104.685 61.1028 103.847 59.693 102.184 59.5533C100.522 59.4136 100.243 62.2204 97.7803 60.4424C95.318 58.6643 96.4984 61.941 94.3915 61.4203C92.2973 60.8996 91.9673 60.7091 91.5739 61.5346C91.1804 62.3601 89.797 62.6396 89.4289 61.7251C89.0481 60.8234 88.3247 60.5186 87.5505 61.2425C86.7763 61.9664 86.0909 62.1315 85.7736 61.5981C85.4563 61.0647 84.7582 61.0139 84.1236 61.052C83.4763 61.1028 83.2479 60.1884 82.9813 59.6295C82.7148 59.0707 80.2398 59.7438 79.6433 60.3535C79.0468 60.9631 78.1202 61.3187 77.2826 60.7599C76.4449 60.1884 75.1884 60.3789 74.9092 60.9377C74.6299 61.4965 73.3353 62.0807 73.8684 60.925C74.4015 59.7692 76.5845 58.4357 77.4476 59.2231C78.3106 60.0106 78.6279 59.7057 78.7422 58.6389C78.8564 57.572 79.2879 57.1275 80.316 57.4958C81.344 57.8642 81.6486 57.5466 82.0802 56.9624C82.5117 56.3782 83.8698 56.2639 84.2759 56.5179C84.6821 56.7719 85.1009 56.1623 85.1009 55.9972C85.1009 55.8194 83.5525 54.8033 82.5625 54.8668C81.5725 54.9303 81.7756 56.6322 80.1002 56.2385C78.4249 55.8448 78.1964 56.3528 77.7268 57.1148C77.2572 57.8769 76.4576 58.3214 75.3534 58.1055C74.2619 57.8896 73.9699 58.0293 73.5892 58.8548C73.2211 59.6803 72.2692 61.1155 71.7234 60.5567C71.165 59.9978 69.7054 60.0105 69.4642 61.0901C69.2231 62.1696 68.69 62.8047 68.2712 62.449C67.8524 62.0934 67.1543 62.195 66.9512 62.7285C66.7481 63.2746 66.2785 63.6175 65.4916 63.4651C64.7047 63.3 63.9813 63.1857 63.6767 64.062C63.372 64.9384 62.7501 66.0941 61.6713 66.2084C60.5925 66.3227 60.3513 66.0687 59.3233 67.2753C58.2952 68.4818 57.6479 68.9644 56.3787 69.2438C55.1222 69.5233 54.8557 70.044 54.2084 71.0981C53.5611 72.1523 52.3299 73.6763 52.3299 73.6763L48.4842 74.07C48.4842 74.07 56.5056 66.6021 59.336 64.8113C62.1663 63.0079 62.5344 63.3635 63.8163 62.5888C65.0982 61.814 64.7174 60.2392 67.3827 59.7819C70.0481 59.3247 70.9492 58.042 71.8884 57.1529C72.8403 56.2639 73.9572 56.9624 75.4422 56.302C76.9272 55.6416 77.143 54.9049 78.336 54.1302C79.5291 53.3555 81.4583 53.7873 82.7656 52.8855C84.0728 51.9838 83.9078 51.3234 86.4716 51.2345C89.0354 51.1456 88.8324 50.0152 90.4697 49.8374C92.1069 49.6596 92.7288 49.558 94.1504 49.0881C95.5719 48.6182 96.2319 48.5547 97.4884 48.3896C98.7449 48.2245 97.6661 47.2465 100.116 47.5386C102.565 47.8307 101.436 47.8307 104.266 47.1449C107.109 46.4591 108.86 47.1576 109.939 46.7893C111.018 46.421 113.049 46.6877 114.102 46.7766C115.156 46.8655 115.867 46.675 118.303 46.6369C120.74 46.5988 122.39 46.3575 134.625 48.4785C146.861 50.5994 155.58 54.9811 159.616 57.3688C163.652 59.7565 168.729 63.3889 170.785 65.7258C172.841 68.05 173.616 69.3327 173.209 69.8027C172.803 70.2726 172.511 69.8662 171.966 69.32C171.42 68.7739 170.887 69.5995 171.674 70.2472C172.473 70.8949 173.654 70.3234 174.263 71.6823C174.872 73.0413 175.595 73.689 176.065 74.0192C176.535 74.3622 176.294 75.6322 174.047 73.8033C171.801 71.9745 172.219 70.8314 170.899 71.4791C169.579 72.1269 168.577 71.7331 167.511 70.1456C166.432 68.558 165.594 69.8535 163.678 68.3675C161.761 66.8815 161.33 66.5767 161.736 67.3388C162.155 68.1008 161.304 69.0406 163.322 69.4724C165.34 69.9043 165.886 69.32 166.711 70.5647C167.523 71.8093 168.501 72.3428 169.986 72.5333C171.471 72.7365 171.115 72.4571 172.384 73.7525C173.666 75.048 174.199 75.3909 175.126 75.6322C176.052 75.8862 176.141 75.6322 177.271 76.6229C178.4 77.6135 178.68 77.6643 178.743 78.4771C178.807 79.29 179.352 80.0266 179.708 80.1536C180.063 80.2806 180.533 80.3187 180.545 81.449C180.558 82.5921 180.647 82.427 181.04 83.062C181.434 83.697 181.675 83.8367 181.65 84.7639C181.637 85.691 181.599 86.1863 181.942 86.7071C182.284 87.2278 182.272 87.4818 181.535 87.7739C180.799 88.0533 180.05 88.9678 181.078 89.4504C182.107 89.933 182.678 90.0473 182.081 90.9363C181.485 91.8254 180.558 91.4825 180.038 90.7966C179.517 90.1108 179.263 90.4664 179.847 91.5206C180.431 92.5874 181.002 91.9016 180.393 93.0827C179.784 94.2639 180.596 95.0386 181.231 94.8227C181.865 94.6068 181.688 93.7051 181.523 93.2478C181.358 92.7906 182.487 92.6128 182.602 93.2733C182.716 93.9337 182.462 94.3274 182.424 95.2037C182.373 96.0801 182.424 97.2993 182.348 98.1503C182.272 99.0012 182.233 99.052 181.789 99.2933C181.345 99.5346 181.129 99.7632 181.535 99.9283C181.942 100.093 182.132 100.563 182.081 101.16C182.03 101.757 181.637 101.148 180.964 99.9918C180.304 98.8361 178.565 96.8167 178.045 96.1944C177.525 95.5593 177.195 95.4958 177.195 95.4958C177.195 95.4958 179.53 99.0393 180.088 100.068C180.647 101.097 180.33 101.414 179.581 100.487C178.832 99.56 177.588 96.9818 175.342 94.6576C173.095 92.3334 171.877 92.0286 171.877 92.0286C171.877 92.0286 176.243 96.5627 176.865 98.0105C177.487 99.4584 177.03 99.4076 175.938 98.0614C174.847 96.7278 172.143 94.3909 170.011 92.689C167.879 90.9872 167.168 90.6569 167.168 90.6569C167.168 90.6569 171.483 94.9624 172.752 97.0453C174.022 99.1282 174.263 99.6235 174.263 99.6235C174.263 99.6235 173.311 100.157 173.146 99.9664C172.994 99.7759 169.364 94.9116 166.444 92.3207C163.538 89.7171 162.967 89.7171 162.967 89.7171C162.967 89.7171 164.426 91.5206 167.409 94.7719C170.392 98.0233 172.118 100.589 172.118 100.589L171.267 101.897C171.267 101.897 167.473 96.0547 164.046 93.1716C160.619 90.2759 160.225 90.0473 160.225 90.0473C160.225 90.0473 160.885 89.2345 164.921 89.2599C168.958 89.2853 171.953 89.5774 171.953 89.5774C171.953 89.5774 169.135 88.4978 164.249 88.574C159.362 88.6503 156.989 90.0981 156.989 90.0981L158.652 90.8601L153.499 91.165L151.646 88.1168C151.646 88.1168 152.597 86.9992 154.933 86.8849C157.281 86.7833 158.664 86.5674 158.664 86.5674C158.664 86.5674 158.766 86.2626 155.77 86.415C152.775 86.5674 151.189 87.3802 151.189 87.3802L150.782 86.5166C150.782 86.5166 149.856 87.4818 148.396 87.8247C146.937 88.1676 145.16 88.0914 145.16 88.0914C145.16 88.0914 148.599 88.9297 149.462 88.9424C150.313 88.9424 150.757 88.9043 150.757 88.9043L151.354 89.9076C150.617 89.9711 149.297 90.0473 147.901 89.9584C145.807 89.8314 144.195 89.3361 144.195 89.3361C144.195 89.3361 147.774 90.5299 149.577 90.695C150.554 90.7839 151.366 90.7967 151.887 90.7839L152.242 91.3809C151.062 91.3174 148.384 91.1396 146.797 90.8729C144.716 90.5172 144.208 90.4029 144.208 90.4029C144.208 90.4029 148.193 91.6603 150.262 91.9905C151.328 92.1683 152.179 92.2826 152.75 92.3588L152.483 93.1081L142.901 90.9744L152.052 94.2893L151.912 94.6957C151.912 94.6957 143.32 92.3461 142.203 91.9397C141.098 91.5333 139.487 91.3555 139.487 91.3555L141.505 89.0948C141.505 89.0948 139.195 90.2632 137.951 90.7077C136.707 91.1396 136.136 91.3555 136.136 91.3555C136.136 91.3555 137.811 91.9524 138.636 92.2064C139.461 92.4604 140.261 92.7144 140.261 92.7144C140.261 92.7144 123.444 99.6108 113.76 102.634C104.076 105.644 92.31 109.098 87.9439 110.203C83.5778 111.308 80.0875 110.851 80.0875 110.851C80.0875 110.851 70.2258 114.978 60.5163 116.198C50.8069 117.43 43.2424 115.029 38.5082 113.785C33.7741 112.54 31.0199 110.216 34.3706 108.895C37.734 107.574 42.4936 106.241 47.8242 104.208C53.1676 102.176 58.0668 98.4551 58.0668 98.4551C58.0668 98.4551 66.6974 101.008 67.662 101.465C68.6266 101.922 69.2358 102.062 68.6012 102.532C67.9793 103.002 64.9966 104.501 61.3667 105.605C57.7368 106.71 56.4929 106.749 56.4929 106.749C56.4929 106.749 63.3974 106.215 67.1162 104.386C70.835 102.557 69.5658 101.884 71 100.779C72.4342 99.6743 74.7061 95.5339 68.9312 93.3749C63.169 91.2158 53.0153 91.9524 53.0153 91.9524C53.0153 91.9524 64.5397 92.0921 67.3193 94.5433C70.0989 96.9945 69.8831 101.325 63.9686 99.2044L64.0574 99.179ZM183.16 112.527L179.479 108.374L179.492 107.345L183.097 110.724C183.097 110.724 183.262 111.892 183.16 112.527ZM183.414 109.454L182.995 107.371L179.416 104.907L179.517 106.24L183.414 109.441V109.454ZM182.36 106.05L179.302 104.094L179.086 103.142L182.31 104.818L182.373 106.05H182.36ZM180.114 102.913C180.114 102.913 179.251 102.634 178.959 102.24C178.68 101.846 177.918 101.148 178.274 101.071C178.629 100.995 178.718 101.325 179.581 101.846C180.431 102.367 180.787 102.976 180.114 102.913ZM143.281 98.2773C143.281 98.2773 140.895 97.9343 139.436 97.5914C137.976 97.2485 137.456 97.3628 137.811 97.1723C138.179 96.9818 139.207 96.3849 139.207 96.3849C139.207 96.3849 140.781 96.9437 141.835 97.0834C142.888 97.2358 143.662 97.2612 143.662 97.2612L143.269 98.2773H143.281ZM143.332 95.7118L141.746 95.661C141.746 95.661 141.568 95.191 142.431 94.9497C143.294 94.7084 143.802 95.0132 143.332 95.7118V95.7118ZM105.954 110.863L102.413 107.866L104.076 107.307L106.271 109.339L105.954 110.851V110.863ZM106.538 107.79L105.434 106.914L107.172 106.38L106.538 107.79ZM35.6018 93.6162C35.8048 93.4511 38.9652 90.6315 40.6024 90.6442C42.2524 90.6569 42.5063 90.7712 42.9251 90.06C43.3439 89.3488 43.6105 88.4597 41.9859 88.447C40.3613 88.4343 39.8282 88.2819 39.6886 88.3327C39.549 88.3835 40.5136 89.2599 39.8282 89.6028C39.1428 89.9457 36.2998 91.6857 35.6018 93.6162ZM52.2919 92.2445C52.2919 92.2445 51.3399 92.2318 50.6292 91.7873C49.9311 91.3428 50.02 90.8982 50.02 90.8982L37.9117 95.4577C37.9117 95.4577 48.6873 92.7017 49.9692 92.6382C51.2511 92.5747 52.2919 92.2445 52.2919 92.2445ZM59.9325 85.1957C59.6279 85.2846 58.6125 85.5005 57.1275 86.072C55.6426 86.6436 55.2745 85.9831 53.0534 86.4912C50.8323 87.0119 47.0119 89.552 45.3239 90.441C43.6358 91.3301 43.3566 91.5968 43.3566 91.5968C43.3566 91.5968 44.4355 89.7679 45.5143 89.2345C46.5931 88.7011 46.8977 88.6376 46.8977 88.6376C46.8977 88.6376 44.9431 87.685 44.7274 86.7325C44.5116 85.7799 44.5243 85.3354 44.5243 85.3354C44.5243 85.3354 45.2985 86.6944 46.1743 87.2405C47.05 87.7866 47.5958 87.8755 48.1415 87.7739C48.6873 87.6723 51.3907 86.072 52.9138 85.6402C54.4368 85.1957 54.6399 84.3321 54.5637 82.8207C54.4876 81.3093 53.2057 80.4965 52.7615 80.2806C52.3172 80.0647 51.5303 79.9631 51.5303 79.9631C51.5303 79.9631 54.2591 79.6964 55.3506 81.2966C56.4422 82.8969 55.9472 85.1322 55.9472 85.1322C55.9472 85.1322 57.9779 85.2211 59.9325 85.2084V85.1957ZM50.8323 81.0934C50.8323 81.0934 52.7615 82.4143 52.2284 83.6589C51.708 84.9036 50.1596 85.7672 48.8269 86.3388C47.4942 86.9103 46.1108 86.2626 46.1235 84.6115C46.1362 82.9731 47.5577 82.0714 48.3319 81.6777C49.1061 81.2966 48.9031 81.4745 48.7508 82.046C48.5985 82.6175 48.5858 83.3795 49.4996 83.5827C50.4134 83.7732 50.9211 82.681 50.8196 82.1857C50.718 81.6904 50.8196 81.0934 50.8196 81.0934H50.8323ZM47.7481 82.8461C48.1415 82.8334 48.4715 83.1382 48.4842 83.5319C48.4969 83.9257 48.1923 84.2559 47.7989 84.2686C47.4054 84.2813 47.0754 83.9765 47.0627 83.5827C47.05 83.189 47.3546 82.8588 47.7481 82.8461ZM51.2384 114.572C51.2384 114.572 71.2792 111.791 78.6026 107.828C85.9259 103.853 88.6293 96.6643 89.5812 97.566C90.5458 98.4678 90.5458 98.544 89.9747 99.8775C89.4162 101.224 83.9713 108.107 76.2799 110.444C68.5885 112.781 51.2257 114.572 51.2257 114.572H51.2384ZM77.3206 82.7191C77.3206 82.7191 73.6146 82.7953 69.3119 84.1289C65.0093 85.4624 63.3467 85.183 63.1817 85.9577C63.0167 86.7325 63.499 86.7833 65.6566 86.2626C67.8143 85.7418 72.2692 83.824 77.3333 82.7191H77.3206ZM74.4649 87.7739C74.4649 87.7739 80.1637 87.1135 82.2833 86.923C84.4028 86.7325 85.4182 86.3134 85.6847 85.8561C85.9513 85.3989 86.167 85.3608 86.9032 85.8815C87.6393 86.4023 87.7408 86.669 87.7408 86.669C87.7408 86.669 86.5351 87.0881 85.837 87.3548C85.1263 87.6215 79.4148 87.8755 74.4776 87.7739H74.4649ZM80.5698 94.1623C80.5698 94.1623 86.5351 93.1208 88.1089 89.8441C89.6827 86.5674 89.3401 84.7893 89.6066 81.9698C89.7589 80.3314 90.0508 79.0105 89.9874 77.7659C89.8477 77.7913 89.6827 77.804 89.4924 77.804C88.7055 77.7786 88.4516 77.8802 88.2739 78.2104C88.0962 78.5406 87.6266 79.1884 85.7482 79.3662C83.8698 79.544 81.5471 79.2011 81.5471 79.2011C81.5471 79.2011 83.3113 78.8581 85.469 78.693C87.6266 78.5279 87.7662 77.6897 87.2332 77.2198C86.7001 76.7499 87.5378 76.5593 88.2485 77.0039C88.6801 77.2706 89.3781 77.0928 89.8604 76.915C89.7335 76.318 89.4797 75.7338 89.0481 75.1369C88.5658 74.4765 87.6774 73.5112 86.6239 72.4698C86.5859 72.4825 86.5351 72.4952 86.4716 72.5079C85.5324 72.6603 85.2913 72.8889 84.4282 73.5874C83.5652 74.2859 83.7048 75.0226 81.5344 75.2004C79.3641 75.3782 71.99 78.4517 71.99 78.4517C71.99 78.4517 74.6934 77.0928 77.2953 75.8354C79.8971 74.5781 80.3541 74.0954 82.5244 73.435C84.7074 72.7746 84.4663 72.3428 84.8217 71.5172C84.9105 71.3013 85.0121 71.1489 85.1136 71.0346C83.1844 69.2184 81.1664 67.5166 80.3921 67.072C79.7448 66.7037 79.1864 66.4497 78.6787 66.2465C78.5264 66.6148 78.2599 67.1609 77.841 67.8468C77.016 69.1422 75.6834 68.9771 74.4269 70.1837C73.1703 71.3902 72.2692 72.2158 71.2411 72.9397C70.2131 73.6636 65.682 76.1656 65.682 76.1656C65.682 76.1656 70.8731 71.6315 72.3327 70.806C73.7923 69.9805 74.7949 68.4818 75.6834 67.9992C76.5718 67.5166 77.4476 66.4116 77.5237 66.2592L77.7014 65.9163C77.4603 65.8401 77.2191 65.7766 76.978 65.7131C75.9372 65.4337 75.8357 64.4049 76.8764 64.3541C77.9299 64.3033 80.1129 64.3541 83.2098 65.9798C86.3066 67.6055 89.2893 69.9805 91.1296 71.5553C92.9573 73.1175 93.5158 74.6416 92.4369 76.318C91.3581 78.0072 89.6066 82.7445 90.99 84.8401C92.3735 86.9357 91.8023 88.0025 91.0281 89.4885C90.2539 90.9618 87.1697 93.3622 85.2024 93.667C83.2352 93.9718 80.5571 94.175 80.5571 94.175L80.5698 94.1623ZM80.7983 69.8154C80.7983 69.8154 80.4429 70.5901 79.7702 70.8822C79.0975 71.1743 78.3106 71.1616 76.2672 72.6603C74.2238 74.1589 71.4569 76.1275 71.4569 76.1275C71.4569 76.1275 76.4068 72.9778 78.4883 72.546C80.5698 72.1142 81.014 71.3521 81.8136 70.7044C82.6132 70.044 82.4736 69.6757 81.8263 69.5741C81.179 69.4724 80.811 69.8281 80.811 69.8281L80.7983 69.8154ZM179.784 86.0085C179.784 86.0085 179.454 85.056 178.54 84.3829C177.626 83.7098 176.687 83.7986 176.332 83.3541C175.976 82.8969 176.217 82.2873 175.545 81.9698C174.872 81.6523 174.618 81.5507 173.565 81.4745C172.524 81.3983 172.879 81.2458 172.727 80.6235C172.575 80.0139 171.978 80.0139 171.217 79.9123C170.442 79.8107 169.668 79.4678 169.503 78.8835C169.338 78.2866 169.351 78.2485 168.945 77.9818C168.526 77.7151 169.034 76.9531 169.529 76.8515C170.011 76.7499 170.531 76.9912 170.912 77.9945C171.28 79.0105 171.75 79.3916 172.892 79.3789C174.047 79.3662 174.136 79.7599 174.479 80.433C174.821 81.1061 175.342 81.3474 176.255 81.3982C177.169 81.449 177.905 82.2238 178.312 82.9985C178.718 83.7732 179.581 83.4938 180.304 84.5353C181.015 85.5767 179.962 86.3388 179.797 85.9958L179.784 86.0085ZM172.346 85.4751C172.346 85.4751 170.937 85.5894 170.633 85.2719C170.328 84.9671 170.011 84.548 169.313 84.2559C168.602 83.9638 168.577 83.1001 169.084 83.189C169.592 83.2779 170.772 83.7733 170.925 84.0146C171.077 84.2686 170.519 84.6877 171.559 84.7766C172.6 84.8655 172.854 85.3862 172.346 85.4751ZM174.885 87.9898C174.796 87.8628 174.187 87.2278 173.92 86.8849C173.654 86.5293 174.415 85.9958 175.177 86.6563C175.938 87.304 176.078 88.2946 174.885 88.0025V87.9898ZM179.238 88.5868C179.238 88.5868 178.235 88.1549 177.779 87.4056C177.334 86.6563 177.956 86.2372 178.857 86.8468C179.771 87.4564 179.72 88.6757 179.238 88.5868ZM174.644 84.9417C174.644 84.9417 174.174 84.5734 173.108 84.0019C172.054 83.4176 171.674 83.4811 170.798 82.9477C169.922 82.4143 169.579 81.5761 169.998 81.4618C170.404 81.3474 171.267 81.7031 171.978 82.3381C172.689 82.9731 172.689 82.7826 173.717 83.2906C174.745 83.7987 175.456 85.0687 174.644 84.9417ZM167.561 80.4584C167.561 80.4584 165.988 80.9029 164.579 80.2425C163.17 79.5821 162.523 78.2485 161.723 77.4611C160.923 76.6737 160.72 76.5847 159.705 76.4831C158.69 76.3815 158.41 75.3528 157.687 75.1115C156.964 74.8702 156.976 74.7051 155.174 74.7686C153.384 74.8321 152.915 74.4511 152.851 73.9811C152.788 73.5112 153.651 73.3969 152.052 73.1048C150.452 72.8127 150.122 71.3902 151.087 71.6696C152.064 71.9491 153.638 71.4156 154.019 72.7619C154.387 74.1081 154.73 74.0319 155.77 73.9557C156.811 73.8922 157.801 74.0573 158.436 74.5908C159.07 75.1242 159.172 75.1369 160.289 75.3655C161.406 75.5941 161.19 75.5687 162.231 76.2926C163.271 77.0293 162.853 78.185 164.591 78.6295C166.343 79.0741 167.13 78.8581 167.587 79.4424C168.044 80.0266 167.549 80.4457 167.549 80.4457L167.561 80.4584ZM148.333 71.9999C148.333 71.9999 147.406 72.0126 146.708 71.8093C146.01 71.6061 145.49 71.5807 145.49 71.5807C145.49 71.5807 145.782 70.6663 147.241 70.806C148.701 70.9584 148.333 71.9999 148.333 71.9999ZM143.827 71.2251C143.827 71.2251 143.269 71.5299 142.685 71.6696C142.101 71.8093 142.355 71.7585 141.225 70.5266C140.096 69.2946 140.146 69.0025 141.847 69.4089C143.548 69.8154 144.754 70.679 143.827 71.2251V71.2251ZM136.542 70.7679C136.542 70.7679 132.785 71.0092 132.138 71.0346C131.49 71.06 132.442 70.2853 133.382 69.6884C134.321 69.1041 135.006 68.9898 135.78 69.6249C136.542 70.2726 136.555 70.7552 136.555 70.7552L136.542 70.7679ZM130.488 70.7298C130.12 70.8187 129.32 71.2251 127.048 71.314C124.776 71.4029 124.18 71.0092 123.418 72.1269C122.657 73.2445 120.842 73.054 119.979 72.3301C119.116 71.6061 118.557 69.9678 120.715 69.5105C122.873 69.0533 123.266 70.298 124.015 70.552C124.751 70.7933 125.246 69.7646 126.122 69.1676C126.997 68.5707 129.282 68.7866 129.688 69.2311C130.094 69.6757 130.501 70.7298 130.501 70.7298H130.488ZM117.187 72.292C117.187 72.292 114.432 72.2412 114.255 72.2793C114.077 72.3174 113.988 71.0854 115.181 70.9838C116.374 70.8822 117.516 71.8474 117.187 72.292ZM113.633 73.0921C113.633 73.0921 113.163 74.1208 112.503 73.8287C111.843 73.5239 109.762 72.8762 108.645 73.5493C107.515 74.2224 107.287 75.2512 106.259 75.4163C105.231 75.5814 105.192 74.6035 105.243 74.1335C105.307 73.6509 105.192 73.4477 104.774 73.7144C104.355 73.9811 104.697 72.419 105.142 72.038C105.586 71.6569 106.068 72.3428 106.589 72.9143C107.109 73.4985 107.541 73.689 108.404 72.7746C109.267 71.8601 110.79 71.695 111.437 72.292C112.084 72.8889 112.541 72.8508 112.884 72.7873C113.227 72.7238 113.645 73.1048 113.645 73.1048L113.633 73.0921ZM91.5612 54.0667C91.5612 54.0667 89.9874 53.1523 89.0481 53.9905C88.1089 54.8287 87.9947 55.4003 86.7382 55.2987C85.4817 55.197 84.8471 53.7746 86.9032 53.5841C88.9593 53.3936 88.8324 52.0219 90.3681 52.441C91.9165 52.8601 92.8304 53.7238 91.5612 54.054V54.0667ZM93.8331 52.1489C93.8331 52.1489 95.1023 52.695 96.308 52.2378C97.5138 51.7806 97.3868 52.06 98.2626 51.5774C99.1383 51.0821 100.585 50.536 101.994 50.6503C103.403 50.7646 103.936 50.9932 102.743 51.6282C101.563 52.2505 100.712 51.1075 99.1764 51.9203C97.6407 52.7331 97.1584 53.7238 95.1276 53.7746C93.0969 53.8254 92.7161 52.0092 93.8204 52.1616L93.8331 52.1489ZM108.023 52.1743C107.617 52.0854 106.094 51.8695 105.154 51.3869C104.215 50.9043 104.291 49.5707 106.043 49.6088C107.794 49.6469 109.66 52.5807 108.036 52.1743H108.023ZM112.199 51.8187C112.199 51.8187 114.052 49.5834 115.219 50.32C116.4 51.0567 117.199 51.0186 117.91 50.4216C118.621 49.8247 118.329 49.5961 119.331 49.7739C120.334 49.9517 122.378 49.5961 122.378 49.5961C122.378 49.5961 120.753 47.4751 119.103 48.3388C117.466 49.2024 117.275 50.0152 115.308 49.2151C113.341 48.415 111.729 48.9103 111.082 49.7612C110.434 50.6122 112.186 51.8187 112.186 51.8187H112.199ZM135.869 51.1202C135.869 51.1202 134.829 51.1964 133.102 50.6249C131.376 50.0533 130.526 50.1041 129.815 50.7392C129.104 51.3742 126.68 51.044 125.804 50.066C124.929 49.1008 125.259 48.1737 126.68 49.1516C128.102 50.1295 128.533 49.9771 129.726 49.2913C130.919 48.6055 132.442 49.3802 133.039 49.7866C133.635 50.2057 133.052 49.6596 134.511 49.8501C135.971 50.0406 136.77 51.1837 135.882 51.1329L135.869 51.1202ZM140.984 52.5934C140.984 52.5934 138.992 51.6155 138.56 51.4377C138.128 51.2472 139.41 50.3454 140.68 50.8662C141.949 51.3742 142.126 52.7712 140.984 52.6061V52.5934ZM149.056 55.6543C149.056 55.6543 146.937 54.8668 145.261 54.0159C143.586 53.165 144.678 51.8949 146.873 52.7839C149.069 53.673 150.897 55.7559 149.044 55.6543H149.056ZM151.671 55.5019C151.671 55.5019 153.46 56.7846 154.552 56.8608C155.644 56.937 155.656 57.4831 156.583 58.423C157.509 59.3501 158.258 59.4009 159.337 59.6676C160.416 59.947 161.114 60.5313 161.71 61.2298C162.307 61.9283 163.145 62.6396 164.198 62.8301C165.251 63.0206 165.886 63.6175 167.206 64.8241C168.526 66.0433 168.793 66.2084 169.161 65.8655C169.529 65.5226 169.249 64.9511 168.374 64.2525C167.498 63.5413 166.165 62.5761 165.036 62.1823C163.906 61.7886 162.992 61.5727 162.65 60.7599C162.307 59.947 161.139 59.312 159.616 58.8675C158.093 58.423 158.08 58.0928 157.293 57.1656C156.507 56.2385 155.517 55.9845 154.362 55.667C153.207 55.3495 153.232 55.07 152.559 54.7398C151.887 54.4096 150.935 54.9811 151.684 55.5019H151.671ZM84.644 59.3628C84.9232 59.3882 87.7662 60.0486 87.7662 60.0486C87.7662 60.0486 87.1316 58.3722 89.3147 58.4992C91.4977 58.6262 92.0435 57.7626 92.7796 57.2926C93.5158 56.8227 93.9854 56.5433 93.9854 56.5433C93.9854 56.5433 93.4015 56.2512 92.2338 55.921C91.0662 55.5908 90.7616 56.5814 90.2031 57.1402C89.6447 57.6991 88.5785 57.2926 87.817 57.0767C87.0555 56.8608 83.4636 59.2612 84.6567 59.3628H84.644ZM95.1023 55.8575C95.1023 55.8575 96.3842 56.4671 97.7803 57.6101C99.1764 58.7532 99.6587 59.0453 102.058 57.3307C104.444 55.6162 104.05 55.8702 105.687 55.8448C107.325 55.8194 107.49 55.8194 107.756 54.689C108.023 53.5587 108.162 53.4571 106.982 54.0667C105.814 54.689 106.017 54.9176 104.355 54.9303C102.692 54.9557 102.083 55.0065 100.611 56.0099C99.151 57.0132 99.3033 56.429 97.8311 55.2478C96.3588 54.0667 94.6073 55.4892 95.1023 55.8448V55.8575ZM110.142 54.0413C110.142 54.0413 110.32 54.0159 110.777 54.7906C111.234 55.5654 111.64 55.4511 112.947 54.9938C114.255 54.5366 114.775 54.8033 115.232 55.4003C115.689 55.9972 115.968 56.1369 117.351 55.6162C118.735 55.0827 118.989 55.1589 121.159 55.0065C123.317 54.8541 123.19 54.9176 124.053 55.5273C124.916 56.1369 126.211 56.0734 126.985 55.5527C127.759 55.0446 128.013 54.3969 128.863 55.1589C129.701 55.921 130.665 56.2512 131.985 55.6416C133.318 55.0319 134.219 54.4477 134.905 55.3876C135.603 56.3401 136.136 56.8481 137.545 56.5941C138.953 56.3401 138.382 56.5687 140.197 56.6957C142.012 56.8227 142.71 56.7846 143.853 56.9624C144.995 57.1529 144.906 56.7465 144.665 56.2893C144.424 55.8321 144.094 55.4003 142.482 55.7432C140.87 56.0988 140.248 56.3909 139.804 55.3622C139.36 54.3334 138.89 54.054 138.065 54.5493C137.24 55.0446 137.316 55.4257 136.009 54.3588C134.702 53.2793 134.067 53.0253 132.861 53.7238C131.655 54.4096 131.008 54.4604 130.361 53.4571C129.714 52.4537 129.358 51.8314 128.444 52.5299C127.531 53.2285 126.896 54.5874 126.185 53.7238C125.474 52.8601 124.281 52.1743 123.482 52.9745C122.695 53.7746 122.403 54.054 121.743 53.0507C121.07 52.0473 120.334 52.2759 119.776 53.2285C119.217 54.181 118.265 55.0065 116.869 53.7111C115.473 52.4156 114.75 52.5299 113.722 53.1396C112.694 53.7365 112.49 54.1302 111.247 53.4952C110.003 52.8601 109.229 53.4063 110.117 54.054L110.142 54.0413ZM146.848 57.2672C147.038 57.318 148.092 57.3561 149.437 58.4611C150.782 59.566 151.76 59.1977 151.519 58.423C151.277 57.6482 150.516 56.3782 149.094 56.4163C147.673 56.4671 146.861 57.2672 146.861 57.2672H146.848ZM155.098 60.0868C155.098 60.0868 155.199 60.8996 155.923 61.6743C156.646 62.4618 158.169 61.3822 158.372 62.3474C158.575 63.3 158.817 63.7064 160.098 63.6429C161.368 63.5794 161.38 63.7318 162.789 64.5573C164.211 65.3829 164.693 65.675 165.264 66.5005C165.835 67.3261 165.746 68.1643 166.838 68.0754C167.929 67.9865 168.259 67.7198 168.831 68.3802C169.414 69.0406 169.453 69.2692 169.706 69.6122C169.948 69.9551 170.811 69.8027 169.998 68.5834C169.186 67.3515 169.059 67.1482 167.917 66.9196C166.774 66.691 166.749 67.3007 165.975 66.0814C165.201 64.8495 164.211 63.9985 162.992 63.5794C161.786 63.1603 162.269 63.3 161.203 62.5634C160.137 61.8267 160.34 61.687 159.235 61.5473C158.131 61.4076 157.712 61.0774 157.344 60.4932C156.976 59.9089 154.869 59.6549 155.072 60.1249L155.098 60.0868ZM179.124 81.3856C178.87 81.2077 177.525 79.1376 176.877 79.2519C176.243 79.3662 175.938 78.7565 175.278 78.1977C174.618 77.6389 175.164 77.6516 173.819 77.5119C172.473 77.3722 172.359 76.8515 171.636 76.2418C170.912 75.6195 171.966 75.8608 170.189 75.8354C168.412 75.7973 167.993 75.1115 167.498 73.9049C167.003 72.6984 168.006 72.7492 168.501 73.7144C168.996 74.6797 169.643 74.9972 169.719 74.3495C169.795 73.7017 170.811 73.9811 171.851 75.0099C172.892 76.0513 173.006 75.7719 174.161 76.5593C175.316 77.3468 175.862 78.185 176.37 77.7405C176.877 77.296 177.372 77.55 177.867 78.4898C178.362 79.417 179.124 81.3856 179.124 81.3856V81.3856ZM166.774 77.4103C166.419 77.3087 165.835 76.6101 165.302 76.2418C164.756 75.8735 163.97 74.794 165.886 75.6449C167.803 76.5085 167.714 77.6516 166.774 77.4103ZM162.561 74.2224C162.561 74.2224 162.053 74.1335 161.799 73.8287C161.545 73.5239 160.987 72.7492 159.185 72.8762C157.382 73.0032 156.824 72.5714 156.57 72.2285C156.316 71.8855 156.215 72.165 155.314 71.8983C154.412 71.6315 154.362 71.314 153.232 70.933C152.102 70.552 150.973 70.1329 152.306 70.0567C153.638 69.9805 153.841 69.9297 154.476 70.5774C155.11 71.2251 155.301 71.568 156.253 71.3775C157.205 71.187 158.169 71.9999 158.448 72.1777C158.74 72.3555 159.299 72.2666 161.127 72.4952C162.954 72.7111 162.992 74.2351 162.548 74.2224H162.561ZM150.135 68.7866C150.135 68.7866 149.501 69.32 147.762 68.5961C146.023 67.8849 146.124 68.1135 144.741 67.8468C143.358 67.5801 142.558 67.3896 141.34 67.0466C140.121 66.7037 139.512 65.929 141.263 66.056C143.002 66.1957 142.533 66.31 144.665 66.8815C146.81 67.4658 146.099 66.3989 147.609 67.0212C149.12 67.6436 151.201 68.2024 150.122 68.7739L150.135 68.7866ZM138.065 66.818C137.887 66.7799 137.76 67.3515 136.58 66.7545C135.4 66.1576 135.235 65.929 134.638 65.9544C134.042 65.9798 133.686 65.1797 135.12 65.2305C136.555 65.2813 138.966 65.0146 138.065 66.8307V66.818ZM132.557 66.5386C132.341 66.6402 132.772 66.5513 131.782 66.9196C130.792 67.3007 132.328 65.8655 129.523 66.2338C126.706 66.6021 125.462 67.2118 124.637 66.3481C123.824 65.4845 124.053 65.5099 126.591 65.5607C129.13 65.5988 129.472 65.7131 130.272 65.421C131.072 65.1416 132.354 64.7478 132.201 65.3829C132.049 66.0179 132.024 66.1703 132.404 66.1576C132.772 66.1449 132.937 66.3862 132.557 66.5259V66.5386ZM119.408 66.5767C119.319 66.6148 118.798 67.6182 118.037 67.2753C117.275 66.9323 116.032 67.0339 115.498 67.669C114.965 68.304 114.255 67.669 113.899 67.4531C113.544 67.2372 113.531 67.6182 112.643 68.0246C111.742 68.431 110.726 68.5072 110.422 67.7071C110.13 66.9069 111.488 65.7004 112.998 66.2465C114.508 66.7926 114.597 66.6275 115.143 66.1576C115.676 65.6877 116.692 65.8401 116.971 65.9798C117.25 66.1322 117.148 66.1068 118.062 65.7258C118.976 65.3321 119.712 66.3735 119.408 66.5894V66.5767ZM109.241 68.4945C109.102 68.5072 107.566 68.7866 106.83 68.8628C106.094 68.939 105.154 68.6977 104.837 69.4851C104.52 70.2726 104.317 70.3488 103.251 69.5486C102.184 68.7485 102.058 68.4818 103.631 67.8722C105.192 67.2626 106.246 68.05 107.706 67.7325C109.165 67.415 109.482 68.1643 109.254 68.5072L109.241 68.4945ZM103.301 65.9671C103.301 65.9671 102.971 64.4811 104.291 65.7004C105.611 66.9196 106.182 66.6783 107.731 65.6623C109.279 64.6462 109.267 64.3033 110.409 64.8876C111.551 65.4718 111.577 65.5861 113.455 64.57C115.333 63.554 115.778 63.0333 116.4 63.808C117.022 64.5827 117.237 65.0654 118.824 64.189C120.41 63.3127 120.753 62.538 121.959 63.2873C123.164 64.0366 123.863 64.5065 124.827 63.5413C125.792 62.5761 126.553 63.1603 127.277 63.808C128 64.4557 128.774 64.5192 130.665 64.2271C132.544 63.935 133.242 64.5573 133.661 64.0747C134.08 63.5921 133.889 62.5888 132.595 62.6269C131.3 62.665 131.173 63.7826 129.472 63.5286C127.772 63.2746 127.67 61.6108 126.122 62.1061C124.573 62.6015 125.056 63.5921 123.863 62.9444C122.669 62.2966 121.806 61.1663 120.575 61.9791C119.344 62.792 118.798 63.8334 117.973 62.9571C117.148 62.0934 115.308 61.941 113.963 63.1349C112.617 64.3287 112.516 64.3922 110.929 63.808C109.355 63.2238 108.492 63.4143 107.744 64.1128C106.995 64.8114 106.487 65.4591 104.977 64.5192C103.466 63.5794 101.994 65.6877 103.289 65.9671H103.301ZM106.652 59.9851C106.792 59.9597 108.391 58.0801 110.599 59.9216C112.808 61.7632 114.013 60.8869 114.356 60.0741C114.699 59.2739 115.702 59.6549 116.488 60.1884C117.275 60.7218 117.859 59.1215 116.311 58.423C114.775 57.7245 113.544 58.677 112.554 59.058C111.564 59.439 110.752 59.0961 109.419 58.1563C108.086 57.2164 104.748 59.3882 106.652 59.9724V59.9851ZM118.278 58.7405C118.278 58.7405 119.179 59.9597 120.981 59.8581C122.771 59.7565 123.342 58.4484 124.383 59.0453C125.424 59.6422 127.302 59.7057 125.957 58.6389C124.611 57.572 124.18 57.0386 122.378 57.8515C120.563 58.677 119.014 58.042 118.621 57.7626C118.215 57.4831 117.593 57.5847 118.303 58.7278L118.278 58.7405ZM129.066 58.6008C129.066 58.6008 130.094 60.5313 131.617 59.9343C133.14 59.3374 133.128 58.8167 134.308 59.5025C135.488 60.1884 134.549 59.7311 136.352 60.7599C138.154 61.7886 139.487 61.1282 139.994 60.8234C140.489 60.5186 139.905 60.6964 139.233 59.6168C138.56 58.5246 138.09 58.2198 137.138 58.9056C136.174 59.5914 135.844 59.9851 135.273 59.058C134.702 58.1309 134.41 57.7626 133.496 58.2452C132.582 58.7278 131.782 59.8835 130.767 59.1215C129.739 58.3595 129.003 57.4704 129.079 58.6135L129.066 58.6008ZM134.778 63.4143C134.778 63.4143 135.133 63.9731 136.453 63.9223C137.773 63.8842 138.281 64.189 138.281 64.189C138.281 64.189 137.875 63.173 136.872 62.6523C135.869 62.1315 134.41 63.1603 134.778 63.4143V63.4143ZM139.804 64.2906C139.804 64.2906 139.715 64.4684 141.847 64.7351C143.98 65.0019 144.17 64.7351 144.119 64.4049C144.056 64.062 143.776 63.1984 142.165 63.0714C140.565 62.9444 139.931 63.6175 139.804 64.3033V64.2906ZM146.962 65.5734C146.962 65.5734 148.587 66.2084 149.272 66.1703C149.957 66.1322 151.087 66.3227 151.633 67.1991C152.179 68.0627 152.09 68.05 153.499 68.05C154.907 68.05 155.504 67.9357 155.897 68.7739C156.291 69.5995 157.458 69.4978 158.283 69.536C159.108 69.5741 158.905 70.1583 159.692 70.4885C160.479 70.806 161.355 70.4123 160.809 69.7011C160.263 68.9898 160.34 69.2438 158.613 68.7739C156.887 68.3167 157.04 68.3294 156.418 67.6563C155.796 66.9831 155.935 67.3896 154.26 67.1482C152.585 66.9069 153.105 66.7926 152.242 66.0687C151.379 65.3448 150.922 65.9798 150.059 65.5353C149.196 65.0908 149.158 64.9765 148.346 64.7859C147.546 64.5954 146.505 65.1924 146.949 65.5861L146.962 65.5734ZM162.18 71.1743C162.18 71.1743 164.185 72.2158 164.833 72.7492C165.493 73.2826 166.33 72.4698 165.125 71.5934C163.931 70.7171 161.837 71.0346 162.18 71.1743V71.1743ZM141.885 60.1503C141.885 60.1503 143.421 61.5473 144.817 61.4838C146.213 61.4203 147.495 61.2044 148.206 62.195C148.917 63.173 149.158 63.3127 150.947 63.2492C152.737 63.1857 153.334 63.5032 153.435 64.2398C153.524 64.9892 153.613 65.1924 155.098 65.1162C156.583 65.04 157.319 65.2051 157.966 65.8909C158.613 66.564 159.299 66.0814 159.756 65.6623C160.213 65.2559 160.365 64.3287 158.575 64.3668C156.773 64.4049 156.659 65.2051 155.288 63.7318C153.905 62.2585 154.641 61.6743 152.712 62.0426C150.782 62.4109 151.303 63.0206 150.414 61.8902C149.539 60.7472 149.716 60.6075 147.901 60.6456C146.086 60.6837 146.531 61.433 145.071 60.2773C143.611 59.1088 141.517 58.8802 141.898 60.1757L141.885 60.1503Z" fill="#303C30"/>
<path d="M89.3904 129.101L88.7939 127.488H84.7071L84.0978 129.101H81.0137L85.329 118.991H88.4132L92.5762 129.101H89.3778H89.3904ZM85.5574 125.291H88.007L86.8013 121.989L85.5574 125.291ZM101.143 121.252V131.908H98.2241V128.212C97.9703 128.529 97.653 128.771 97.2849 128.949C96.9169 129.126 96.5107 129.203 96.0792 129.203C95.3557 129.203 94.7211 129.037 94.1754 128.695C93.6296 128.364 93.1981 127.882 92.8935 127.272C92.5889 126.662 92.4366 125.951 92.4366 125.126C92.4366 124.326 92.5889 123.627 92.8808 123.03C93.1727 122.433 93.5915 121.963 94.1246 121.633C94.6577 121.303 95.2923 121.138 96.003 121.138C96.4599 121.138 96.8788 121.227 97.2595 121.392C97.6403 121.57 97.9576 121.811 98.2241 122.141V121.227H101.143V121.252ZM96.8153 126.967C97.2342 126.967 97.5768 126.802 97.8434 126.485C98.0972 126.167 98.2368 125.735 98.2368 125.202C98.2368 124.681 98.1099 124.262 97.8434 123.945C97.5895 123.627 97.2468 123.462 96.8153 123.462C96.3838 123.462 96.0411 123.627 95.7746 123.945C95.5207 124.262 95.3811 124.694 95.3811 125.202C95.3811 125.735 95.508 126.154 95.7746 126.485C96.0284 126.802 96.3838 126.967 96.8153 126.967ZM110.853 121.252V129.101H107.934V127.933C107.667 128.352 107.324 128.682 106.918 128.898C106.512 129.114 106.042 129.228 105.522 129.228C104.976 129.228 104.494 129.101 104.075 128.86C103.656 128.618 103.326 128.263 103.098 127.818C102.869 127.361 102.755 126.84 102.755 126.231V121.252H105.674V125.405C105.674 125.786 105.776 126.091 105.966 126.32C106.157 126.548 106.411 126.662 106.728 126.662C107.109 126.65 107.401 126.51 107.616 126.231C107.832 125.951 107.946 125.583 107.946 125.138V121.252H110.865H110.853ZM112.617 121.252H115.536V129.101H112.617V121.252ZM114.064 117.518C114.508 117.518 114.863 117.658 115.143 117.937C115.422 118.217 115.562 118.572 115.562 119.017C115.562 119.461 115.422 119.817 115.143 120.096C114.863 120.376 114.508 120.515 114.064 120.515C113.62 120.515 113.264 120.376 112.972 120.096C112.693 119.817 112.541 119.461 112.541 119.017C112.541 118.572 112.68 118.217 112.972 117.937C113.252 117.658 113.62 117.518 114.064 117.518ZM125.855 123.906C124.789 123.36 123.938 123.081 123.291 123.081C123.113 123.081 122.961 123.106 122.859 123.17C122.758 123.233 122.694 123.322 122.694 123.449C122.694 123.589 122.796 123.716 122.986 123.805C123.189 123.894 123.494 123.995 123.926 124.11C124.497 124.275 124.979 124.44 125.36 124.605C125.741 124.77 126.071 125.011 126.35 125.354C126.629 125.685 126.781 126.116 126.781 126.637C126.781 127.437 126.464 128.072 125.842 128.529C125.208 128.999 124.383 129.228 123.342 129.228C122.644 129.228 121.984 129.139 121.362 128.949C120.727 128.758 120.156 128.479 119.648 128.123L120.537 126.294C121.032 126.612 121.514 126.853 121.996 127.018C122.479 127.183 122.936 127.259 123.38 127.259C123.583 127.259 123.735 127.234 123.849 127.17C123.964 127.107 124.027 127.018 124.027 126.904C124.027 126.764 123.938 126.637 123.748 126.548C123.558 126.459 123.253 126.358 122.821 126.243C122.263 126.091 121.793 125.926 121.425 125.773C121.045 125.608 120.727 125.367 120.448 125.037C120.169 124.707 120.029 124.287 120.029 123.767C120.029 122.954 120.334 122.319 120.956 121.849C121.565 121.379 122.377 121.138 123.38 121.138C124.586 121.138 125.728 121.455 126.832 122.09L125.868 123.919L125.855 123.906ZM131.579 121.15C132.874 121.15 133.876 121.531 134.587 122.293C135.31 123.055 135.666 124.11 135.666 125.43C135.666 125.634 135.666 125.786 135.653 125.875H130.373C130.487 126.256 130.678 126.535 130.944 126.739C131.211 126.942 131.528 127.043 131.909 127.043C132.518 127.043 133.089 126.789 133.635 126.294L135.145 127.78C134.727 128.237 134.232 128.593 133.635 128.834C133.039 129.076 132.379 129.19 131.655 129.19C130.792 129.19 130.043 129.025 129.409 128.695C128.774 128.364 128.292 127.894 127.949 127.297C127.606 126.701 127.441 126.002 127.441 125.202C127.441 124.389 127.619 123.678 127.962 123.068C128.304 122.459 128.799 121.989 129.421 121.646C130.043 121.316 130.767 121.138 131.579 121.138V121.15ZM132.785 124.453C132.797 124.072 132.683 123.754 132.467 123.5C132.252 123.246 131.96 123.119 131.604 123.119C131.262 123.119 130.995 123.233 130.767 123.475C130.551 123.716 130.399 124.033 130.322 124.44H132.785V124.453Z" fill="#FEFEFE"/>
<path d="M94.5436 133.635C95.2671 133.635 95.9017 133.8 96.4474 134.143C96.9932 134.486 97.4247 134.956 97.7294 135.578C98.034 136.188 98.1863 136.912 98.1863 137.712C98.1863 138.512 98.034 139.211 97.742 139.808C97.4501 140.405 97.0313 140.874 96.4982 141.205C95.9652 141.535 95.3306 141.7 94.6198 141.7C94.1629 141.7 93.744 141.611 93.3633 141.446C92.9825 141.268 92.6652 141.027 92.3987 140.697V144.405H89.4795V133.749H92.3987V134.664C92.6525 134.334 92.9698 134.092 93.3379 133.915C93.706 133.737 94.1121 133.661 94.5436 133.661V133.635ZM93.8075 139.376C94.239 139.376 94.5817 139.211 94.8483 138.893C95.1021 138.576 95.2417 138.144 95.2417 137.636C95.2417 137.115 95.1148 136.696 94.8483 136.378C94.5944 136.061 94.239 135.896 93.8075 135.896C93.3887 135.896 93.046 136.061 92.7794 136.378C92.5256 136.696 92.386 137.128 92.386 137.636C92.386 138.157 92.5129 138.576 92.7794 138.893C93.0333 139.211 93.376 139.376 93.8075 139.376ZM102.87 133.635C104.164 133.635 105.167 134.016 105.878 134.778C106.601 135.54 106.956 136.594 106.956 137.915C106.956 138.118 106.957 138.271 106.944 138.36H101.664C101.778 138.741 101.969 139.02 102.235 139.223C102.502 139.427 102.819 139.528 103.2 139.528C103.809 139.528 104.38 139.274 104.926 138.779L106.436 140.265C106.017 140.722 105.522 141.078 104.926 141.319C104.329 141.56 103.669 141.675 102.946 141.675C102.083 141.675 101.334 141.509 100.699 141.179C100.065 140.849 99.5824 140.379 99.2397 139.782C98.897 139.185 98.732 138.487 98.732 137.687C98.732 136.874 98.9097 136.175 99.2524 135.553C99.5951 134.943 100.09 134.473 100.712 134.13C101.334 133.788 102.057 133.622 102.87 133.622V133.635ZM104.075 136.937C104.088 136.556 103.974 136.239 103.758 135.985C103.542 135.731 103.25 135.604 102.895 135.604C102.565 135.604 102.286 135.718 102.057 135.959C101.842 136.201 101.689 136.518 101.613 136.925H104.075V136.937ZM113.633 136.391C112.566 135.845 111.716 135.566 111.069 135.566C110.891 135.566 110.739 135.591 110.637 135.655C110.536 135.718 110.472 135.807 110.472 135.934C110.472 136.074 110.574 136.201 110.764 136.29C110.967 136.378 111.272 136.48 111.703 136.594C112.274 136.759 112.757 136.925 113.138 137.09C113.518 137.255 113.848 137.496 114.128 137.839C114.407 138.169 114.559 138.601 114.559 139.122C114.559 139.922 114.242 140.557 113.62 141.014C112.985 141.484 112.16 141.713 111.12 141.713C110.421 141.713 109.761 141.624 109.14 141.433C108.505 141.243 107.934 140.963 107.426 140.608L108.315 138.779C108.81 139.096 109.292 139.338 109.774 139.503C110.256 139.668 110.713 139.744 111.158 139.744C111.361 139.744 111.513 139.719 111.627 139.655C111.741 139.592 111.805 139.503 111.805 139.388C111.805 139.249 111.716 139.122 111.526 139.033C111.335 138.944 111.031 138.842 110.599 138.728C110.041 138.576 109.571 138.411 109.203 138.245C108.822 138.08 108.505 137.839 108.226 137.509C107.946 137.179 107.807 136.759 107.807 136.239C107.807 135.426 108.111 134.791 108.733 134.321C109.343 133.851 110.155 133.61 111.158 133.61C112.363 133.61 113.506 133.927 114.61 134.562L113.645 136.391H113.633ZM120.715 136.785C120.575 136.531 120.41 136.34 120.194 136.213C119.979 136.074 119.737 136.01 119.471 136.01C119.09 136.01 118.773 136.163 118.532 136.467C118.291 136.772 118.176 137.179 118.176 137.674C118.176 138.182 118.291 138.601 118.532 138.906C118.773 139.223 119.077 139.376 119.471 139.376C120.055 139.376 120.474 139.084 120.715 138.512L122.974 139.655C122.682 140.303 122.212 140.798 121.565 141.154C120.93 141.509 120.169 141.687 119.306 141.687C118.494 141.687 117.77 141.522 117.161 141.192C116.552 140.862 116.069 140.392 115.739 139.795C115.397 139.198 115.232 138.499 115.232 137.699C115.232 136.886 115.397 136.188 115.739 135.566C116.082 134.956 116.564 134.486 117.186 134.143C117.808 133.8 118.519 133.635 119.344 133.635C120.156 133.635 120.88 133.813 121.514 134.169C122.149 134.524 122.631 135.032 122.961 135.68L120.727 136.772L120.715 136.785ZM127.556 133.622C128.66 133.622 129.523 133.876 130.145 134.384C130.767 134.892 131.071 135.591 131.071 136.493V141.586H128.216V140.722C127.975 141.04 127.657 141.281 127.277 141.459C126.883 141.636 126.439 141.713 125.931 141.713C125.106 141.713 124.459 141.484 123.989 141.04C123.52 140.595 123.279 139.998 123.279 139.249C123.279 138.487 123.532 137.903 124.053 137.496C124.573 137.09 125.322 136.874 126.312 136.874H128.228V136.848C128.228 136.518 128.114 136.264 127.886 136.086C127.657 135.909 127.315 135.807 126.87 135.807C126.553 135.807 126.185 135.858 125.766 135.947C125.347 136.048 124.929 136.188 124.51 136.366L123.786 134.435C125.119 133.902 126.375 133.622 127.568 133.622H127.556ZM126.896 139.808C127.188 139.808 127.467 139.731 127.708 139.592C127.949 139.452 128.127 139.249 128.228 138.995V138.284H126.896C126.312 138.284 126.02 138.525 126.02 139.02C126.02 139.274 126.096 139.465 126.248 139.592C126.401 139.731 126.617 139.795 126.896 139.795V139.808ZM132.391 131.501H135.158V134.13L134.651 137.979H132.912L132.391 134.13V131.501ZM133.724 138.995C134.13 138.995 134.46 139.122 134.714 139.376C134.968 139.63 135.095 139.947 135.095 140.341C135.095 140.747 134.968 141.078 134.714 141.332C134.46 141.586 134.13 141.713 133.724 141.713C133.331 141.713 133.001 141.586 132.747 141.332C132.493 141.078 132.366 140.747 132.366 140.341C132.366 139.947 132.493 139.63 132.747 139.376C133.001 139.122 133.331 138.995 133.724 138.995Z" fill="#FEFEFE"/>
<path d="M22.959 121.379C22.4513 120.376 22.299 119.487 22.502 118.687C22.7051 117.899 23.2382 117.277 24.1139 116.832C25.0278 116.362 25.8908 116.286 26.6651 116.566C27.452 116.858 28.0993 117.506 28.6069 118.509L29.2289 119.715L31.3104 118.661L32.478 120.96L24.7359 124.872L22.959 121.354V121.379ZM26.9062 119.525C26.7285 119.182 26.5001 118.953 26.2208 118.864C25.9416 118.776 25.6243 118.814 25.2816 118.992C24.9389 119.157 24.7359 119.385 24.647 119.665C24.5582 119.944 24.6089 120.262 24.7866 120.604L25.3451 121.709L27.4647 120.643L26.9062 119.538V119.525ZM19.0244 112.438C18.7198 111.6 18.6183 110.774 18.7325 109.961C18.8467 109.149 19.1513 108.437 19.659 107.815C20.154 107.193 20.8013 106.748 21.6009 106.456C22.4005 106.164 23.2001 106.088 23.987 106.227C24.7739 106.38 25.472 106.723 26.0939 107.256C26.7158 107.802 27.1727 108.488 27.4773 109.326C27.782 110.177 27.8835 111.003 27.7566 111.803C27.6297 112.616 27.325 113.327 26.8174 113.949C26.3097 114.572 25.6497 115.029 24.8501 115.321C24.0505 115.613 23.2636 115.689 22.4894 115.537C21.7151 115.385 21.0171 115.042 20.4079 114.508C19.7986 113.962 19.3417 113.276 19.0244 112.425V112.438ZM21.0171 111.663C21.144 112.019 21.3598 112.311 21.6771 112.552C21.9817 112.794 22.3371 112.933 22.7432 112.997C23.1493 113.06 23.5555 113.01 23.9616 112.857C24.3678 112.705 24.7105 112.476 24.9897 112.171C25.2689 111.867 25.4466 111.524 25.5228 111.143C25.6116 110.762 25.5862 110.393 25.4593 110.038C25.3324 109.695 25.1166 109.403 24.812 109.174C24.5074 108.945 24.152 108.806 23.7586 108.768C23.3651 108.717 22.9463 108.78 22.5274 108.933C22.1213 109.085 21.7786 109.301 21.4994 109.593C21.2201 109.885 21.0425 110.215 20.9536 110.584C20.8648 110.952 20.8902 111.308 21.0171 111.663V111.663ZM21.7786 102.1C22.2609 102.024 22.6163 101.82 22.8701 101.49C23.1113 101.16 23.2128 100.792 23.1367 100.385C23.0732 99.9788 22.8701 99.674 22.5401 99.4581C22.2101 99.2422 21.804 99.1787 21.309 99.2549L16.2956 100.08L15.8768 97.5403L20.8902 96.7148C21.639 96.5878 22.3244 96.6386 22.9336 96.8799C23.5428 97.1085 24.0505 97.5022 24.4566 98.0356C24.8628 98.5817 25.1293 99.2422 25.2562 100.042C25.3832 100.842 25.3451 101.566 25.142 102.214C24.9389 102.862 24.5836 103.408 24.0759 103.827C23.5682 104.246 22.9463 104.526 22.1974 104.64L17.1841 105.465L16.7652 102.925L21.7786 102.1V102.1ZM18.3771 88.7642C18.1233 89.2341 17.9075 89.7549 17.7425 90.3137C17.5775 90.8725 17.4887 91.3297 17.5014 91.6854C17.5141 91.914 17.5648 92.0791 17.6537 92.2061C17.7425 92.3331 17.8694 92.3839 18.0344 92.3839C18.2629 92.3712 18.4406 92.2442 18.5548 91.9902C18.669 91.7362 18.796 91.3424 18.9229 90.7963C19.0752 90.174 19.2275 89.666 19.3925 89.2723C19.5575 88.8658 19.8113 88.5102 20.1667 88.2054C20.5221 87.9006 20.9917 87.7355 21.5882 87.7101C22.1847 87.6847 22.7051 87.8244 23.1367 88.1292C23.5682 88.434 23.8855 88.8531 24.1139 89.3866C24.3424 89.92 24.4693 90.5169 24.4947 91.19C24.5201 91.9267 24.4186 92.676 24.2028 93.438C23.9743 94.2001 23.657 94.8478 23.2382 95.4066L21.2455 94.5176C21.6136 94.0731 21.9055 93.5269 22.1467 92.8792C22.3878 92.2442 22.4894 91.698 22.4767 91.2408C22.464 90.9614 22.4005 90.7455 22.2863 90.5931C22.1721 90.4407 22.0197 90.3645 21.8167 90.3772C21.5755 90.3899 21.3978 90.5169 21.2836 90.7836C21.1694 91.0503 21.0425 91.444 20.9282 91.9902C20.7886 92.5998 20.649 93.1078 20.4967 93.5015C20.3444 93.908 20.0906 94.2509 19.7479 94.5557C19.4052 94.8605 18.9483 95.0129 18.3644 95.0383C17.806 95.0637 17.311 94.924 16.8795 94.6446C16.4479 94.3652 16.1179 93.9587 15.8768 93.4253C15.6356 92.8919 15.496 92.2696 15.4706 91.5457C15.4452 90.8979 15.5214 90.2375 15.6737 89.5898C15.8387 88.942 16.0545 88.3705 16.3464 87.8752L18.3644 88.7515L18.3771 88.7642ZM25.3197 80.4073L23.8728 80.6994L23.327 84.1666L24.6216 84.8906L24.2155 87.5069L16.2195 82.5156L16.6256 79.8993L25.7512 77.7021L25.3324 80.42L25.3197 80.4073ZM21.5882 83.1506L21.9182 81.0677L18.961 81.6519L21.6009 83.1379L21.5882 83.1506ZM18.796 70.9708C19.0625 70.0817 19.4686 69.3578 20.0144 68.7863C20.5602 68.2148 21.2075 67.8337 21.9436 67.6559C22.6797 67.4781 23.4666 67.5035 24.2789 67.7448C25.1039 67.9862 25.7766 68.3926 26.2843 68.9641C26.8047 69.5356 27.1347 70.2087 27.2743 71.0089C27.4139 71.7963 27.3504 72.6473 27.0839 73.549L26.0178 77.1051L17.7044 74.6158L18.796 70.9708V70.9708ZM25.1928 72.7997C25.3578 72.2408 25.2943 71.7201 24.9897 71.2502C24.6851 70.7803 24.2155 70.4501 23.5428 70.2469C22.8828 70.0436 22.2863 70.069 21.7659 70.3231C21.2455 70.5771 20.8902 70.9962 20.7125 71.5804L20.3825 72.7108L24.812 74.0316L25.1801 72.787L25.1928 72.7997ZM31.7038 62.6773L30.2442 62.4995L28.6577 65.6239L29.6604 66.7161L28.4673 69.0784L22.4005 61.8645L23.5936 59.5022L32.9476 60.2261L31.7038 62.6773ZM27.2997 64.1379L28.2516 62.2582L25.2562 61.9026L27.2997 64.1379ZM31.8942 51.2976C31.4119 51.539 30.9423 51.8311 30.4727 52.1867C30.0158 52.5423 29.6858 52.8725 29.4827 53.1646C29.3558 53.3551 29.305 53.5202 29.305 53.6727C29.305 53.8251 29.3812 53.9521 29.5081 54.041C29.6985 54.168 29.9142 54.168 30.1554 54.0283C30.3965 53.8886 30.7265 53.6473 31.1454 53.2789C31.6277 52.8598 32.0465 52.5423 32.4146 52.3137C32.7826 52.0851 33.2015 51.9454 33.6584 51.8946C34.128 51.8565 34.5976 51.9962 35.0926 52.3137C35.6003 52.6439 35.9303 53.063 36.108 53.5583C36.2857 54.0537 36.2984 54.5871 36.1841 55.1459C36.0572 55.7047 35.8161 56.2763 35.448 56.8351C35.0418 57.4574 34.5215 58.0035 33.8995 58.4862C33.2776 58.9688 32.6303 59.3244 31.9703 59.5403L30.8661 57.6606C31.4246 57.5082 31.983 57.2288 32.5542 56.8478C33.1126 56.4668 33.5315 56.0858 33.7726 55.7047C33.9249 55.4761 34.0011 55.2602 34.0011 55.0697C34.0011 54.8792 33.9122 54.7268 33.7472 54.6252C33.5442 54.4982 33.3284 54.4982 33.0746 54.6379C32.8334 54.7776 32.5034 55.0316 32.0846 55.4126C31.6277 55.8317 31.2088 56.162 30.8534 56.3906C30.4981 56.6319 30.0919 56.7716 29.635 56.8097C29.1781 56.8605 28.7085 56.7208 28.2262 56.4033C27.7566 56.0985 27.4266 55.7047 27.2489 55.2221C27.0585 54.7395 27.0331 54.2188 27.1347 53.6473C27.2489 53.0757 27.5027 52.4915 27.8962 51.8819C28.2516 51.3357 28.6831 50.8531 29.2035 50.4086C29.7112 49.9768 30.2315 49.6466 30.7392 49.4053L31.8688 51.2976H31.8942ZM35.9303 42.3311C36.6918 41.5055 37.466 41.0483 38.2783 40.9467C39.0906 40.8578 39.8521 41.1372 40.5756 41.7976C41.3371 42.4962 41.7179 43.2582 41.7306 44.0964C41.7306 44.9347 41.3625 45.7729 40.601 46.5984L39.6871 47.6145L41.4006 49.1894L39.6618 51.0944L33.2649 45.2395L35.9176 42.3311H35.9303ZM39.0652 45.3665C39.3318 45.0744 39.446 44.795 39.446 44.4902C39.4333 44.198 39.2937 43.9186 39.0018 43.6519C38.7225 43.3979 38.4306 43.2709 38.1514 43.2963C37.8595 43.3217 37.5803 43.4741 37.3264 43.7535L36.4887 44.668L38.2402 46.2682L39.0779 45.3538L39.0652 45.3665ZM45.0559 40.6038C45.3732 40.9721 45.7286 41.188 46.1347 41.2388C46.5409 41.2896 46.9089 41.1753 47.2262 40.9086C47.5435 40.6419 47.7085 40.3117 47.7212 39.918C47.7339 39.5243 47.5816 39.1305 47.2643 38.7495L44.0151 34.8378L45.9951 33.1867L49.2443 37.0985C49.7266 37.6827 50.0312 38.2923 50.1327 38.94C50.247 39.5878 50.1708 40.2101 49.9043 40.8451C49.6377 41.4674 49.1935 42.039 48.5843 42.547C47.9624 43.0677 47.3151 43.3979 46.6551 43.5503C45.9824 43.7027 45.3478 43.6646 44.7259 43.4487C44.104 43.2328 43.5582 42.8264 43.0759 42.2422L39.8268 38.3304L41.8067 36.6793L45.0559 40.5911V40.6038ZM47.7085 31.8785L53.5723 27.8906L54.6892 29.5289L50.9577 32.069L51.7192 33.1994L55.108 30.9006L56.2249 32.539L52.8361 34.8378L53.6104 35.9681L57.4434 33.3518L58.5603 34.9902L52.595 39.0543L47.7212 31.8785H47.7085ZM64.0686 31.9039L61.911 30.4434L60.7306 31.1165L61.8983 33.1486L59.6645 34.4313L55.3492 26.8999L58.8649 24.8932C59.8676 24.309 60.7941 24.0931 61.6064 24.2455C62.4314 24.3979 63.0787 24.8932 63.5736 25.7442C63.8909 26.2903 64.0559 26.8364 64.0686 27.3698C64.0813 27.9033 63.9544 28.3986 63.6752 28.8685L66.6071 30.4561L64.0686 31.9039V31.9039ZM59.7406 29.4019L61.0225 28.6653C61.3525 28.4748 61.5683 28.2335 61.6444 27.9541C61.7206 27.6747 61.6698 27.3571 61.4795 27.0269C61.2891 26.6967 61.0606 26.4935 60.7687 26.43C60.4895 26.3538 60.1722 26.4173 59.8422 26.6078L58.5603 27.3444L59.7406 29.4019V29.4019ZM63.4213 22.569L70.3766 19.4574L71.2143 21.3371L68.917 22.3658L71.6204 28.4113L69.2597 29.4654L66.5563 23.42L64.259 24.4487L63.4213 22.569V22.569ZM75.6565 17.5269C76.5069 17.2602 77.3319 17.1967 78.1315 17.3491C78.9311 17.5015 79.6418 17.8444 80.2257 18.3652C80.8222 18.8859 81.241 19.559 81.5076 20.3718C81.7614 21.1847 81.8122 21.9848 81.6218 22.7722C81.4441 23.547 81.0633 24.2328 80.4922 24.8297C79.9211 25.4267 79.2103 25.8585 78.3599 26.1252C77.5096 26.3919 76.6719 26.4554 75.8723 26.303C75.0727 26.1506 74.3746 25.8077 73.7781 25.2743C73.1816 24.7408 72.75 24.0677 72.4962 23.2422C72.2423 22.4293 72.2043 21.6419 72.382 20.8672C72.5596 20.0924 72.9404 19.4193 73.5116 18.8224C74.0827 18.2382 74.7935 17.8063 75.6438 17.5269H75.6565ZM76.3419 19.559C75.9865 19.6733 75.6819 19.8765 75.4281 20.1686C75.1742 20.4608 75.0219 20.8164 74.9458 21.2101C74.8696 21.6165 74.895 22.0229 75.0346 22.442C75.1615 22.8612 75.3773 23.2168 75.6692 23.4962C75.9611 23.7883 76.3038 23.9788 76.6719 24.0804C77.04 24.182 77.408 24.182 77.7761 24.055C78.1315 23.9407 78.4234 23.7375 78.6645 23.4454C78.9057 23.1533 79.058 22.7976 79.1215 22.4039C79.1849 22.0102 79.1468 21.5911 79.0199 21.172C78.893 20.7529 78.6772 20.3972 78.398 20.1178C78.1188 19.8257 77.7888 19.6352 77.4334 19.5336C77.078 19.432 76.71 19.4447 76.3546 19.559H76.3419ZM88.2598 14.3137C89.3513 14.0724 90.2651 14.1486 90.9759 14.5296C91.6866 14.9233 92.1562 15.5964 92.372 16.549C92.6005 17.5523 92.4735 18.4033 91.9912 19.0891C91.5089 19.7749 90.7347 20.2448 89.6305 20.4862L88.3105 20.791L88.8182 23.0644L86.3052 23.6232L84.4267 15.1519L88.2725 14.301L88.2598 14.3137ZM89.0847 18.5938C89.4655 18.5049 89.732 18.3398 89.897 18.0985C90.062 17.8571 90.1001 17.5396 90.0113 17.1586C89.9351 16.7903 89.7574 16.5236 89.5163 16.3712C89.2624 16.2188 88.9578 16.1807 88.5771 16.2696L87.3713 16.5363L87.8917 18.8605L89.0974 18.5938H89.0847ZM100.178 21.2228L99.4923 19.9146L96.0273 20.3845L95.6973 21.8324L93.0701 22.188L95.5577 13.0944L98.185 12.7388L102.894 20.8545L100.178 21.2228V21.2228ZM96.4715 18.4287L98.553 18.1493L97.1442 15.4821L96.4715 18.4287ZM108.618 20.7275L107.425 18.4033L106.067 18.4287L106.105 20.7656L103.528 20.8164L103.363 12.1419L107.412 12.0657C108.58 12.0403 109.481 12.2943 110.128 12.815C110.776 13.3358 111.106 14.0978 111.131 15.0757C111.144 15.7108 111.029 16.2696 110.788 16.7395C110.547 17.2094 110.192 17.5904 109.722 17.8698L111.537 20.6767L108.618 20.7275V20.7275ZM106.029 16.4601L107.501 16.4347C107.894 16.422 108.186 16.3204 108.389 16.1045C108.592 15.8886 108.694 15.5964 108.694 15.2027C108.681 14.8217 108.58 14.5296 108.364 14.3391C108.148 14.1359 107.844 14.047 107.463 14.047L105.991 14.0724L106.029 16.4474V16.4601ZM118.848 20.9307L118.416 19.5209L114.926 19.3304L114.329 20.6894L111.689 20.537L115.865 12.0784L118.505 12.2308L121.589 21.0958L118.848 20.9434V20.9307ZM115.738 17.4888L117.832 17.6031L116.957 14.7201L115.738 17.4888V17.4888ZM123.061 12.5737L125.625 12.8277L124.762 21.4641L122.198 21.2101L123.049 12.5737H123.061ZM133.418 16.93C133.012 16.5744 132.555 16.2569 132.047 15.9775C131.54 15.6854 131.108 15.5202 130.766 15.4567C130.55 15.4186 130.372 15.4313 130.22 15.4948C130.08 15.5583 129.991 15.6727 129.966 15.8378C129.928 16.0664 130.017 16.2696 130.233 16.4347C130.448 16.5998 130.816 16.8157 131.311 17.057C131.882 17.3364 132.339 17.6031 132.707 17.8444C133.063 18.0858 133.355 18.416 133.583 18.8224C133.812 19.2288 133.862 19.7241 133.761 20.3083C133.647 20.9053 133.406 21.3752 133.012 21.7308C132.619 22.0864 132.149 22.315 131.578 22.4166C131.007 22.5182 130.397 22.5182 129.738 22.3912C129.001 22.2515 128.303 21.9975 127.605 21.6165C126.92 21.2355 126.349 20.7783 125.892 20.2448L127.186 18.4922C127.554 18.9494 128.011 19.3558 128.595 19.7241C129.166 20.0924 129.674 20.321 130.131 20.3972C130.41 20.4481 130.626 20.4354 130.804 20.3591C130.981 20.2829 131.083 20.1432 131.121 19.9527C131.159 19.7114 131.07 19.5082 130.842 19.3431C130.613 19.1653 130.245 18.9621 129.75 18.7335C129.192 18.4668 128.722 18.2255 128.367 17.9841C128.011 17.7428 127.719 17.4253 127.504 17.0316C127.288 16.6252 127.224 16.1426 127.326 15.5837C127.428 15.0376 127.656 14.5804 128.024 14.2248C128.392 13.8692 128.862 13.6279 129.433 13.5009C130.004 13.3739 130.639 13.3866 131.349 13.5136C131.997 13.6279 132.606 13.8438 133.215 14.1359C133.812 14.4407 134.319 14.7836 134.738 15.1646L133.444 16.9427L133.418 16.93ZM140.526 15.5456C141.389 15.7743 142.112 16.168 142.722 16.7141C143.318 17.2729 143.737 17.9333 143.953 18.6954C144.181 19.4574 144.181 20.2448 143.965 21.0704C143.75 21.8959 143.356 22.5944 142.785 23.166C142.214 23.7248 141.528 24.1058 140.742 24.309C139.942 24.5122 139.117 24.4868 138.254 24.2709C137.378 24.0423 136.655 23.6486 136.058 23.0898C135.462 22.5309 135.055 21.8578 134.84 21.0958C134.624 20.321 134.611 19.5209 134.827 18.6954C135.043 17.8698 135.436 17.184 135.995 16.6252C136.566 16.0664 137.239 15.6981 138.038 15.4948C138.825 15.3043 139.663 15.317 140.526 15.5456V15.5456ZM140.018 17.6285C139.65 17.5269 139.282 17.5396 138.914 17.6666C138.546 17.7809 138.229 17.9968 137.949 18.289C137.67 18.5811 137.48 18.9494 137.365 19.3685C137.251 19.7876 137.251 20.2067 137.34 20.6005C137.442 21.0069 137.619 21.3498 137.873 21.6292C138.14 21.9213 138.444 22.1118 138.812 22.2007C139.168 22.2896 139.536 22.2769 139.891 22.1499C140.247 22.0229 140.564 21.8197 140.83 21.5149C141.097 21.2101 141.287 20.8418 141.402 20.4227C141.516 20.0035 141.528 19.5971 141.44 19.2034C141.351 18.8097 141.186 18.4795 140.932 18.2001C140.678 17.9206 140.373 17.7301 140.005 17.6412L140.018 17.6285Z" fill="#FEFEFE"/>
<path d="M178.552 46.0146L179.111 44.6429L176.522 42.2933L175.202 42.9665L173.234 41.1884L181.802 37.2512L183.769 39.0293L180.596 47.8562L178.565 46.0146H178.552ZM178.311 41.3789L179.872 42.7887L181.002 39.9945L178.311 41.3789V41.3789ZM184.251 52.2633L185.343 49.8883L184.48 48.8341L182.665 50.3074L181.04 48.3134L187.767 42.8268L190.318 45.9638C191.054 46.8655 191.409 47.7292 191.397 48.5674C191.384 49.4056 191.003 50.1296 190.242 50.7519C189.747 51.1583 189.239 51.3996 188.719 51.5012C188.198 51.6028 187.691 51.552 187.183 51.3615L186.091 54.5112L184.251 52.2506V52.2633ZM186.015 47.5895L186.942 48.7325C187.183 49.0373 187.449 49.2024 187.754 49.2278C188.046 49.2659 188.338 49.1516 188.643 48.9103C188.934 48.669 189.099 48.4023 189.125 48.1102C189.15 47.8181 189.036 47.526 188.795 47.2211L187.868 46.0781L186.028 47.5768L186.015 47.5895ZM193.58 57.5975L194.786 59.4645L191.828 61.3822C191.295 61.1663 190.749 60.8234 190.191 60.3535C189.633 59.8836 189.188 59.401 188.858 58.8802C188.376 58.1436 188.109 57.3689 188.059 56.556C188.008 55.7432 188.148 54.9812 188.503 54.2699C188.858 53.5587 189.391 52.9745 190.115 52.5046C190.826 52.0473 191.587 51.806 192.387 51.7806C193.186 51.7552 193.948 51.9584 194.671 52.3649C195.395 52.7713 196.004 53.3682 196.499 54.1302C196.854 54.6891 197.121 55.2987 197.273 55.9845C197.425 56.6703 197.464 57.3181 197.362 57.9277L195.09 57.6483C195.166 57.2419 195.179 56.8227 195.103 56.3909C195.027 55.9591 194.887 55.5908 194.684 55.2733C194.456 54.9304 194.176 54.6637 193.821 54.4985C193.466 54.3334 193.085 54.2572 192.679 54.2953C192.272 54.3334 191.892 54.4731 191.524 54.7018C191.156 54.9431 190.864 55.2479 190.661 55.6035C190.458 55.9591 190.369 56.3401 190.381 56.7338C190.394 57.1276 190.508 57.4959 190.737 57.8515C190.94 58.169 191.27 58.4611 191.752 58.7532L193.567 57.5721L193.58 57.5975ZM199.329 59.2358L202.452 65.5988L200.675 66.4752L198.682 62.4237L197.464 63.0206L199.266 66.7038L197.489 67.5801L195.687 63.8969L194.456 64.5066L196.499 68.6723L194.722 69.5487L191.549 63.0714L199.329 59.2486V59.2358ZM205.104 73.9558L205.751 76.2165L197.425 78.6296L196.816 76.5213L200.434 71.6443L195.801 72.9905L195.141 70.7171L203.467 68.304L204.076 70.425L200.446 75.302L205.092 73.9558H205.104ZM206.094 78.0961L207.275 85.6276L205.244 85.9451L204.85 83.4558L198.314 84.4845L197.92 81.9317L204.457 80.903L204.063 78.4264L206.094 78.1088V78.0961ZM207.236 87.4818L207.325 90.0601L198.657 90.3776L198.568 87.7993L207.236 87.4818ZM206.919 98.4932L206.703 100.83L198.073 100.043L198.276 97.8582L203.416 94.6322L198.606 94.1877L198.822 91.8381L207.452 92.6256L207.249 94.8228L202.096 98.036L206.906 98.4805L206.919 98.4932ZM196.321 107.663L197.781 107.485L198.568 104.069L197.337 103.243L197.933 100.665L205.548 106.228L204.952 108.806L195.699 110.33L196.321 107.65V107.663ZM200.243 105.199L199.761 107.244L202.756 106.876L200.243 105.199V105.199Z" fill="#FEFEFE"/>
<path d="M48.4831 142.437L49.6889 143.377L44.7643 149.702L43.5586 148.762L48.4831 142.437ZM49.9554 143.643L55.4511 147.187L54.7149 148.33L52.6207 146.971L49.0162 152.559L47.7216 151.721L51.3262 146.133L49.232 144.774L49.9681 143.631L49.9554 143.643ZM56.4664 157.042L56.6949 155.214L53.3061 153.258L51.8465 154.375L50.4631 153.588L57.4945 148.381L58.8779 149.168L57.9007 157.843L56.4664 157.017V157.042ZM54.4357 152.394L56.8726 153.791L57.3422 150.171L54.4357 152.381V152.394ZM59.7537 146.907L60.7056 148.127L58.8526 148.419L57.9007 147.746L59.7537 146.907ZM64.729 152.178L66.1124 152.826L62.7236 160.091L61.3275 159.443L64.7163 152.178H64.729ZM70.91 154.883C71.697 155.214 72.2554 155.645 72.56 156.166C72.8773 156.687 72.9154 157.233 72.6742 157.805C72.5092 158.211 72.2427 158.516 71.8873 158.706C71.532 158.897 71.1385 158.96 70.6943 158.897C71.1512 159.189 71.4431 159.57 71.5827 160.014C71.7223 160.459 71.6843 160.929 71.4812 161.424C71.2147 162.059 70.7577 162.453 70.1231 162.605C69.4758 162.758 68.7397 162.669 67.8893 162.313L64.5132 160.891L67.6101 153.499L70.8974 154.871L70.91 154.883ZM69.5647 157.868C69.9328 158.02 70.2501 158.059 70.5293 157.982C70.8085 157.906 70.9989 157.728 71.1258 157.436C71.24 157.157 71.2273 156.89 71.0877 156.649C70.9481 156.407 70.6943 156.217 70.3262 156.065L68.5366 155.315L67.7878 157.106L69.5774 157.855L69.5647 157.868ZM68.2447 161.018C68.6889 161.208 69.0824 161.272 69.4124 161.208C69.7424 161.145 69.9708 160.942 70.0977 160.624C70.2247 160.319 70.1993 160.027 70.0216 159.748C69.8439 159.468 69.5266 159.24 69.0697 159.062L67.2801 158.313L66.4551 160.268L68.2447 161.018V161.018ZM77.713 165.704L77.5607 163.875L73.8419 162.669L72.6489 164.066L71.1385 163.571L76.9642 157.042L78.4745 157.538L79.2868 166.238L77.7257 165.73L77.713 165.704ZM74.7684 161.577L77.4465 162.453L77.1546 158.821L74.7684 161.577ZM80.4037 158.224L86.7625 159.71L86.4579 161.03L84.0337 160.459L82.5233 166.936L81.0129 166.581L82.5233 160.103L80.0991 159.532L80.4037 158.211V158.224ZM87.4351 159.9L93.21 160.954L92.9689 162.275L88.7043 161.5L88.349 163.444L92.182 164.142L91.9408 165.463L88.1078 164.764L87.7524 166.746L92.1566 167.546L91.9154 168.867L86.0009 167.787L87.4351 159.9ZM91.2808 158.16L92.5881 158.986L90.9382 159.887L89.8213 159.57L91.2935 158.16H91.2808ZM99.1372 165.768L101.993 166.073L101.891 167.101L99.0357 166.796L99.1372 165.768ZM112.667 162.44L109.634 167.774L109.57 170.391L108.034 170.353L108.085 167.787L105.217 162.275L106.778 162.313L108.885 166.123L111.119 162.402L112.667 162.44V162.44ZM118.823 170.276L118.074 168.6L114.165 168.689L113.492 170.403L111.905 170.442L115.244 162.351L116.83 162.313L120.473 170.251L118.823 170.289V170.276ZM114.685 167.355L117.503 167.292L116.03 163.952L114.685 167.355ZM120.612 162.085L122.135 161.919L122.491 165.323L126.463 164.904L126.108 161.5L127.631 161.335L128.456 169.311L126.933 169.464L126.603 166.225L122.63 166.644L122.96 169.883L121.437 170.035L120.612 162.059V162.085ZM136.249 167.927L135.234 166.403L131.388 167.139L131.007 168.943L129.446 169.248L131.375 160.713L132.936 160.408L137.861 167.622L136.249 167.94V167.927ZM131.68 165.742L134.447 165.209L132.441 162.173L131.68 165.755V165.742ZM139.879 158.871C140.856 158.605 141.668 158.63 142.328 158.948C142.988 159.265 143.433 159.849 143.674 160.688C143.915 161.577 143.839 162.326 143.433 162.961C143.039 163.596 142.354 164.053 141.377 164.32L139.688 164.79L140.31 167.063L138.825 167.47L136.706 159.735L139.879 158.859V158.871ZM140.945 163.05C141.503 162.897 141.897 162.656 142.125 162.326C142.354 161.996 142.405 161.602 142.278 161.119C142.151 160.649 141.897 160.332 141.542 160.18C141.173 160.027 140.717 160.027 140.158 160.18L138.546 160.624L139.333 163.482L140.945 163.037V163.05ZM143.813 157.792L149.398 155.988L149.804 157.258L145.679 158.592L146.288 160.472L149.994 159.278L150.401 160.548L146.695 161.742L147.316 163.659L151.581 162.288L151.987 163.558L146.276 165.412L143.813 157.779V157.792ZM146.377 154.439L147.913 154.553L146.885 156.128L145.755 156.369L146.377 154.439V154.439ZM156.67 157.398L159.272 156.179L159.704 157.119L157.102 158.338L156.67 157.398ZM163.461 149.6L164.793 148.825L168.804 155.76L167.471 156.534L163.461 149.6ZM165.466 148.546L170.974 145.028L171.711 146.171L169.604 147.517L173.183 153.118L171.876 153.956L168.296 148.355L166.19 149.702L165.453 148.559L165.466 148.546ZM180.354 148.177L178.793 147.2L175.594 149.46L175.988 151.251L174.693 152.165L172.929 143.593L174.224 142.678L181.687 147.212L180.341 148.165L180.354 148.177ZM175.29 148.076L177.587 146.45L174.503 144.507L175.29 148.076ZM175.861 141.497L180.836 137.255L181.725 138.296L179.821 139.922L184.136 144.99L182.956 145.993L178.64 140.925L176.737 142.551L175.848 141.51L175.861 141.497ZM181.28 136.747L182.397 135.693L187.906 141.51L186.789 142.564L181.28 136.747Z" fill="#FEFEFE"/>
</svg>
