<?xml version="1.0" encoding="UTF-8"?>
<!DOCTYPE svg PUBLIC "-//W3C//DTD SVG 1.1//EN" "http://www.w3.org/Graphics/SVG/1.1/DTD/svg11.dtd">
<!-- Creator: CorelDRAW 2020 (64-Bit Versión de evaluación) -->
<svg xmlns="http://www.w3.org/2000/svg" xml:space="preserve" width="80.6278mm" height="65.8125mm" version="1.1" style="shape-rendering:geometricPrecision; text-rendering:geometricPrecision; image-rendering:optimizeQuality; fill-rule:evenodd; clip-rule:evenodd"
viewBox="0 0 175.7 143.41"
 xmlns:xlink="http://www.w3.org/1999/xlink"
 xmlns:xodm="http://www.corel.com/coreldraw/odm/2003">
 <defs>
  <style type="text/css">
   <![CDATA[
    .fil3 {fill:#FFF212}
    .fil2 {fill:#ED3237}
    .fil4 {fill:#303C30}
    .fil1 {fill:#0E9B53}
    .fil5 {fill:#FEFEFE;fill-rule:nonzero}
    .fil0 {fill:#17B255;fill-opacity:0.501961}
   ]]>
  </style>
 </defs>
 <g id="Capa_x0020_1">
  <metadata id="CorelCorpID_0Corel-Layer"/>
  <path class="fil0" d="M87.85 0c48.52,0 87.85,32.1 87.85,71.71 0,39.6 -39.33,71.71 -87.85,71.71 -48.52,0 -87.85,-32.1 -87.85,-71.71 0,-39.6 39.33,-71.71 87.85,-71.71z"/>
  <path class="fil1" d="M87.85 2.75c46.66,0 84.48,30.87 84.48,68.96 0,38.08 -37.82,68.96 -84.48,68.96 -46.66,0 -84.48,-30.87 -84.48,-68.96 0,-38.08 37.82,-68.96 84.48,-68.96z"/>
  <path class="fil2" d="M87.85 22.76c34.35,0 62.19,21.91 62.19,48.95 0,27.03 -27.84,48.95 -62.19,48.95 -34.35,0 -62.19,-21.91 -62.19,-48.95 0,-27.03 27.84,-48.95 62.19,-48.95z"/>
  <path class="fil3" d="M33.53 82.8c-0.2,0.38 -0.55,0.65 -1.07,0.65 -0.2,0 -0.48,-0.02 -0.72,-0.08 -0.23,0.17 -0.53,0.25 -0.83,0.25 -1.3,-0.02 -3.48,0.95 -4.57,1.59 -0.73,0.43 -1.48,1.16 -1.21,2.08 0.13,0.46 0.49,0.83 0.91,1.05 5.52,2.81 12.21,4.32 18.38,4.12 4.95,-0.16 10.81,-0.81 15.37,-2.95 0.91,-0.42 2.13,-0.8 3.13,-0.93 1.98,-0.26 4.13,-0.78 6.05,-1.28 3.54,-0.92 7.12,-1.76 10.68,-2.6l0.29 -0.07 0.92 0.96 2.91 2.16c0.04,-0.6 0.17,-1.22 0.34,-1.72 0.25,-0.75 0.51,-1.67 0.61,-2.47l0.04 -0.37 0.36 -0.08c0.31,-0.07 0.64,-0.17 0.95,-0.26 1.45,-0.41 2.89,-0.85 4.34,-1.29 5.09,-1.55 10.15,-3.3 15.19,-4.99l0.18 -0.06 0.18 0.07c0.85,0.34 1.89,0.63 2.76,0.9 1.56,0.49 3.49,0.79 5.22,0.96 -0.27,-0.59 -0.5,-1.23 -0.63,-1.77 -0.2,-0.84 -0.05,-1.95 0.25,-2.76l0.07 -0.2 0.63 -0.29 0.1 -0c0.4,-0.01 2.2,0.5 2.59,0.6 1.77,0.44 3.58,0.8 5.38,1.15 -0.19,-0.72 -0.56,-1.58 -0.84,-2.27l-0.31 -0.74 1.88 0.07 0.15 0.18c0.72,0.9 1.46,1.78 2.19,2.67 1.21,1.47 2.49,3.82 2.84,5.72l0.15 0.83 -0.81 -0.24c-0.86,-0.26 -1.98,-0.39 -2.87,-0.49 -2.88,-0.31 -5.87,-0.25 -8.75,-0.01 -4.37,0.36 -9.72,1.61 -13.99,3.28 0.15,0.08 0.28,0.15 0.35,0.19 1.06,0.58 1.97,1.47 2.76,2.39 0.34,0.4 1.38,0.57 1.89,0.63 1.4,0.16 2.09,2.15 2.65,3.25 0.17,0.34 0.76,1.56 1.1,1.76 0.14,0.08 0.36,0.14 0.51,0.2 0.72,0.27 1.23,-0.03 1.26,1.1 0.02,0.62 -0.05,1.11 0.64,1.37 1.17,0.44 1.26,1.07 1.94,1.96 0.69,0.91 0.99,1.96 0.76,3.09 -0.03,0.14 -0.07,0.26 -0.11,0.39 0.34,-0 0.67,0.11 0.85,0.43 0.12,0.22 0.1,0.35 0.1,0.5 1.2,-0.08 1.44,0.6 1.48,1.66 0.01,0.28 0.99,0.57 1.25,1.12 0.33,0.7 0.37,1.26 0.32,2.03 -0.05,0.75 0.08,0.84 0.53,1.44 0.62,0.85 0.51,0.7 0.39,1.58 -0.08,0.55 0.01,0.6 0.39,1.05 0.68,0.81 0.67,0.83 0.66,1.89 -0,0.09 -0,0.34 0.02,0.5 0,0 0.01,0 0.01,0 0.82,0.15 0.71,0.73 0.79,1.45 0.06,0.52 0.02,1.12 -0.06,1.69 0.47,-0.23 0.95,-0.44 1.38,-0.64 3.51,-1.63 7.53,-7.06 9.48,-10.22 2.11,-3.4 4.31,-8.38 5.03,-12.39l0.03 -0.14 3.52 -4.01 2.08 3.14c0.29,-1.07 0.49,-2.42 0.61,-3.25 0.28,-1.95 -0.17,-4.52 -0.93,-6.36l-0.09 -0.22 0.11 -0.21c0.19,-0.37 0.4,-0.74 0.61,-1.1 0.58,-1.06 0.56,-5.31 0.49,-6.51 -0.25,-4.58 -1.41,-9.16 -3.33,-13.32 -1.97,-4.27 -4.96,-8.02 -8.5,-11.09 -1.48,-1.28 -3.38,-2.75 -5.11,-3.68l-0.45 -0.24 0.24 -0.45c0.39,-0.75 1.36,-1.14 2.16,-1.17 0.48,-0.02 0.95,-0.03 1.43,-0.04 -1.98,-2.63 -4.07,-6.23 -4.83,-9.24 -0.87,-3.45 -0.45,-8.64 0.75,-11.98 0.07,-0.2 0.48,-1.46 0.31,-1.65 -1.06,-0.12 -8.89,3.24 -9.99,3.72 -1.89,0.81 -3.72,1.87 -5.45,2.97 -3.39,2.15 -6.89,4.77 -9.93,7.41l-0.19 0.16 -0.24 -0.04c-6.87,-1.24 -14.89,-0.58 -21.72,0.64 -19.11,3.41 -30.87,10.87 -44.44,24.44 -3.23,3.23 -6.25,6.56 -8.65,10.46 -0.85,1.39 -0.64,1.99 -2.15,3.13 -1.28,0.97 -0.82,2.53 -0.38,3.83 0.49,1.44 1.91,0.95 3.05,0.69 0.35,-0.08 1.02,-0.22 1.57,-0.17 0.19,-0.21 0.47,-0.36 0.71,-0.46 0.46,-0.18 1.03,-0.2 1.54,-0.09 0.45,-0.34 1.21,-0.54 1.59,-0.63 0.45,-0.11 1.09,-0.22 1.51,0.08 0.7,-0.45 1.58,-0.9 2.29,-1.02 0.54,-0.09 1.07,0.05 1.38,0.4 0.54,-0.33 1.17,-0.57 1.74,-0.61 0.47,-0.04 0.97,0.09 1.3,0.39 0.37,-0.19 0.83,-0.26 1.21,-0.24 0.61,0.03 1.44,0.15 2.01,0.38l0.92 0.36 -0.81 0.54c-0.72,0.49 -1.44,0.99 -2.18,1.46 -0.32,0.2 -0.67,0.3 -1.03,0.31l0.22 0.38 -0.46 0.25c-1.02,0.54 -2.05,1.07 -3.08,1.59 -0.88,0.44 -2.13,1.13 -3.05,1.42 -0.41,0.13 -0.82,0.11 -1.16,-0.04z"/>
  <path class="fil4" d="M62.97 89.09c0,0 -1.52,0.21 -2.98,0.89 -1.45,0.68 -5.93,2.68 -15.57,2.99 -9.64,0.32 -17.19,-3.45 -18.63,-4.18 -1.43,-0.73 -1.99,-2.72 0.27,-4.04 2.26,-1.31 4.2,-1.66 4.84,-1.66 0.63,0.01 0.68,-0.43 0.68,-0.43 0,0 0.01,0.26 0.87,0.26 0.86,0 0.77,-1.2 0.77,-1.2 0,0 0.29,0.94 1.31,0.62 1.03,-0.32 6.04,-2.98 6.04,-2.98l-0.62 -1.1c0,0 0.91,0.79 1.87,0.18 0.96,-0.61 2.17,-1.45 2.17,-1.45 0,0 -0.76,-0.29 -1.85,-0.35 -1.08,-0.05 -1.32,0.55 -1.32,0.55 0,0 -0.07,-0.78 -1.13,-0.7 -1.06,0.08 -2.03,0.91 -2.03,0.91 0,0 0.04,-0.89 -1.05,-0.71 -1.09,0.18 -2.57,1.27 -2.57,1.27 0,0 0.23,-0.67 -1.2,-0.33 -1.43,0.34 -1.56,0.7 -1.56,0.7 0,0 -0.81,-0.28 -1.5,-0.01 -0.69,0.27 -0.62,0.58 -0.62,0.58 0,0 -0.28,-0.26 -1.73,0.07 -1.46,0.33 -3.05,0.75 -3.65,-1.03 -0.61,-1.78 -0.86,-3.34 0.55,-4.41 1.41,-1.07 1.24,-1.71 2.02,-2.99 0.78,-1.27 2.72,-4.56 8.72,-10.56 13.69,-13.68 25.5,-21.15 44.71,-24.58 7.85,-1.4 15.73,-1.76 21.91,-0.64 0,0 8.69,-7.53 15.51,-10.46 6.83,-2.94 9.83,-3.92 10.33,-3.74 0.5,0.18 0.55,0.9 0.04,2.32 -0.51,1.42 -1.91,7.01 -0.73,11.68 1.18,4.67 5.38,9.87 5.38,9.87 0,0 -1.19,0 -2.46,0.05 -1.27,0.04 -1.72,0.89 -1.72,0.89 0,0 9.2,4.94 13.84,15 4.64,10.06 3.42,19.2 2.82,20.29 -0.6,1.1 -0.6,1.1 -0.6,1.1 0,0 1.43,3.42 0.96,6.63 -0.47,3.21 -0.97,4.34 -0.97,4.34l-2.28 -3.45 -2.98 3.4c0,0 -1.1,6.12 -5.1,12.57 -4,6.45 -7.82,9.54 -9.71,10.42 -1.89,0.88 -2.31,1.13 -2.31,1.13 0,0 0.37,-1.49 0.25,-2.6 -0.12,-1.11 -0.07,-0.94 -0.37,-0.99 -0.3,-0.05 -0.46,-0.03 -0.45,-1.01 0.01,-0.99 0.03,-0.88 -0.53,-1.56 -0.57,-0.67 -0.59,-0.84 -0.51,-1.45 0.08,-0.61 0.28,-0.43 -0.29,-1.21 -0.57,-0.78 -0.68,-0.94 -0.63,-1.78 0.06,-0.84 -0.02,-1.26 -0.27,-1.77 -0.25,-0.52 -1.28,-0.59 -1.3,-1.33 -0.02,-0.74 -0.04,-1.24 -1,-1.15 -0.96,0.09 0.02,-0.96 -0.94,-0.93 -0.96,0.03 -0.55,-0.06 -0.36,-1.01 0.19,-0.94 -0.03,-1.84 -0.67,-2.68 -0.63,-0.83 -0.71,-1.41 -1.71,-1.79 -1,-0.38 -0.95,-1.15 -0.97,-1.84 -0.02,-0.69 -0.12,-0.33 -0.93,-0.63 -0.81,-0.3 -0.85,-0.17 -1.89,-2.21 -1.04,-2.04 -1.35,-2.87 -2.25,-2.98 -0.9,-0.1 -1.82,-0.34 -2.22,-0.81 -0.4,-0.47 -1.4,-1.6 -2.62,-2.27 -1.22,-0.67 -1.37,-0.68 -1.37,-0.68 0,0 7.33,-3.11 15.22,-3.75 7.9,-0.64 11.81,0.52 11.81,0.52 0,0 -0.54,-2.82 -2.73,-5.49 -2.2,-2.67 -2.2,-2.67 -2.2,-2.67l-0.84 -0.03c0,0 0.72,1.74 0.89,2.43 0.17,0.69 0.14,0.69 0.14,0.69 0,0 -3.81,-0.71 -6.17,-1.3 -2.36,-0.59 -2.45,-0.58 -2.45,-0.58l-0.34 0.16c0,0 -0.5,1.35 -0.24,2.46 0.27,1.12 1.01,2.48 1.01,2.48 0,0 -3.77,-0.28 -6.25,-1.07 -2.48,-0.78 -2.8,-0.92 -2.8,-0.92 0,0 -10.59,3.59 -15.2,5 -4.61,1.41 -5.32,1.56 -5.32,1.56 0,0 -0.14,1.13 -0.63,2.58 -0.49,1.45 -0.27,2.61 -0.27,2.61l-3.81 -2.83 -0.74 -0.78c0,0 -6.89,1.62 -10.67,2.59 -3.78,0.98 -6.12,1.29 -6.12,1.29zm43.78 -55.01c0,0 3.4,-5.23 10.22,-8.44 6.82,-3.21 8.08,-3.42 8.74,-3.67 0.67,-0.25 0.84,0.03 0.67,0.6 -0.02,0.07 -0.07,0.21 -0.12,0.41 -0.88,0.26 -2.8,0.92 -6.69,2.59 -6.08,2.61 -11.69,8.46 -11.69,8.46 0,0 4.06,-3.5 9.04,-6.14 3.93,-2.09 7.6,-3.11 8.98,-3.44 -0.14,0.65 -0.28,1.44 -0.38,2.35 -0.74,0.11 -2.4,0.49 -5.98,1.72 -5.89,2.02 -10.42,6.25 -10.42,6.25 0,0 3.71,-2.91 10.01,-5.15 3.9,-1.38 5.57,-1.58 6.27,-1.54 -0.04,0.55 -0.06,1.13 -0.05,1.73 -0.88,0.09 -3.08,0.42 -6.27,1.71 -4.19,1.7 -7.45,4.74 -7.45,4.74 7,-4.19 12.17,-5.14 13.75,-5.34 0.02,0.48 0.06,0.98 0.12,1.48 -0.82,0.1 -2.76,0.44 -5.78,1.52 -3.17,1.13 -5.65,3.01 -6.63,3.82 -3.42,-1.09 -5.51,-2.12 -6.33,-3.67zm18.86 -0.73l0.02 0.13c0.04,0.26 0.09,0.52 0.15,0.78 -3.53,0.85 -7.08,2.03 -9.89,4.39 -0.44,-0.17 -0.86,-0.32 -1.26,-0.43l-0.34 -0.1c0.76,-0.58 2.45,-1.69 5.55,-3 3.29,-1.39 5.06,-1.7 5.78,-1.77zm0.36 1.73c0.1,0.38 0.21,0.75 0.32,1.11 -0.47,0.15 -1.35,0.44 -2.95,0.94 -1.98,0.62 -3.86,1.98 -4.79,2.72 -0.89,-0.44 -1.78,-0.85 -2.61,-1.17 0.43,-0.26 1.38,-0.77 3.29,-1.6 2.38,-1.05 5.59,-1.76 6.74,-1.99zm0.74 2.27c0.17,0.43 0.34,0.83 0.52,1.23 -0.5,0.03 -1.29,0.15 -2.4,0.5 -1.6,0.51 -3.13,1.57 -3.8,2.08 -0.38,-0.21 -0.77,-0.43 -1.17,-0.64 0.54,-0.45 1.44,-1.1 2.64,-1.66 1.52,-0.7 3.37,-1.26 4.21,-1.51zm0.99 2.2c0.1,0.2 0.21,0.4 0.31,0.59 -1.49,0.22 -3.87,1.26 -4.96,2.18 -0.29,-0.17 -0.6,-0.35 -0.91,-0.54 0.44,-0.41 1.26,-1.09 2.29,-1.52 1.11,-0.46 2.55,-0.65 3.27,-0.72zm0.81 1.46c0.17,0.28 0.34,0.55 0.49,0.79 -0.53,0 -1.31,0.07 -2.29,0.35 -1.12,0.32 -1.79,0.77 -2.16,1.1 -0.19,-0.12 -0.4,-0.25 -0.61,-0.38 1.19,-1.05 2.97,-1.79 4.57,-1.85zm1.14 1.74c0.35,0.49 0.57,0.75 0.57,0.75 0,0 -2.05,-0 -3.11,0.35 -1.06,0.35 -1.06,0.35 -1.06,0.35 0,0 -0.2,-0.13 -0.55,-0.36 0.4,-0.25 1.02,-0.59 1.79,-0.81 0.82,-0.24 1.75,-0.28 2.36,-0.28zm-42.52 28.68l-0.8 -1.75c0,0 3.57,-4.28 11.62,-7.59 8.05,-3.32 13.43,-3.74 15.49,-3.73 2.06,0.01 4.55,0.51 4.55,0.51 0,0 -5.11,2.43 -10.53,6.86 -5.42,4.42 -8.92,10.76 -8.92,10.76 0,0 -3.37,0.32 -6.23,-0.29 -2.86,-0.61 -4.03,-1.06 -4.03,-1.06 0,0 3.66,-0.08 6.53,-0.1 2.87,-0.02 3.53,-0.09 3.53,-0.09 0,0 0.16,-0.26 0.46,-0.71 -0.46,-0.02 -1.21,-0.04 -2.34,-0.04 -2.21,-0.02 -4.79,-0.41 -4.79,-0.41 0,0 1.27,-0.21 3.61,-0.23 1.68,-0.02 3.24,-0.01 3.99,-0 0.2,-0.28 0.42,-0.6 0.67,-0.95 -0.84,-0.2 -2.71,-0.57 -4.73,-0.43 -2.72,0.2 -6.36,1.25 -6.36,1.25 0,0 4.36,-1.89 7.65,-2.14 2.32,-0.17 3.63,0.1 4.21,0.27 0.54,-0.71 1.16,-1.48 1.86,-2.3 -0.85,-0.1 -2.82,-0.17 -5.82,0.66 -4.1,1.13 -7.43,2.23 -7.43,2.23 0,0 5.17,-2.41 9.21,-3.52 2.89,-0.79 4.18,-0.4 4.69,-0.11 0.72,-0.81 1.52,-1.64 2.37,-2.45 -0.99,-0.07 -3.14,0 -6.76,1.19 -5.25,1.72 -10.24,4.28 -10.24,4.28 0,0 6.19,-3.87 11.74,-5.55 3.79,-1.15 5.58,-1.07 6.33,-0.9 0.15,-0.13 0.3,-0.27 0.45,-0.4l2.3 -1.98c-4.81,-0.37 -14.32,3.9 -18.35,5.78 5.94,-3.57 12.58,-6.83 19.65,-6.89l2.19 -1.88c0,0 -17.16,0.29 -25.8,11.72zm48.4 10.89c0,0 -0.09,-2.06 1.54,-2.85 1.63,-0.79 3.27,-0.41 3.65,2.61 0.38,3.02 0.14,3.54 0.14,3.54l3.29 3.69c0,0 -0.05,0.53 -0.15,0.75 -0.1,0.23 -0.2,0.38 -0.2,0.38l-3.29 -4.22c0,0 -0.52,2.97 -1.31,4.31 -0.79,1.35 -1.26,1.97 -1.26,1.97 0,0 -1.79,4.41 -3.9,9.03 -2.12,4.61 -3.17,5.33 -3.17,5.33l2.26 -5.34c0,0 -2.22,3.86 -4.78,7.29 -2.56,3.43 -5.31,5.76 -5.31,5.76l-0.28 -1.11c0,0 0,-0.07 -0.01,-0.16 0.68,-0.43 1.82,-1.28 3.02,-2.75 1.92,-2.35 4.24,-6.43 4.24,-6.43 0,0 -0.67,1.15 -2.59,3.41 -1.47,1.73 -4.03,4.06 -5.16,5.06 -0.24,-0.12 -0.31,-0.24 -0.35,-0.43 0.75,-0.59 2.3,-1.95 4.46,-4.56 3.12,-3.77 7.15,-9.59 7.15,-9.59 0,0 -3.02,4.1 -6.37,7.74 -2.53,2.75 -4.61,4.66 -5.47,5.43 -0.18,-0.35 -0.51,-0.44 -0.59,-0.94 0.65,-0.37 1.9,-1.14 3.2,-2.23 1.89,-1.58 5.56,-5.96 5.56,-5.96 0,0 -0.43,0.37 -3.55,3.31 -2.38,2.24 -4.37,3.53 -5.18,4.02 0.1,-0.74 0.13,-1.05 -0.02,-1.36 0.93,-0.47 2.9,-1.57 5.42,-3.6 3.55,-2.86 7.2,-8.63 7.2,-8.63 0,0 -1.16,1.71 -5.05,5.4 -3.09,2.93 -6.9,5.15 -8.35,5.94 -0.37,-0.36 -0.48,-0.51 -0.36,-1.24 0.01,-0.09 0.02,-0.17 0.03,-0.24 0.7,-0.33 1.9,-0.94 3.52,-1.94 2.72,-1.69 4.78,-3.75 7.37,-6.44 2.59,-2.69 5.31,-7.69 5.31,-7.69 0,0 -0.29,0.5 -1.71,2.41 -1.43,1.91 -4.85,5.99 -8.81,9.07 -2.78,2.16 -4.86,3.2 -5.86,3.62 -0.11,-0.21 -0.26,-0.41 -0.41,-0.65 -0.38,-0.61 0.33,-0.89 1.48,-1.36 1.15,-0.48 8.96,-6.09 11.77,-9.38 2.8,-3.29 4.08,-6.39 4.08,-6.39 0,0 -3.94,3.52 -3.13,2.2 0.82,-1.32 0.31,-0.82 0.31,-0.82 0,0 -1.49,1.24 -2.79,2.1 -1.31,0.85 -0.24,0.01 1.32,-1.91 1.56,-1.91 2.57,-3.23 2.57,-3.23 0,0 -2.79,2.38 -4.56,3.64 -1.77,1.25 -3.27,2.21 -1.05,0.08 2.22,-2.13 2.86,-3.1 2.86,-3.1 0,0 -5.55,4.1 -9.82,6.24 -4.27,2.15 -7.7,3.88 -7.7,3.88 0,0 -0.24,-0.09 -0.74,-0.74l-0.18 -0.24c0.28,-0.28 0.83,-0.7 1.91,-1.33 2.43,-1.42 6.44,-3.26 6.44,-3.26 0,0 -1.94,0.23 -5.05,1.63 -2.16,0.98 -3.21,1.94 -3.65,2.44 -0.11,-0.21 -0.18,-0.44 -0.29,-0.82 -0.05,-0.2 -0.11,-0.35 -0.17,-0.46 0.85,-0.48 2.55,-1.41 4.89,-2.53 3.44,-1.64 10.12,-3.67 10.12,-3.67 0,0 -5.03,1.02 -9.61,2.79 -3.26,1.26 -5.34,2.35 -6.26,2.87l-0.05 -0.02c-0.63,-0.22 -1.23,0.23 -1.81,-1.32 -0.03,-0.09 -0.06,-0.17 -0.1,-0.25 0.78,-0.28 2.64,-0.91 5.03,-1.53 3.2,-0.83 5.49,-1.16 5.49,-1.16 0,0 -0.4,-0.11 -1.82,0.06 -1.42,0.17 0.52,-0.7 4.06,-1.52 3.54,-0.82 4.68,-1 4.68,-1 0,0 -4.89,-0.02 -10.31,1.52 -4.02,1.14 -6.6,2.06 -7.66,2.46 -0.17,-0.31 -0.35,-0.59 -0.54,-0.86 0.75,-0.26 3.89,-1.34 8.46,-2.5 5.26,-1.34 11.91,-2.05 11.91,-2.05 0,0 -10.52,0.5 -15.9,2 -3.52,0.98 -4.72,1.47 -5.13,1.7l-0.08 -0.1c-0.28,-0.35 -0.52,-0.57 -0.75,-0.74 1.02,-0.46 3.81,-1.68 6.2,-2.26 2.98,-0.72 8.6,-1.19 8.6,-1.19 0,0 -6.01,-0.29 -10.22,0.75 -3.19,0.79 -4.99,1.63 -5.68,1.98l-0.02 -0.01c-0.64,-0.5 -1.13,-0.92 -1.13,-0.92 0,0 3.13,-2.01 8.94,-2.49 5.81,-0.48 13.01,0.86 13.01,0.86 -5.63,-2.16 -11.28,-2.36 -17.78,-0.75 0,0 5.67,-3.05 12.25,-2.03 6.57,1.02 7.44,1.38 7.44,1.38 0,0 -0.44,-1.13 -0.23,-1.7 0.21,-0.56 -0.24,-0.36 -0.18,-1.14 0.06,-0.78 -0.03,-0.82 -0.55,-1.15 -0.52,-0.33 -0.59,-0.49 -0.32,-0.85 0.28,-0.36 -0.12,-0.61 -0.41,-0.7 -0.29,-0.09 -0.6,-0.25 -0.37,-0.77 0.23,-0.52 0.16,-0.64 -0.5,-0.82 -0.66,-0.18 -0.81,-0.26 -0.8,-0.57 0.01,-0.31 -0.66,-0.2 -0.45,-0.72 0.21,-0.52 1.87,-0.49 1.96,0.39 0.09,0.88 0.6,0.29 0.77,0.9 0.16,0.61 0.95,0.85 1,1.05 0.05,0.2 0.04,0.12 0.12,0.61 0.08,0.49 0.97,0.73 0.65,1.05 -0.32,0.32 -0.53,0.84 -0.05,1.05 0.48,0.21 0.58,0.1 0.2,0.49 -0.38,0.38 0.3,0.32 0.05,0.92 -0.25,0.6 -0.08,1.4 0.29,1.45 0.37,0.05 0.75,-0.8 0.54,-1.17 -0.22,-0.36 -0.29,-0.22 -0.19,-0.77 0.1,-0.56 -0.1,-1.06 -0.21,-1.29 -0.11,-0.22 0.55,-0.72 -0.06,-1.27 -0.61,-0.55 -0.57,-0.51 -0.64,-0.84 -0.07,-0.33 -0.29,-0.11 -0.49,-0.68 -0.2,-0.57 -0.32,-1.02 -0.32,-1.02 0,0 1.28,0.96 1.86,1.8 0.58,0.84 0.6,0.78 0.68,1.29 0.08,0.51 0.22,0.36 0.3,1 0.08,0.63 0.46,0.76 0.61,0.51 0.16,-0.25 0.26,-0.73 0.82,0.06 0.56,0.78 2.22,2.6 2.22,2.6zm-20.03 14.1c0,0 2.85,-0.73 6.11,-2.53 3.27,-1.79 3.27,-1.82 3.27,-1.82 0,0 -3.26,2.71 -5.84,3.86 -2.58,1.16 -3.71,1.6 -3.54,0.48zm2.8 5.4c0,0 1.98,-0.94 4.17,-2.27 2.19,-1.33 2.99,-1.94 2.99,-1.94 0,0 -1.53,2.06 -3.38,3.36 -1.85,1.3 -2.97,1.8 -3.36,1.69 -0.39,-0.11 -0.65,-0.63 -0.42,-0.83zm-67.83 -23.73c0,0 -4.77,-2.55 -9.19,-2.58 -4.42,-0.03 -8.19,1.11 -10.04,1.53 -1.85,0.42 -5.56,1.75 -6.19,0.99 -0.63,-0.76 -1.19,-2.3 0.14,-3.04 1.33,-0.73 2.36,-1.43 2.48,-2.18 0.13,-0.76 0.76,-1.65 1.56,-2.73 0.81,-1.08 1.76,-1.41 2.06,-1.21 0.31,0.2 0.58,0.22 0.58,0.22 0,0 0.74,-1.17 1.46,-1.34 0.72,-0.17 1.2,-0.04 1.2,-0.04 0,0 -0.42,-2.07 3.45,-4.44 3.87,-2.38 6.84,-1.19 7.37,-0.43 0.53,0.76 -0.01,2.48 -0.01,2.48 0,0 1.48,-1.1 2.06,-1.4 0.59,-0.29 0.56,-1.21 0.54,-1.76 -0.02,-0.55 0.72,-0.57 1.14,-0.27 0.42,0.31 0.47,0.31 0.47,0.31 0,0 -0.16,-0.73 -0.64,-1.26 -0.48,-0.53 -0.44,-2.33 0.64,-2.96 1.08,-0.63 2.23,-0.58 2.83,-0.41 0.6,0.16 0.8,-0.81 0.32,-1.57 -0.48,-0.76 -0.81,-1.91 1.22,-1.84 2.03,0.07 1.58,-0.93 1.14,-1.56 -0.43,-0.63 -0.13,-1.28 1.44,-0.88 1.58,0.41 1.8,0.26 2.1,-0.53 0.3,-0.79 0.56,-1.03 1.6,-1.52 1.04,-0.49 1.39,-0.97 1.83,-0.34 0.43,0.63 -0.25,0.74 2.37,0.75 2.62,0.01 3,0.27 4.64,1.18 1.64,0.91 4.69,2.68 6.36,3.84 1.66,1.15 2.06,1.14 2.53,2.7 0.47,1.56 1.48,5.31 0.63,7.05 -0.85,1.73 -1.53,3.74 -2.84,4.88 -1.31,1.14 -1.72,1.16 -1.72,1.16 0,0 1.47,0.25 2.63,-1.1 1.17,-1.36 2.07,-3.26 2.07,-3.26 0,0 0.54,0.82 0.23,2.64 -0.31,1.82 -1.03,4.16 -2.62,6.26 -1.59,2.1 -4.74,5.48 -6.71,7.01 -1.96,1.53 -2.7,1.99 -2.7,1.99 0,0 5.98,-3.23 8.92,-6.68 2.94,-3.44 3.23,-4.94 3.18,-5.58 -0.06,-0.63 0.5,-0.94 0.72,-1.58 0.23,-0.64 0.47,-2.81 0.19,-4 -0.29,-1.19 -0.62,-1.68 -0.25,-2.15 0.37,-0.47 0.59,-1.43 0.57,-2.14 -0.02,-0.71 -0.03,-0.95 -0.03,-0.95 0,0 2.12,3.18 2.22,6.22 0.1,3.04 -0.49,5.56 -2.31,8.1 -1.82,2.53 -6.09,6.06 -6.09,6.06 0,0 7.46,-5.11 8.76,-7.73 1.31,-2.62 1.98,-7.29 0.28,-10.44 -1.69,-3.15 -3.69,-4.2 -2.8,-4.47 0.89,-0.27 1.2,-0.49 1.03,-0.91 -0.17,-0.42 -0.55,-0.54 -1.06,-0.15 -0.52,0.39 -1.06,0.09 -1.15,-0.41 -0.1,-0.5 -0.63,-1.12 -0.81,-1.37 -0.18,-0.25 -0.08,-0.61 0.82,-0.58 0.9,0.03 0.95,0.03 0.95,0.03 0,0 -0.22,-0.56 -1.4,-1.09 -1.17,-0.53 -1.68,0.09 -2.26,-0.46 -0.59,-0.55 -0,-1.05 0.74,-1.47 0.75,-0.42 1.03,0.14 1.92,0.25 0.89,0.11 1.48,-0.35 1.48,-0.35 0,0 -0.35,0.04 -1.58,-0.42 -1.24,-0.47 -2.76,-0.72 -3.74,-0.49 -0.97,0.22 -1.69,0.53 -2.25,-0.01 -0.56,-0.54 -2.88,-1.62 -1.72,-1.76 1.17,-0.14 2,-1.04 2.74,-0.38 0.74,0.66 1.33,0.58 1.96,-0.18 0.64,-0.76 1.16,-0.8 2.06,-0.81 0.9,-0.01 1.71,0.47 2.7,0.13 0.98,-0.34 1.25,-0.53 1.52,-0.54 0.27,-0.01 -0.39,-1.12 -1.7,-1.23 -1.31,-0.11 -1.53,2.1 -3.47,0.7 -1.94,-1.4 -1.01,1.18 -2.67,0.77 -1.65,-0.41 -1.91,-0.56 -2.22,0.09 -0.31,0.65 -1.4,0.87 -1.69,0.15 -0.3,-0.71 -0.87,-0.95 -1.48,-0.38 -0.61,0.57 -1.15,0.7 -1.4,0.28 -0.25,-0.42 -0.8,-0.46 -1.3,-0.43 -0.51,0.04 -0.69,-0.68 -0.9,-1.12 -0.21,-0.44 -2.16,0.09 -2.63,0.57 -0.47,0.48 -1.2,0.76 -1.86,0.32 -0.66,-0.45 -1.65,-0.3 -1.87,0.14 -0.22,0.44 -1.24,0.9 -0.82,-0.01 0.42,-0.91 2.14,-1.96 2.82,-1.34 0.68,0.62 0.93,0.38 1.02,-0.46 0.09,-0.84 0.43,-1.19 1.24,-0.9 0.81,0.29 1.05,0.04 1.39,-0.42 0.34,-0.46 1.41,-0.55 1.73,-0.35 0.32,0.2 0.65,-0.28 0.65,-0.41 -0,-0.14 -1.22,-0.94 -2,-0.89 -0.78,0.05 -0.62,1.39 -1.94,1.08 -1.32,-0.31 -1.5,0.09 -1.87,0.69 -0.37,0.6 -1,0.95 -1.87,0.78 -0.86,-0.17 -1.09,-0.06 -1.39,0.59 -0.29,0.65 -1.04,1.78 -1.47,1.34 -0.44,-0.44 -1.59,-0.43 -1.78,0.42 -0.19,0.85 -0.61,1.35 -0.94,1.07 -0.33,-0.28 -0.88,-0.2 -1.04,0.22 -0.16,0.43 -0.53,0.7 -1.15,0.58 -0.62,-0.13 -1.19,-0.22 -1.43,0.47 -0.24,0.69 -0.73,1.6 -1.58,1.69 -0.85,0.09 -1.04,-0.11 -1.85,0.84 -0.81,0.95 -1.32,1.33 -2.32,1.55 -0.99,0.22 -1.2,0.63 -1.71,1.46 -0.51,0.83 -1.48,2.03 -1.48,2.03l-3.03 0.31c0,0 6.32,-5.88 8.55,-7.29 2.23,-1.42 2.52,-1.14 3.53,-1.75 1.01,-0.61 0.71,-1.85 2.81,-2.21 2.1,-0.36 2.81,-1.37 3.55,-2.07 0.75,-0.7 1.63,-0.15 2.8,-0.67 1.17,-0.52 1.34,-1.1 2.28,-1.71 0.94,-0.61 2.46,-0.27 3.49,-0.98 1.03,-0.71 0.9,-1.23 2.92,-1.3 2.02,-0.07 1.86,-0.96 3.15,-1.1 1.29,-0.14 1.78,-0.22 2.9,-0.59 1.12,-0.37 1.64,-0.42 2.63,-0.55 0.99,-0.13 0.14,-0.9 2.07,-0.67 1.93,0.23 1.04,0.23 3.27,-0.31 2.24,-0.54 3.62,0.01 4.47,-0.28 0.85,-0.29 2.45,-0.08 3.28,-0.01 0.83,0.07 1.39,-0.08 3.31,-0.11 1.92,-0.03 3.22,-0.22 12.86,1.45 9.64,1.67 16.51,5.12 19.69,7 3.18,1.88 7.18,4.74 8.8,6.58 1.62,1.83 2.23,2.84 1.91,3.21 -0.32,0.37 -0.55,0.05 -0.98,-0.38 -0.43,-0.43 -0.85,0.22 -0.23,0.73 0.63,0.51 1.56,0.06 2.04,1.13 0.48,1.07 1.05,1.58 1.42,1.84 0.37,0.27 0.18,1.27 -1.59,-0.17 -1.77,-1.44 -1.44,-2.34 -2.48,-1.83 -1.04,0.51 -1.83,0.2 -2.67,-1.05 -0.85,-1.25 -1.51,-0.23 -3.02,-1.4 -1.51,-1.17 -1.85,-1.41 -1.53,-0.81 0.33,0.6 -0.34,1.34 1.25,1.68 1.59,0.34 2.02,-0.12 2.67,0.86 0.64,0.98 1.41,1.4 2.58,1.55 1.17,0.16 0.89,-0.06 1.89,0.96 1.01,1.02 1.43,1.29 2.16,1.48 0.73,0.2 0.8,0 1.69,0.78 0.89,0.78 1.11,0.82 1.16,1.46 0.05,0.64 0.48,1.22 0.76,1.32 0.28,0.1 0.65,0.13 0.66,1.02 0.01,0.9 0.08,0.77 0.39,1.27 0.31,0.5 0.5,0.61 0.48,1.34 -0.01,0.73 -0.04,1.12 0.23,1.53 0.27,0.41 0.26,0.61 -0.32,0.84 -0.58,0.22 -1.17,0.94 -0.36,1.32 0.81,0.38 1.26,0.47 0.79,1.17 -0.47,0.7 -1.2,0.43 -1.61,-0.11 -0.41,-0.54 -0.61,-0.26 -0.15,0.57 0.46,0.84 0.91,0.3 0.43,1.23 -0.48,0.93 0.16,1.54 0.66,1.37 0.5,-0.17 0.36,-0.88 0.23,-1.24 -0.13,-0.36 0.76,-0.5 0.85,0.02 0.09,0.52 -0.11,0.83 -0.14,1.52 -0.04,0.69 -0,1.65 -0.06,2.32 -0.06,0.67 -0.09,0.71 -0.44,0.9 -0.35,0.19 -0.52,0.37 -0.2,0.5 0.32,0.13 0.47,0.5 0.43,0.97 -0.04,0.47 -0.35,-0.01 -0.88,-0.92 -0.52,-0.91 -1.89,-2.5 -2.3,-2.99 -0.41,-0.5 -0.67,-0.55 -0.67,-0.55 0,0 1.84,2.79 2.28,3.6 0.44,0.81 0.19,1.06 -0.4,0.33 -0.59,-0.73 -1.57,-2.76 -3.34,-4.59 -1.77,-1.83 -2.73,-2.07 -2.73,-2.07 0,0 3.44,3.57 3.93,4.71 0.49,1.14 0.13,1.1 -0.73,0.04 -0.86,-1.05 -2.99,-2.89 -4.67,-4.23 -1.68,-1.34 -2.24,-1.6 -2.24,-1.6 0,0 3.4,3.39 4.4,5.03 1,1.64 1.19,2.03 1.19,2.03 0,0 -0.75,0.42 -0.88,0.27 -0.12,-0.15 -2.98,-3.98 -5.28,-6.02 -2.29,-2.05 -2.74,-2.05 -2.74,-2.05 0,0 1.15,1.42 3.5,3.98 2.35,2.56 3.71,4.58 3.71,4.58l-0.67 1.03c0,0 -2.99,-4.6 -5.69,-6.87 -2.7,-2.28 -3.01,-2.46 -3.01,-2.46 0,0 0.52,-0.64 3.7,-0.62 3.18,0.02 5.54,0.25 5.54,0.25 0,0 -2.22,-0.85 -6.07,-0.79 -3.85,0.06 -5.72,1.2 -5.72,1.2l1.31 0.6 -4.06 0.24 -1.46 -2.4c0,0 0.75,-0.88 2.59,-0.97 1.85,-0.08 2.94,-0.25 2.94,-0.25 0,0 0.08,-0.24 -2.28,-0.12 -2.36,0.12 -3.61,0.76 -3.61,0.76l-0.32 -0.68c0,0 -0.73,0.76 -1.88,1.03 -1.15,0.27 -2.55,0.21 -2.55,0.21 0,0 2.71,0.66 3.39,0.67 0.67,0 1.02,-0.03 1.02,-0.03l0.47 0.79c-0.58,0.05 -1.62,0.11 -2.72,0.04 -1.65,-0.1 -2.92,-0.49 -2.92,-0.49 0,0 2.82,0.94 4.24,1.07 0.77,0.07 1.41,0.08 1.82,0.07l0.28 0.47c-0.93,-0.05 -3.04,-0.19 -4.29,-0.4 -1.64,-0.28 -2.04,-0.37 -2.04,-0.37 0,0 3.14,0.99 4.77,1.25 0.84,0.14 1.51,0.23 1.96,0.29l-0.21 0.59 -7.55 -1.68 7.21 2.61 -0.11 0.32c0,0 -6.77,-1.85 -7.65,-2.17 -0.87,-0.32 -2.14,-0.46 -2.14,-0.46l1.59 -1.78c0,0 -1.82,0.92 -2.8,1.27 -0.98,0.34 -1.43,0.51 -1.43,0.51 0,0 1.32,0.47 1.97,0.67 0.65,0.2 1.28,0.4 1.28,0.4 0,0 -13.25,5.43 -20.88,7.81 -7.63,2.37 -16.9,5.09 -20.34,5.96 -3.44,0.87 -6.19,0.51 -6.19,0.51 0,0 -7.77,3.25 -15.42,4.21 -7.65,0.97 -13.61,-0.92 -17.34,-1.9 -3.73,-0.98 -5.9,-2.81 -3.26,-3.85 2.65,-1.04 6.4,-2.09 10.6,-3.69 4.21,-1.6 8.07,-4.53 8.07,-4.53 0,0 6.8,2.01 7.56,2.37 0.76,0.36 1.24,0.47 0.74,0.84 -0.49,0.37 -2.84,1.55 -5.7,2.42 -2.86,0.87 -3.84,0.9 -3.84,0.9 0,0 5.44,-0.42 8.37,-1.86 2.93,-1.44 1.93,-1.97 3.06,-2.84 1.13,-0.87 2.92,-4.13 -1.63,-5.83 -4.54,-1.7 -12.54,-1.12 -12.54,-1.12 0,0 9.08,0.11 11.27,2.04 2.19,1.93 2.02,5.34 -2.64,3.67zm93.84 10.51l-2.9 -3.27 0.01 -0.81 2.84 2.66c0,0 0.13,0.92 0.05,1.42zm0.2 -2.42l-0.33 -1.64 -2.82 -1.94 0.08 1.05 3.07 2.52zm-0.83 -2.68l-2.41 -1.54 -0.17 -0.75 2.54 1.32 0.05 0.97zm-1.77 -2.47c0,0 -0.68,-0.22 -0.91,-0.53 -0.22,-0.31 -0.82,-0.86 -0.54,-0.92 0.28,-0.06 0.35,0.2 1.03,0.61 0.67,0.41 0.95,0.89 0.42,0.84zm-29.02 -3.65c0,0 -1.88,-0.27 -3.03,-0.54 -1.15,-0.27 -1.56,-0.18 -1.28,-0.33 0.29,-0.15 1.1,-0.62 1.1,-0.62 0,0 1.24,0.44 2.07,0.55 0.83,0.12 1.44,0.14 1.44,0.14l-0.31 0.8zm0.04 -2.02l-1.25 -0.04c0,0 -0.14,-0.37 0.54,-0.56 0.68,-0.19 1.08,0.05 0.71,0.6zm-29.45 11.93l-2.79 -2.36 1.31 -0.44 1.73 1.6 -0.25 1.19zm0.46 -2.42l-0.87 -0.69 1.37 -0.42 -0.5 1.11zm-55.89 -11.16c0.16,-0.13 2.65,-2.35 3.94,-2.34 1.3,0.01 1.5,0.1 1.83,-0.46 0.33,-0.56 0.54,-1.26 -0.74,-1.27 -1.28,-0.01 -1.7,-0.13 -1.81,-0.09 -0.11,0.04 0.65,0.73 0.11,1 -0.54,0.27 -2.78,1.64 -3.33,3.16zm13.15 -1.08c0,0 -0.75,-0.01 -1.31,-0.36 -0.55,-0.35 -0.48,-0.7 -0.48,-0.7l-9.54 3.59c0,0 8.49,-2.17 9.5,-2.22 1.01,-0.05 1.83,-0.31 1.83,-0.31zm6.02 -5.55c-0.24,0.07 -1.04,0.24 -2.21,0.69 -1.17,0.45 -1.46,-0.07 -3.21,0.33 -1.75,0.41 -4.76,2.41 -6.09,3.11 -1.33,0.7 -1.55,0.91 -1.55,0.91 0,0 0.85,-1.44 1.7,-1.86 0.85,-0.42 1.09,-0.47 1.09,-0.47 0,0 -1.54,-0.75 -1.71,-1.5 -0.17,-0.75 -0.16,-1.1 -0.16,-1.1 0,0 0.61,1.07 1.3,1.5 0.69,0.43 1.12,0.5 1.55,0.42 0.43,-0.08 2.56,-1.34 3.76,-1.68 1.2,-0.35 1.36,-1.03 1.3,-2.22 -0.06,-1.19 -1.07,-1.83 -1.42,-2 -0.35,-0.17 -0.97,-0.25 -0.97,-0.25 0,0 2.15,-0.21 3.01,1.05 0.86,1.26 0.47,3.02 0.47,3.02 0,0 1.6,0.07 3.14,0.06zm-7.17 -3.23c0,0 1.52,1.04 1.1,2.02 -0.41,0.98 -1.63,1.66 -2.68,2.11 -1.05,0.45 -2.14,-0.06 -2.13,-1.36 0.01,-1.29 1.13,-2 1.74,-2.31 0.61,-0.3 0.45,-0.16 0.33,0.29 -0.12,0.45 -0.13,1.05 0.59,1.21 0.72,0.15 1.12,-0.71 1.04,-1.1 -0.08,-0.39 -0,-0.86 -0,-0.86zm-2.43 1.38c0.31,-0.01 0.57,0.23 0.58,0.54 0.01,0.31 -0.23,0.57 -0.54,0.58 -0.31,0.01 -0.57,-0.23 -0.58,-0.54 -0.01,-0.31 0.23,-0.57 0.54,-0.58zm2.75 24.98c0,0 15.79,-2.19 21.56,-5.31 5.77,-3.13 7.9,-8.79 8.65,-8.08 0.76,0.71 0.76,0.77 0.31,1.82 -0.44,1.06 -4.73,6.48 -10.79,8.32 -6.06,1.84 -19.74,3.25 -19.74,3.25zm20.55 -25.08c0,0 -2.92,0.06 -6.31,1.11 -3.39,1.05 -4.7,0.83 -4.83,1.44 -0.13,0.61 0.25,0.65 1.95,0.24 1.7,-0.41 5.21,-1.92 9.2,-2.79zm-2.25 3.98c0,0 4.49,-0.52 6.16,-0.67 1.67,-0.15 2.47,-0.48 2.68,-0.84 0.21,-0.36 0.38,-0.39 0.96,0.02 0.58,0.41 0.66,0.62 0.66,0.62 0,0 -0.95,0.33 -1.5,0.54 -0.56,0.21 -5.06,0.41 -8.95,0.33zm4.81 5.03c0,0 4.7,-0.82 5.94,-3.4 1.24,-2.58 0.97,-3.98 1.18,-6.2 0.12,-1.29 0.35,-2.33 0.3,-3.31 -0.11,0.02 -0.24,0.03 -0.39,0.03 -0.62,-0.02 -0.82,0.06 -0.96,0.32 -0.14,0.26 -0.51,0.77 -1.99,0.91 -1.48,0.14 -3.31,-0.13 -3.31,-0.13 0,0 1.39,-0.27 3.09,-0.4 1.7,-0.13 1.81,-0.79 1.39,-1.16 -0.42,-0.37 0.24,-0.52 0.8,-0.17 0.34,0.21 0.89,0.07 1.27,-0.07 -0.1,-0.47 -0.3,-0.93 -0.64,-1.4 -0.38,-0.52 -1.08,-1.28 -1.91,-2.1 -0.03,0.01 -0.07,0.02 -0.12,0.03 -0.74,0.12 -0.93,0.3 -1.61,0.85 -0.68,0.55 -0.57,1.13 -2.28,1.27 -1.71,0.14 -7.52,2.56 -7.52,2.56 0,0 2.13,-1.07 4.18,-2.06 2.05,-0.99 2.41,-1.37 4.12,-1.89 1.72,-0.52 1.53,-0.86 1.81,-1.51 0.07,-0.17 0.15,-0.29 0.23,-0.38 -1.52,-1.43 -3.11,-2.77 -3.72,-3.12 -0.51,-0.29 -0.95,-0.49 -1.35,-0.65 -0.12,0.29 -0.33,0.72 -0.66,1.26 -0.65,1.02 -1.7,0.89 -2.69,1.84 -0.99,0.95 -1.7,1.6 -2.51,2.17 -0.81,0.57 -4.38,2.54 -4.38,2.54 0,0 4.09,-3.57 5.24,-4.22 1.15,-0.65 1.94,-1.83 2.64,-2.21 0.7,-0.38 1.39,-1.25 1.45,-1.37l0.14 -0.27c-0.19,-0.06 -0.38,-0.11 -0.57,-0.16 -0.82,-0.22 -0.9,-1.03 -0.08,-1.07 0.83,-0.04 2.55,0 4.99,1.28 2.44,1.28 4.79,3.15 6.24,4.39 1.44,1.23 1.88,2.43 1.03,3.75 -0.85,1.33 -2.23,5.06 -1.14,6.71 1.09,1.65 0.64,2.49 0.03,3.66 -0.61,1.16 -3.04,3.05 -4.59,3.29 -1.55,0.24 -3.66,0.4 -3.66,0.4zm0.18 -19.17c0,0 -0.28,0.61 -0.81,0.84 -0.53,0.23 -1.15,0.22 -2.76,1.4 -1.61,1.18 -3.79,2.73 -3.79,2.73 0,0 3.9,-2.48 5.54,-2.82 1.64,-0.34 1.99,-0.94 2.62,-1.45 0.63,-0.52 0.52,-0.81 0.01,-0.89 -0.51,-0.08 -0.8,0.2 -0.8,0.2zm77.99 12.75c0,0 -0.26,-0.75 -0.98,-1.28 -0.72,-0.53 -1.46,-0.46 -1.74,-0.81 -0.28,-0.36 -0.09,-0.84 -0.62,-1.09 -0.53,-0.25 -0.73,-0.33 -1.56,-0.39 -0.82,-0.06 -0.54,-0.18 -0.66,-0.67 -0.12,-0.48 -0.59,-0.48 -1.19,-0.56 -0.61,-0.08 -1.22,-0.35 -1.35,-0.81 -0.13,-0.47 -0.12,-0.5 -0.44,-0.71 -0.33,-0.21 0.07,-0.81 0.46,-0.89 0.38,-0.08 0.79,0.11 1.09,0.9 0.29,0.8 0.66,1.1 1.56,1.09 0.91,-0.01 0.98,0.3 1.25,0.83 0.27,0.53 0.68,0.72 1.4,0.76 0.72,0.04 1.3,0.65 1.62,1.26 0.32,0.61 1,0.39 1.57,1.21 0.56,0.82 -0.27,1.42 -0.4,1.15zm-5.86 -0.42c0,0 -1.11,0.09 -1.35,-0.16 -0.24,-0.24 -0.49,-0.57 -1.04,-0.8 -0.56,-0.23 -0.58,-0.91 -0.18,-0.84 0.4,0.07 1.33,0.46 1.45,0.65 0.12,0.2 -0.32,0.53 0.5,0.6 0.82,0.07 1.02,0.48 0.62,0.55zm2 1.98c-0.07,-0.1 -0.55,-0.6 -0.76,-0.87 -0.21,-0.28 0.39,-0.7 0.99,-0.18 0.6,0.51 0.71,1.29 -0.23,1.06zm3.43 0.47c0,0 -0.79,-0.34 -1.15,-0.93 -0.35,-0.59 0.14,-0.92 0.85,-0.44 0.72,0.48 0.68,1.44 0.3,1.37zm-3.62 -2.87c0,0 -0.37,-0.29 -1.21,-0.74 -0.83,-0.46 -1.13,-0.41 -1.82,-0.83 -0.69,-0.42 -0.96,-1.08 -0.63,-1.17 0.32,-0.09 1,0.19 1.56,0.69 0.56,0.5 0.56,0.35 1.37,0.75 0.81,0.4 1.37,1.4 0.73,1.3zm-5.58 -3.53c0,0 -1.24,0.35 -2.35,-0.17 -1.11,-0.52 -1.62,-1.57 -2.25,-2.19 -0.63,-0.62 -0.79,-0.69 -1.59,-0.77 -0.8,-0.08 -1.02,-0.89 -1.59,-1.08 -0.57,-0.19 -0.56,-0.32 -1.98,-0.27 -1.41,0.05 -1.78,-0.25 -1.83,-0.62 -0.05,-0.37 0.63,-0.46 -0.63,-0.69 -1.26,-0.23 -1.52,-1.35 -0.76,-1.13 0.77,0.22 2.01,-0.2 2.31,0.86 0.29,1.06 0.56,1 1.38,0.94 0.82,-0.05 1.6,0.08 2.1,0.5 0.5,0.42 0.58,0.43 1.46,0.61 0.88,0.18 0.71,0.16 1.53,0.73 0.82,0.58 0.49,1.49 1.86,1.84 1.38,0.35 2,0.18 2.36,0.64 0.36,0.46 -0.03,0.79 -0.03,0.79zm-15.15 -6.66c0,0 -0.73,0.01 -1.28,-0.15 -0.55,-0.16 -0.96,-0.18 -0.96,-0.18 0,0 0.23,-0.72 1.38,-0.61 1.15,0.12 0.86,0.94 0.86,0.94zm-3.55 -0.61c0,0 -0.44,0.24 -0.9,0.35 -0.46,0.11 -0.26,0.07 -1.15,-0.9 -0.89,-0.97 -0.85,-1.2 0.49,-0.88 1.34,0.32 2.29,1 1.56,1.43zm-5.74 -0.36c0,0 -2.96,0.19 -3.47,0.21 -0.51,0.02 0.24,-0.59 0.98,-1.06 0.74,-0.46 1.28,-0.55 1.89,-0.05 0.6,0.51 0.61,0.89 0.61,0.89zm-4.77 -0.03c-0.29,0.07 -0.92,0.39 -2.71,0.46 -1.79,0.07 -2.26,-0.24 -2.86,0.64 -0.6,0.88 -2.03,0.73 -2.71,0.16 -0.68,-0.57 -1.12,-1.86 0.58,-2.22 1.7,-0.36 2.01,0.62 2.6,0.82 0.58,0.19 0.97,-0.62 1.66,-1.09 0.69,-0.47 2.49,-0.3 2.81,0.05 0.32,0.35 0.64,1.18 0.64,1.18zm-10.48 1.23c0,0 -2.17,-0.04 -2.31,-0.01 -0.14,0.03 -0.21,-0.94 0.73,-1.02 0.94,-0.08 1.84,0.68 1.58,1.03zm-2.8 0.63c0,0 -0.37,0.81 -0.89,0.58 -0.52,-0.24 -2.16,-0.75 -3.04,-0.22 -0.89,0.53 -1.07,1.34 -1.88,1.47 -0.81,0.13 -0.84,-0.64 -0.8,-1.01 0.05,-0.38 -0.04,-0.54 -0.37,-0.33 -0.33,0.21 -0.06,-1.02 0.29,-1.32 0.35,-0.3 0.73,0.24 1.14,0.69 0.41,0.46 0.75,0.61 1.43,-0.11 0.68,-0.72 1.88,-0.85 2.39,-0.38 0.51,0.47 0.87,0.44 1.14,0.39 0.27,-0.05 0.6,0.25 0.6,0.25zm-17.39 -14.98c0,0 -1.24,-0.72 -1.98,-0.06 -0.74,0.66 -0.83,1.11 -1.82,1.03 -0.99,-0.08 -1.49,-1.2 0.13,-1.35 1.62,-0.15 1.52,-1.23 2.73,-0.9 1.22,0.33 1.94,1.01 0.94,1.27zm1.79 -1.51c0,0 1,0.43 1.95,0.07 0.95,-0.36 0.85,-0.14 1.54,-0.52 0.69,-0.39 1.83,-0.82 2.94,-0.73 1.11,0.09 1.53,0.27 0.59,0.77 -0.93,0.49 -1.6,-0.41 -2.81,0.23 -1.21,0.64 -1.59,1.42 -3.19,1.46 -1.6,0.04 -1.9,-1.39 -1.03,-1.27zm11.18 0.02c-0.32,-0.07 -1.52,-0.24 -2.26,-0.62 -0.74,-0.38 -0.68,-1.43 0.7,-1.4 1.38,0.03 2.85,2.34 1.57,2.02zm3.29 -0.28c0,0 1.46,-1.76 2.38,-1.18 0.93,0.58 1.56,0.55 2.12,0.08 0.56,-0.47 0.33,-0.65 1.12,-0.51 0.79,0.14 2.4,-0.14 2.4,-0.14 0,0 -1.28,-1.67 -2.58,-0.99 -1.29,0.68 -1.44,1.32 -2.99,0.69 -1.55,-0.63 -2.82,-0.24 -3.33,0.43 -0.51,0.67 0.87,1.62 0.87,1.62zm18.65 -0.55c0,0 -0.82,0.06 -2.18,-0.39 -1.36,-0.45 -2.03,-0.41 -2.59,0.09 -0.56,0.5 -2.47,0.24 -3.16,-0.53 -0.69,-0.76 -0.43,-1.49 0.69,-0.72 1.12,0.77 1.46,0.65 2.4,0.11 0.94,-0.54 2.14,0.07 2.61,0.39 0.47,0.33 0.01,-0.1 1.16,0.05 1.15,0.15 1.78,1.05 1.08,1.01zm4.03 1.16c0,0 -1.57,-0.77 -1.91,-0.91 -0.34,-0.15 0.67,-0.86 1.67,-0.45 1,0.4 1.14,1.5 0.24,1.37zm6.36 2.41c0,0 -1.67,-0.62 -2.99,-1.29 -1.32,-0.67 -0.46,-1.67 1.27,-0.97 1.73,0.7 3.17,2.34 1.71,2.26zm2.06 -0.12c0,0 1.41,1.01 2.27,1.07 0.86,0.06 0.87,0.49 1.6,1.23 0.73,0.73 1.32,0.77 2.17,0.98 0.85,0.22 1.4,0.68 1.87,1.23 0.47,0.55 1.13,1.11 1.96,1.26 0.83,0.15 1.33,0.62 2.37,1.57 1.04,0.96 1.25,1.09 1.54,0.82 0.29,-0.27 0.07,-0.72 -0.62,-1.27 -0.69,-0.56 -1.74,-1.32 -2.63,-1.63 -0.89,-0.31 -1.61,-0.48 -1.88,-1.12 -0.27,-0.64 -1.19,-1.14 -2.39,-1.49 -1.2,-0.35 -1.21,-0.61 -1.83,-1.34 -0.62,-0.73 -1.4,-0.93 -2.31,-1.18 -0.91,-0.25 -0.89,-0.47 -1.42,-0.73 -0.53,-0.26 -1.28,0.19 -0.69,0.6zm-52.81 3.04c0.22,0.02 2.46,0.54 2.46,0.54 0,0 -0.5,-1.32 1.22,-1.22 1.72,0.1 2.15,-0.58 2.73,-0.95 0.58,-0.37 0.95,-0.59 0.95,-0.59 0,0 -0.46,-0.23 -1.38,-0.49 -0.92,-0.26 -1.16,0.52 -1.6,0.96 -0.44,0.44 -1.28,0.12 -1.88,-0.05 -0.6,-0.17 -3.43,1.72 -2.49,1.8zm8.24 -2.76c0,0 1.01,0.48 2.11,1.38 1.1,0.9 1.48,1.13 3.37,-0.22 1.88,-1.35 1.57,-1.15 2.86,-1.17 1.29,-0.02 1.42,-0.02 1.63,-0.91 0.21,-0.89 0.32,-0.97 -0.61,-0.49 -0.92,0.49 -0.76,0.67 -2.07,0.68 -1.31,0.02 -1.79,0.06 -2.95,0.85 -1.15,0.79 -1.03,0.33 -2.19,-0.6 -1.16,-0.93 -2.54,0.19 -2.15,0.47zm11.85 -1.43c0,0 0.14,-0.02 0.5,0.59 0.36,0.61 0.68,0.52 1.71,0.16 1.03,-0.36 1.44,-0.15 1.8,0.32 0.36,0.47 0.58,0.58 1.67,0.17 1.09,-0.42 1.29,-0.36 3,-0.48 1.7,-0.12 1.6,-0.07 2.28,0.41 0.68,0.48 1.7,0.43 2.31,0.02 0.61,-0.4 0.81,-0.91 1.48,-0.31 0.66,0.6 1.42,0.86 2.46,0.38 1.05,-0.48 1.76,-0.94 2.3,-0.2 0.55,0.75 0.97,1.15 2.08,0.95 1.11,-0.2 0.66,-0.02 2.09,0.08 1.43,0.1 1.98,0.07 2.88,0.21 0.9,0.15 0.83,-0.17 0.64,-0.53 -0.19,-0.36 -0.45,-0.7 -1.72,-0.43 -1.27,0.28 -1.76,0.51 -2.11,-0.3 -0.35,-0.81 -0.72,-1.03 -1.37,-0.64 -0.65,0.39 -0.59,0.69 -1.62,-0.15 -1.03,-0.85 -1.53,-1.05 -2.48,-0.5 -0.95,0.54 -1.46,0.58 -1.97,-0.21 -0.51,-0.79 -0.79,-1.28 -1.51,-0.73 -0.72,0.55 -1.22,1.62 -1.78,0.94 -0.56,-0.68 -1.5,-1.22 -2.13,-0.59 -0.62,0.63 -0.85,0.85 -1.37,0.06 -0.53,-0.79 -1.11,-0.61 -1.55,0.14 -0.44,0.75 -1.19,1.4 -2.29,0.38 -1.1,-1.02 -1.67,-0.93 -2.48,-0.45 -0.81,0.47 -0.97,0.78 -1.95,0.28 -0.98,-0.5 -1.59,-0.07 -0.89,0.44zm28.92 2.54c0.15,0.04 0.98,0.07 2.04,0.94 1.06,0.87 1.83,0.58 1.64,-0.03 -0.19,-0.61 -0.79,-1.61 -1.91,-1.58 -1.12,0.04 -1.76,0.67 -1.76,0.67zm6.5 2.22c0,0 0.08,0.64 0.65,1.25 0.57,0.62 1.77,-0.23 1.93,0.53 0.16,0.75 0.35,1.07 1.36,1.02 1,-0.05 1.01,0.07 2.12,0.72 1.12,0.65 1.5,0.88 1.95,1.53 0.45,0.65 0.38,1.31 1.24,1.24 0.86,-0.07 1.12,-0.28 1.57,0.24 0.46,0.52 0.49,0.7 0.69,0.97 0.19,0.27 0.87,0.15 0.23,-0.81 -0.64,-0.97 -0.74,-1.13 -1.64,-1.31 -0.9,-0.18 -0.92,0.3 -1.53,-0.66 -0.61,-0.97 -1.39,-1.64 -2.35,-1.97 -0.95,-0.33 -0.57,-0.22 -1.41,-0.8 -0.84,-0.58 -0.68,-0.69 -1.55,-0.8 -0.87,-0.11 -1.2,-0.37 -1.49,-0.83 -0.29,-0.46 -1.95,-0.66 -1.79,-0.29zm18.93 16.77c-0.2,-0.14 -1.26,-1.77 -1.77,-1.68 -0.5,0.09 -0.74,-0.39 -1.26,-0.83 -0.52,-0.44 -0.09,-0.43 -1.15,-0.54 -1.06,-0.11 -1.15,-0.52 -1.72,-1 -0.57,-0.49 0.26,-0.3 -1.14,-0.32 -1.4,-0.03 -1.73,-0.57 -2.12,-1.52 -0.39,-0.95 0.4,-0.91 0.79,-0.15 0.39,0.76 0.9,1.01 0.96,0.5 0.06,-0.51 0.86,-0.29 1.68,0.52 0.82,0.82 0.91,0.6 1.82,1.22 0.91,0.62 1.34,1.28 1.74,0.93 0.4,-0.35 0.79,-0.15 1.18,0.59 0.39,0.73 0.99,2.28 0.99,2.28zm-9.73 -3.13c-0.28,-0.08 -0.74,-0.63 -1.16,-0.92 -0.43,-0.29 -1.05,-1.14 0.46,-0.47 1.51,0.68 1.44,1.58 0.7,1.39zm-3.32 -2.51c0,0 -0.4,-0.07 -0.6,-0.31 -0.2,-0.24 -0.64,-0.85 -2.06,-0.75 -1.42,0.1 -1.86,-0.24 -2.06,-0.51 -0.2,-0.27 -0.28,-0.05 -0.99,-0.26 -0.71,-0.21 -0.75,-0.46 -1.64,-0.76 -0.89,-0.3 -1.78,-0.63 -0.73,-0.69 1.05,-0.06 1.21,-0.1 1.71,0.41 0.5,0.51 0.65,0.78 1.4,0.63 0.75,-0.15 1.51,0.49 1.73,0.63 0.23,0.14 0.67,0.07 2.11,0.25 1.44,0.17 1.47,1.37 1.12,1.36zm-9.79 -4.28c0,0 -0.5,0.42 -1.87,-0.15 -1.37,-0.56 -1.29,-0.38 -2.38,-0.59 -1.09,-0.21 -1.72,-0.36 -2.68,-0.63 -0.96,-0.27 -1.44,-0.88 -0.06,-0.78 1.37,0.11 1,0.2 2.68,0.65 1.69,0.46 1.13,-0.38 2.32,0.11 1.19,0.49 2.83,0.93 1.98,1.38zm-9.51 -1.55c-0.14,-0.03 -0.24,0.42 -1.17,-0.05 -0.93,-0.47 -1.06,-0.65 -1.53,-0.63 -0.47,0.02 -0.75,-0.61 0.38,-0.57 1.13,0.04 3.03,-0.17 2.32,1.26zm-4.34 -0.22c-0.17,0.08 0.17,0.01 -0.61,0.3 -0.78,0.3 0.43,-0.83 -1.78,-0.54 -2.22,0.29 -3.2,0.77 -3.85,0.09 -0.64,-0.68 -0.46,-0.66 1.54,-0.62 2,0.03 2.27,0.12 2.9,-0.11 0.63,-0.22 1.64,-0.53 1.52,-0.03 -0.12,0.5 -0.14,0.62 0.16,0.61 0.29,-0.01 0.42,0.18 0.12,0.29zm-10.36 0.03c-0.07,0.03 -0.48,0.82 -1.08,0.55 -0.6,-0.27 -1.58,-0.19 -2,0.31 -0.42,0.5 -0.98,0 -1.26,-0.17 -0.28,-0.17 -0.29,0.13 -0.99,0.45 -0.71,0.32 -1.51,0.38 -1.75,-0.25 -0.23,-0.63 0.84,-1.58 2.03,-1.15 1.19,0.43 1.26,0.3 1.69,-0.07 0.42,-0.37 1.22,-0.25 1.44,-0.14 0.22,0.12 0.14,0.1 0.86,-0.2 0.72,-0.31 1.3,0.51 1.06,0.68zm-8.01 1.51c-0.11,0.01 -1.32,0.23 -1.9,0.29 -0.58,0.06 -1.32,-0.13 -1.57,0.49 -0.25,0.62 -0.41,0.68 -1.25,0.05 -0.84,-0.63 -0.94,-0.84 0.3,-1.32 1.23,-0.48 2.06,0.14 3.21,-0.11 1.15,-0.25 1.4,0.34 1.22,0.61zm-4.68 -1.99c0,0 -0.26,-1.17 0.78,-0.21 1.04,0.96 1.49,0.77 2.71,-0.03 1.22,-0.8 1.21,-1.07 2.11,-0.61 0.9,0.46 0.92,0.55 2.4,-0.25 1.48,-0.8 1.83,-1.21 2.32,-0.6 0.49,0.61 0.66,0.99 1.91,0.3 1.25,-0.69 1.52,-1.3 2.47,-0.71 0.95,0.59 1.5,0.96 2.26,0.2 0.76,-0.76 1.36,-0.3 1.93,0.21 0.57,0.51 1.18,0.56 2.67,0.33 1.48,-0.23 2.03,0.26 2.36,-0.12 0.33,-0.38 0.18,-1.17 -0.84,-1.14 -1.02,0.03 -1.12,0.91 -2.46,0.71 -1.34,-0.2 -1.42,-1.51 -2.64,-1.12 -1.22,0.39 -0.84,1.17 -1.78,0.66 -0.94,-0.51 -1.62,-1.4 -2.59,-0.76 -0.97,0.64 -1.4,1.46 -2.05,0.77 -0.65,-0.68 -2.1,-0.8 -3.16,0.14 -1.06,0.94 -1.14,0.99 -2.39,0.53 -1.24,-0.46 -1.92,-0.31 -2.51,0.24 -0.59,0.55 -0.99,1.06 -2.18,0.32 -1.19,-0.74 -2.35,0.92 -1.33,1.14zm2.64 -4.71c0.11,-0.02 1.37,-1.5 3.11,-0.05 1.74,1.45 2.69,0.76 2.96,0.12 0.27,-0.63 1.06,-0.33 1.68,0.09 0.62,0.42 1.08,-0.84 -0.14,-1.39 -1.21,-0.55 -2.18,0.2 -2.96,0.5 -0.78,0.3 -1.42,0.03 -2.47,-0.71 -1.05,-0.74 -3.68,0.97 -2.18,1.43zm9.16 -0.98c0,0 0.71,0.96 2.13,0.88 1.41,-0.08 1.86,-1.11 2.68,-0.64 0.82,0.47 2.3,0.52 1.24,-0.32 -1.06,-0.84 -1.4,-1.26 -2.82,-0.62 -1.43,0.65 -2.65,0.15 -2.96,-0.07 -0.32,-0.22 -0.81,-0.14 -0.25,0.76zm8.5 -0.11c0,0 0.81,1.52 2.01,1.05 1.2,-0.47 1.19,-0.88 2.12,-0.34 0.93,0.54 0.19,0.18 1.61,0.99 1.42,0.81 2.47,0.29 2.87,0.05 0.39,-0.24 -0.07,-0.1 -0.6,-0.95 -0.53,-0.86 -0.9,-1.1 -1.65,-0.56 -0.76,0.54 -1.02,0.85 -1.47,0.12 -0.45,-0.73 -0.68,-1.02 -1.4,-0.64 -0.72,0.38 -1.35,1.29 -2.15,0.69 -0.81,-0.6 -1.39,-1.3 -1.33,-0.4zm4.5 3.79c0,0 0.28,0.44 1.32,0.4 1.04,-0.03 1.44,0.21 1.44,0.21 0,0 -0.32,-0.8 -1.11,-1.21 -0.79,-0.41 -1.94,0.4 -1.65,0.6zm3.96 0.69c0,0 -0.07,0.14 1.61,0.35 1.68,0.21 1.83,0 1.79,-0.26 -0.05,-0.27 -0.27,-0.95 -1.54,-1.05 -1.26,-0.1 -1.76,0.43 -1.86,0.97zm5.64 1.01c0,0 1.28,0.5 1.82,0.47 0.54,-0.03 1.43,0.12 1.86,0.81 0.43,0.68 0.36,0.67 1.47,0.67 1.11,-0 1.58,-0.09 1.89,0.57 0.31,0.65 1.23,0.57 1.88,0.6 0.65,0.03 0.49,0.49 1.11,0.75 0.62,0.25 1.31,-0.06 0.88,-0.62 -0.43,-0.56 -0.37,-0.36 -1.73,-0.73 -1.36,-0.36 -1.24,-0.35 -1.73,-0.88 -0.49,-0.53 -0.38,-0.21 -1.7,-0.4 -1.32,-0.19 -0.91,-0.28 -1.59,-0.85 -0.68,-0.57 -1.04,-0.07 -1.72,-0.42 -0.68,-0.35 -0.71,-0.44 -1.35,-0.59 -0.63,-0.15 -1.45,0.32 -1.1,0.63zm11.99 4.41c0,0 1.58,0.82 2.09,1.24 0.52,0.42 1.18,-0.22 0.23,-0.91 -0.94,-0.69 -2.59,-0.44 -2.32,-0.33zm-15.99 -8.68c0,0 1.21,1.1 2.31,1.05 1.1,-0.05 2.11,-0.22 2.67,0.56 0.56,0.77 0.75,0.88 2.16,0.83 1.41,-0.05 1.88,0.2 1.96,0.78 0.07,0.59 0.14,0.75 1.31,0.69 1.17,-0.06 1.75,0.07 2.26,0.61 0.51,0.53 1.05,0.15 1.41,-0.18 0.36,-0.32 0.48,-1.05 -0.93,-1.02 -1.42,0.03 -1.51,0.66 -2.59,-0.5 -1.09,-1.16 -0.51,-1.62 -2.03,-1.33 -1.52,0.29 -1.11,0.77 -1.81,-0.12 -0.69,-0.9 -0.55,-1.01 -1.98,-0.98 -1.43,0.03 -1.08,0.62 -2.23,-0.29 -1.15,-0.92 -2.8,-1.1 -2.5,-0.08z"/>
  <path class="fil5" d="M70.43 101.65l-0.47 -1.27 -3.22 0 -0.48 1.27 -2.43 0 3.4 -7.96 2.43 0 3.28 7.96 -2.52 0zm-3.02 -3l1.93 0 -0.95 -2.6 -0.98 2.6zm12.28 -3.18l0 8.39 -2.3 0 0 -2.91c-0.2,0.25 -0.45,0.44 -0.74,0.58 -0.29,0.14 -0.61,0.2 -0.95,0.2 -0.57,0 -1.07,-0.13 -1.5,-0.4 -0.43,-0.26 -0.77,-0.64 -1.01,-1.12 -0.24,-0.48 -0.36,-1.04 -0.36,-1.69 0,-0.63 0.12,-1.18 0.35,-1.65 0.23,-0.47 0.56,-0.84 0.98,-1.1 0.42,-0.26 0.92,-0.39 1.48,-0.39 0.36,0 0.69,0.07 0.99,0.2 0.3,0.14 0.55,0.33 0.76,0.59l0 -0.72 2.3 0zm-3.41 4.5c0.33,0 0.6,-0.13 0.81,-0.38 0.2,-0.25 0.31,-0.59 0.31,-1.01 0,-0.41 -0.1,-0.74 -0.31,-0.99 -0.2,-0.25 -0.47,-0.38 -0.81,-0.38 -0.34,0 -0.61,0.13 -0.82,0.38 -0.2,0.25 -0.31,0.59 -0.31,0.99 0,0.42 0.1,0.75 0.31,1.01 0.2,0.25 0.48,0.38 0.82,0.38zm11.06 -4.5l0 6.18 -2.3 0 0 -0.92c-0.21,0.33 -0.48,0.59 -0.8,0.76 -0.32,0.17 -0.69,0.26 -1.1,0.26 -0.43,0 -0.81,-0.1 -1.14,-0.29 -0.33,-0.19 -0.59,-0.47 -0.77,-0.82 -0.18,-0.36 -0.27,-0.77 -0.27,-1.25l0 -3.92 2.3 0 0 3.27c0,0.3 0.08,0.54 0.23,0.72 0.15,0.18 0.35,0.27 0.6,0.27 0.3,-0.01 0.53,-0.12 0.7,-0.34 0.17,-0.22 0.26,-0.51 0.26,-0.86l0 -3.06 2.3 0zm1.39 0l2.3 0 0 6.18 -2.3 0 0 -6.18zm1.14 -2.94c0.35,0 0.63,0.11 0.85,0.33 0.22,0.22 0.33,0.5 0.33,0.85 0,0.35 -0.11,0.63 -0.33,0.85 -0.22,0.22 -0.5,0.33 -0.85,0.33 -0.35,0 -0.63,-0.11 -0.86,-0.33 -0.22,-0.22 -0.34,-0.5 -0.34,-0.85 0,-0.35 0.11,-0.63 0.34,-0.85 0.22,-0.22 0.51,-0.33 0.86,-0.33zm9.29 5.03c-0.84,-0.43 -1.51,-0.65 -2.02,-0.65 -0.14,0 -0.26,0.02 -0.34,0.07 -0.08,0.05 -0.13,0.12 -0.13,0.22 0,0.11 0.08,0.21 0.23,0.28 0.16,0.07 0.4,0.15 0.74,0.24 0.45,0.13 0.83,0.26 1.13,0.39 0.3,0.13 0.56,0.32 0.78,0.59 0.22,0.26 0.34,0.6 0.34,1.01 0,0.63 -0.25,1.13 -0.74,1.49 -0.5,0.37 -1.15,0.55 -1.97,0.55 -0.55,0 -1.07,-0.07 -1.56,-0.22 -0.5,-0.15 -0.95,-0.37 -1.35,-0.65l0.7 -1.44c0.39,0.25 0.77,0.44 1.15,0.57 0.38,0.13 0.74,0.19 1.09,0.19 0.16,0 0.28,-0.02 0.37,-0.07 0.09,-0.05 0.14,-0.12 0.14,-0.21 0,-0.11 -0.07,-0.21 -0.22,-0.28 -0.15,-0.07 -0.39,-0.15 -0.73,-0.24 -0.44,-0.12 -0.81,-0.25 -1.1,-0.37 -0.3,-0.13 -0.55,-0.32 -0.77,-0.58 -0.22,-0.26 -0.33,-0.59 -0.33,-1 0,-0.64 0.24,-1.14 0.73,-1.51 0.48,-0.37 1.12,-0.56 1.91,-0.56 0.95,0 1.85,0.25 2.72,0.75l-0.76 1.44zm4.51 -2.17c1.02,0 1.81,0.3 2.37,0.9 0.57,0.6 0.85,1.43 0.85,2.47 0,0.16 -0,0.28 -0.01,0.35l-4.16 0c0.09,0.3 0.24,0.52 0.45,0.68 0.21,0.16 0.46,0.24 0.76,0.24 0.48,0 0.93,-0.2 1.36,-0.59l1.19 1.17c-0.33,0.36 -0.72,0.64 -1.19,0.83 -0.47,0.19 -0.99,0.28 -1.56,0.28 -0.68,0 -1.27,-0.13 -1.77,-0.39 -0.5,-0.26 -0.88,-0.63 -1.15,-1.1 -0.27,-0.47 -0.4,-1.02 -0.4,-1.65 0,-0.64 0.14,-1.2 0.41,-1.68 0.27,-0.48 0.66,-0.85 1.15,-1.12 0.49,-0.26 1.06,-0.4 1.7,-0.4zm0.95 2.6c0.01,-0.3 -0.08,-0.55 -0.25,-0.75 -0.17,-0.2 -0.4,-0.3 -0.68,-0.3 -0.27,0 -0.48,0.09 -0.66,0.28 -0.17,0.19 -0.29,0.44 -0.35,0.76l1.94 0z"/>
  <path class="fil5" d="M74.49 105.22c0.57,0 1.07,0.13 1.5,0.4 0.43,0.27 0.77,0.64 1.01,1.13 0.24,0.48 0.36,1.05 0.36,1.68 0,0.63 -0.12,1.18 -0.35,1.65 -0.23,0.47 -0.56,0.84 -0.98,1.1 -0.42,0.26 -0.92,0.39 -1.48,0.39 -0.36,0 -0.69,-0.07 -0.99,-0.2 -0.3,-0.14 -0.55,-0.33 -0.76,-0.59l0 2.92 -2.3 0 0 -8.39 2.3 0 0 0.72c0.2,-0.26 0.45,-0.45 0.74,-0.59 0.29,-0.14 0.61,-0.2 0.95,-0.2zm-0.58 4.52c0.34,0 0.61,-0.13 0.82,-0.38 0.2,-0.25 0.31,-0.59 0.31,-0.99 0,-0.41 -0.1,-0.74 -0.31,-0.99 -0.2,-0.25 -0.48,-0.38 -0.82,-0.38 -0.33,0 -0.6,0.13 -0.81,0.38 -0.2,0.25 -0.31,0.59 -0.31,0.99 0,0.41 0.1,0.74 0.31,0.99 0.2,0.25 0.47,0.38 0.81,0.38zm7.14 -4.52c1.02,0 1.81,0.3 2.37,0.9 0.57,0.6 0.85,1.43 0.85,2.47 0,0.16 -0,0.28 -0.01,0.35l-4.16 0c0.09,0.3 0.24,0.52 0.45,0.68 0.21,0.16 0.46,0.24 0.76,0.24 0.48,0 0.93,-0.2 1.36,-0.59l1.19 1.17c-0.33,0.36 -0.72,0.64 -1.19,0.83 -0.47,0.19 -0.99,0.28 -1.56,0.28 -0.68,0 -1.27,-0.13 -1.77,-0.39 -0.5,-0.26 -0.88,-0.63 -1.15,-1.1 -0.27,-0.47 -0.4,-1.02 -0.4,-1.65 0,-0.64 0.14,-1.19 0.41,-1.68 0.27,-0.48 0.66,-0.85 1.15,-1.12 0.49,-0.27 1.06,-0.4 1.7,-0.4zm0.95 2.6c0.01,-0.3 -0.08,-0.55 -0.25,-0.75 -0.17,-0.2 -0.4,-0.3 -0.68,-0.3 -0.26,0 -0.48,0.09 -0.66,0.28 -0.17,0.19 -0.29,0.44 -0.35,0.76l1.94 0zm7.53 -0.43c-0.84,-0.43 -1.51,-0.65 -2.02,-0.65 -0.14,0 -0.26,0.02 -0.34,0.07 -0.08,0.05 -0.13,0.12 -0.13,0.22 0,0.11 0.08,0.21 0.23,0.28 0.16,0.07 0.4,0.15 0.74,0.24 0.45,0.13 0.83,0.26 1.13,0.39 0.3,0.13 0.56,0.32 0.78,0.59 0.22,0.26 0.34,0.6 0.34,1.01 0,0.63 -0.25,1.13 -0.74,1.49 -0.5,0.37 -1.15,0.55 -1.97,0.55 -0.55,0 -1.07,-0.07 -1.56,-0.22 -0.5,-0.15 -0.95,-0.37 -1.35,-0.65l0.7 -1.44c0.39,0.25 0.77,0.44 1.15,0.57 0.38,0.13 0.74,0.19 1.09,0.19 0.16,0 0.28,-0.02 0.37,-0.07 0.09,-0.05 0.14,-0.12 0.14,-0.21 0,-0.11 -0.07,-0.21 -0.22,-0.28 -0.15,-0.07 -0.39,-0.15 -0.73,-0.24 -0.44,-0.12 -0.81,-0.25 -1.1,-0.38 -0.3,-0.13 -0.55,-0.32 -0.77,-0.58 -0.22,-0.26 -0.33,-0.59 -0.33,-1 0,-0.64 0.24,-1.14 0.73,-1.51 0.48,-0.37 1.12,-0.56 1.91,-0.56 0.95,0 1.85,0.25 2.72,0.75l-0.76 1.44zm5.58 0.31c-0.11,-0.2 -0.24,-0.35 -0.41,-0.45 -0.17,-0.11 -0.36,-0.16 -0.57,-0.16 -0.3,0 -0.55,0.12 -0.74,0.36 -0.19,0.24 -0.28,0.56 -0.28,0.95 0,0.4 0.09,0.73 0.28,0.97 0.19,0.25 0.43,0.37 0.74,0.37 0.46,0 0.79,-0.23 0.98,-0.68l1.78 0.9c-0.23,0.51 -0.6,0.9 -1.11,1.18 -0.5,0.28 -1.1,0.42 -1.78,0.42 -0.64,0 -1.21,-0.13 -1.69,-0.39 -0.48,-0.26 -0.86,-0.63 -1.12,-1.1 -0.27,-0.47 -0.4,-1.02 -0.4,-1.65 0,-0.64 0.13,-1.19 0.4,-1.68 0.27,-0.48 0.65,-0.85 1.14,-1.12 0.49,-0.27 1.05,-0.4 1.7,-0.4 0.64,0 1.21,0.14 1.71,0.42 0.5,0.28 0.88,0.68 1.14,1.19l-1.76 0.86zm5.39 -2.49c0.87,0 1.55,0.2 2.04,0.6 0.49,0.4 0.73,0.95 0.73,1.66l0 4.01 -2.25 0 0 -0.68c-0.19,0.25 -0.44,0.44 -0.74,0.58 -0.31,0.14 -0.66,0.2 -1.06,0.2 -0.65,0 -1.16,-0.18 -1.53,-0.53 -0.37,-0.35 -0.56,-0.82 -0.56,-1.41 0,-0.6 0.2,-1.06 0.61,-1.38 0.41,-0.32 1,-0.49 1.78,-0.49l1.51 0 0 -0.02c0,-0.26 -0.09,-0.46 -0.27,-0.6 -0.18,-0.14 -0.45,-0.22 -0.8,-0.22 -0.25,0 -0.54,0.04 -0.87,0.11 -0.33,0.08 -0.66,0.19 -0.99,0.33l-0.57 -1.52c1.05,-0.42 2.04,-0.64 2.98,-0.64zm-0.52 4.87c0.23,0 0.45,-0.06 0.64,-0.17 0.19,-0.11 0.33,-0.27 0.41,-0.47l0 -0.56 -1.05 0c-0.46,0 -0.69,0.19 -0.69,0.58 0,0.2 0.06,0.35 0.18,0.45 0.12,0.11 0.29,0.16 0.51,0.16zm4.33 -6.54l2.18 0 0 2.07 -0.4 3.03 -1.37 0 -0.41 -3.03 0 -2.07zm1.05 5.9c0.32,0 0.58,0.1 0.78,0.3 0.2,0.2 0.3,0.45 0.3,0.76 0,0.32 -0.1,0.58 -0.3,0.78 -0.2,0.2 -0.46,0.3 -0.78,0.3 -0.31,0 -0.57,-0.1 -0.77,-0.3 -0.2,-0.2 -0.3,-0.46 -0.3,-0.78 0,-0.31 0.1,-0.56 0.3,-0.76 0.2,-0.2 0.46,-0.3 0.77,-0.3z"/>
  <path class="fil5" d="M18.09 95.57c-0.4,-0.79 -0.52,-1.49 -0.36,-2.12 0.16,-0.62 0.58,-1.11 1.27,-1.46 0.72,-0.37 1.4,-0.43 2.01,-0.21 0.62,0.23 1.13,0.74 1.53,1.53l0.49 0.95 1.64 -0.83 0.92 1.81 -6.1 3.08 -1.4 -2.77zm3.11 -1.46c-0.14,-0.27 -0.32,-0.45 -0.54,-0.52 -0.22,-0.07 -0.47,-0.04 -0.74,0.1 -0.27,0.13 -0.43,0.31 -0.5,0.53 -0.07,0.22 -0.03,0.47 0.11,0.74l0.44 0.87 1.67 -0.84 -0.44 -0.87zm-6.21 -5.58c-0.24,-0.66 -0.32,-1.31 -0.23,-1.95 0.09,-0.64 0.33,-1.2 0.73,-1.69 0.39,-0.49 0.9,-0.84 1.53,-1.07 0.63,-0.23 1.26,-0.29 1.88,-0.18 0.62,0.12 1.17,0.39 1.66,0.81 0.49,0.43 0.85,0.97 1.09,1.63 0.24,0.67 0.32,1.32 0.22,1.95 -0.1,0.64 -0.34,1.2 -0.74,1.69 -0.4,0.49 -0.92,0.85 -1.55,1.08 -0.63,0.23 -1.25,0.29 -1.86,0.17 -0.61,-0.12 -1.16,-0.39 -1.64,-0.81 -0.48,-0.43 -0.84,-0.97 -1.09,-1.64zm1.57 -0.61c0.1,0.28 0.27,0.51 0.52,0.7 0.24,0.19 0.52,0.3 0.84,0.35 0.32,0.05 0.64,0.01 0.96,-0.11 0.32,-0.12 0.59,-0.3 0.81,-0.54 0.22,-0.24 0.36,-0.51 0.42,-0.81 0.07,-0.3 0.05,-0.59 -0.05,-0.87 -0.1,-0.27 -0.27,-0.5 -0.51,-0.68 -0.24,-0.18 -0.52,-0.29 -0.83,-0.32 -0.31,-0.04 -0.64,0.01 -0.97,0.13 -0.32,0.12 -0.59,0.29 -0.81,0.52 -0.22,0.23 -0.36,0.49 -0.43,0.78 -0.07,0.29 -0.05,0.57 0.05,0.85zm0.6 -7.53c0.38,-0.06 0.66,-0.22 0.86,-0.48 0.19,-0.26 0.27,-0.55 0.21,-0.87 -0.05,-0.32 -0.21,-0.56 -0.47,-0.73 -0.26,-0.17 -0.58,-0.22 -0.97,-0.16l-3.95 0.65 -0.33 -2 3.95 -0.65c0.59,-0.1 1.13,-0.06 1.61,0.13 0.48,0.18 0.88,0.49 1.2,0.91 0.32,0.43 0.53,0.95 0.63,1.58 0.1,0.63 0.07,1.2 -0.09,1.71 -0.16,0.51 -0.44,0.94 -0.84,1.27 -0.4,0.33 -0.89,0.55 -1.48,0.64l-3.95 0.65 -0.33 -2 3.95 -0.65zm-2.68 -10.5c-0.2,0.37 -0.37,0.78 -0.5,1.22 -0.13,0.44 -0.2,0.8 -0.19,1.08 0.01,0.18 0.05,0.31 0.12,0.41 0.07,0.1 0.17,0.14 0.3,0.14 0.18,-0.01 0.32,-0.11 0.41,-0.31 0.09,-0.2 0.19,-0.51 0.29,-0.94 0.12,-0.49 0.24,-0.89 0.37,-1.2 0.13,-0.32 0.33,-0.6 0.61,-0.84 0.28,-0.24 0.65,-0.37 1.12,-0.39 0.47,-0.02 0.88,0.09 1.22,0.33 0.34,0.24 0.59,0.57 0.77,0.99 0.18,0.42 0.28,0.89 0.3,1.42 0.02,0.58 -0.06,1.17 -0.23,1.77 -0.18,0.6 -0.43,1.11 -0.76,1.55l-1.57 -0.7c0.29,-0.35 0.52,-0.78 0.71,-1.29 0.19,-0.5 0.27,-0.93 0.26,-1.29 -0.01,-0.22 -0.06,-0.39 -0.15,-0.51 -0.09,-0.12 -0.21,-0.18 -0.37,-0.17 -0.19,0.01 -0.33,0.11 -0.42,0.32 -0.09,0.21 -0.19,0.52 -0.28,0.95 -0.11,0.48 -0.22,0.88 -0.34,1.19 -0.12,0.32 -0.32,0.59 -0.59,0.83 -0.27,0.24 -0.63,0.36 -1.09,0.38 -0.44,0.02 -0.83,-0.09 -1.17,-0.31 -0.34,-0.22 -0.6,-0.54 -0.79,-0.96 -0.19,-0.42 -0.3,-0.91 -0.32,-1.48 -0.02,-0.51 0.04,-1.03 0.16,-1.54 0.13,-0.51 0.3,-0.96 0.53,-1.35l1.59 0.69zm5.47 -6.58l-1.14 0.23 -0.43 2.73 1.02 0.57 -0.32 2.06 -6.3 -3.93 0.32 -2.06 7.19 -1.73 -0.33 2.14zm-2.94 2.16l0.26 -1.64 -2.33 0.46 2.08 1.17zm-2.2 -9.59c0.21,-0.7 0.53,-1.27 0.96,-1.72 0.43,-0.45 0.94,-0.75 1.52,-0.89 0.58,-0.14 1.2,-0.12 1.84,0.07 0.65,0.19 1.18,0.51 1.58,0.96 0.41,0.45 0.67,0.98 0.78,1.61 0.11,0.62 0.06,1.29 -0.15,2l-0.84 2.8 -6.55 -1.96 0.86 -2.87zm5.04 1.44c0.13,-0.44 0.08,-0.85 -0.16,-1.22 -0.24,-0.37 -0.61,-0.63 -1.14,-0.79 -0.52,-0.16 -0.99,-0.14 -1.4,0.06 -0.41,0.2 -0.69,0.53 -0.83,0.99l-0.26 0.89 3.49 1.04 0.29 -0.98zm5.13 -7.97l-1.15 -0.14 -1.25 2.46 0.79 0.86 -0.94 1.86 -4.78 -5.68 0.94 -1.86 7.37 0.57 -0.98 1.93zm-3.47 1.15l0.75 -1.48 -2.36 -0.28 1.61 1.76zm3.62 -10.11c-0.38,0.19 -0.75,0.42 -1.12,0.7 -0.36,0.28 -0.62,0.54 -0.78,0.77 -0.1,0.15 -0.14,0.28 -0.14,0.4 0,0.12 0.06,0.22 0.16,0.29 0.15,0.1 0.32,0.1 0.51,-0.01 0.19,-0.11 0.45,-0.3 0.78,-0.59 0.38,-0.33 0.71,-0.58 1,-0.76 0.29,-0.18 0.62,-0.29 0.98,-0.33 0.37,-0.03 0.74,0.08 1.13,0.33 0.4,0.26 0.66,0.59 0.8,0.98 0.14,0.39 0.15,0.81 0.06,1.25 -0.1,0.44 -0.29,0.89 -0.58,1.33 -0.32,0.49 -0.73,0.92 -1.22,1.3 -0.49,0.38 -1,0.66 -1.52,0.83l-0.87 -1.48c0.44,-0.12 0.88,-0.34 1.33,-0.64 0.44,-0.3 0.77,-0.6 0.96,-0.9 0.12,-0.18 0.18,-0.35 0.18,-0.5 -0,-0.15 -0.07,-0.27 -0.2,-0.35 -0.16,-0.1 -0.33,-0.1 -0.53,0.01 -0.19,0.11 -0.45,0.31 -0.78,0.61 -0.36,0.33 -0.69,0.59 -0.97,0.77 -0.28,0.19 -0.6,0.3 -0.96,0.33 -0.36,0.04 -0.73,-0.07 -1.11,-0.32 -0.37,-0.24 -0.63,-0.55 -0.77,-0.93 -0.15,-0.38 -0.17,-0.79 -0.09,-1.24 0.09,-0.45 0.29,-0.91 0.6,-1.39 0.28,-0.43 0.62,-0.81 1.03,-1.16 0.4,-0.34 0.81,-0.6 1.21,-0.79l0.89 1.49zm3.18 -7.06c0.6,-0.65 1.21,-1.01 1.85,-1.09 0.64,-0.07 1.24,0.15 1.81,0.67 0.6,0.55 0.9,1.15 0.91,1.81 0,0.66 -0.29,1.32 -0.89,1.97l-0.72 0.8 1.35 1.24 -1.37 1.5 -5.04 -4.61 2.09 -2.29zm2.47 2.39c0.21,-0.23 0.3,-0.45 0.3,-0.69 -0.01,-0.23 -0.12,-0.45 -0.35,-0.66 -0.22,-0.2 -0.45,-0.3 -0.67,-0.28 -0.23,0.02 -0.45,0.14 -0.65,0.36l-0.66 0.72 1.38 1.26 0.66 -0.72zm4.72 -3.75c0.25,0.29 0.53,0.46 0.85,0.5 0.32,0.04 0.61,-0.05 0.86,-0.26 0.25,-0.21 0.38,-0.47 0.39,-0.78 0.01,-0.31 -0.11,-0.62 -0.36,-0.92l-2.56 -3.08 1.56 -1.3 2.56 3.08c0.38,0.46 0.62,0.94 0.7,1.45 0.09,0.51 0.03,1 -0.18,1.5 -0.21,0.49 -0.56,0.94 -1.04,1.34 -0.49,0.41 -1,0.67 -1.52,0.79 -0.53,0.12 -1.03,0.09 -1.52,-0.08 -0.49,-0.17 -0.92,-0.49 -1.3,-0.95l-2.56 -3.08 1.56 -1.3 2.56 3.08zm2.09 -6.87l4.62 -3.14 0.88 1.29 -2.94 2 0.6 0.89 2.67 -1.81 0.88 1.29 -2.67 1.81 0.61 0.89 3.02 -2.06 0.88 1.29 -4.7 3.2 -3.84 -5.65zm12.89 0.02l-1.7 -1.15 -0.93 0.53 0.92 1.6 -1.76 1.01 -3.4 -5.93 2.77 -1.58c0.79,-0.46 1.52,-0.63 2.16,-0.51 0.65,0.12 1.16,0.51 1.55,1.18 0.25,0.43 0.38,0.86 0.39,1.28 0.01,0.42 -0.09,0.81 -0.31,1.18l2.31 1.25 -2 1.14zm-3.41 -1.97l1.01 -0.58c0.26,-0.15 0.43,-0.34 0.49,-0.56 0.06,-0.22 0.02,-0.47 -0.13,-0.73 -0.15,-0.26 -0.33,-0.42 -0.56,-0.47 -0.22,-0.06 -0.47,-0.01 -0.73,0.14l-1.01 0.58 0.93 1.62zm2.9 -5.38l5.48 -2.45 0.66 1.48 -1.81 0.81 2.13 4.76 -1.86 0.83 -2.13 -4.76 -1.81 0.81 -0.66 -1.48zm9.64 -3.97c0.67,-0.21 1.32,-0.26 1.95,-0.14 0.63,0.12 1.19,0.39 1.65,0.8 0.47,0.41 0.8,0.94 1.01,1.58 0.2,0.64 0.24,1.27 0.09,1.89 -0.14,0.61 -0.44,1.15 -0.89,1.62 -0.45,0.47 -1.01,0.81 -1.68,1.02 -0.67,0.21 -1.33,0.26 -1.96,0.14 -0.63,-0.12 -1.18,-0.39 -1.65,-0.81 -0.47,-0.42 -0.81,-0.95 -1.01,-1.6 -0.2,-0.64 -0.23,-1.26 -0.09,-1.87 0.14,-0.61 0.44,-1.14 0.89,-1.61 0.45,-0.46 1.01,-0.8 1.68,-1.02zm0.54 1.6c-0.28,0.09 -0.52,0.25 -0.72,0.48 -0.2,0.23 -0.32,0.51 -0.38,0.82 -0.06,0.32 -0.04,0.64 0.07,0.97 0.1,0.33 0.27,0.61 0.5,0.83 0.23,0.23 0.5,0.38 0.79,0.46 0.29,0.08 0.58,0.08 0.87,-0.02 0.28,-0.09 0.51,-0.25 0.7,-0.48 0.19,-0.23 0.31,-0.51 0.36,-0.82 0.05,-0.31 0.02,-0.64 -0.08,-0.97 -0.1,-0.33 -0.27,-0.61 -0.49,-0.83 -0.22,-0.23 -0.48,-0.38 -0.76,-0.46 -0.28,-0.08 -0.57,-0.07 -0.85,0.02zm9.39 -4.13c0.86,-0.19 1.58,-0.13 2.14,0.17 0.56,0.31 0.93,0.84 1.1,1.59 0.18,0.79 0.08,1.46 -0.3,2 -0.38,0.54 -0.99,0.91 -1.86,1.1l-1.04 0.24 0.4 1.79 -1.98 0.44 -1.48 -6.67 3.03 -0.67zm0.65 3.37c0.3,-0.07 0.51,-0.2 0.64,-0.39 0.13,-0.19 0.16,-0.44 0.09,-0.74 -0.06,-0.29 -0.2,-0.5 -0.39,-0.62 -0.2,-0.12 -0.44,-0.15 -0.74,-0.08l-0.95 0.21 0.41 1.83 0.95 -0.21zm8.74 2.07l-0.54 -1.03 -2.73 0.37 -0.26 1.14 -2.07 0.28 1.96 -7.16 2.07 -0.28 3.71 6.39 -2.14 0.29zm-2.92 -2.2l1.64 -0.22 -1.11 -2.1 -0.53 2.32zm9.57 1.81l-0.94 -1.83 -1.07 0.02 0.03 1.84 -2.03 0.04 -0.13 -6.83 3.19 -0.06c0.92,-0.02 1.63,0.18 2.14,0.59 0.51,0.41 0.77,1.01 0.79,1.78 0.01,0.5 -0.08,0.94 -0.27,1.31 -0.19,0.37 -0.47,0.67 -0.84,0.89l1.43 2.21 -2.3 0.04zm-2.04 -3.36l1.16 -0.02c0.31,-0.01 0.54,-0.09 0.7,-0.26 0.16,-0.17 0.24,-0.4 0.24,-0.71 -0.01,-0.3 -0.09,-0.53 -0.26,-0.68 -0.17,-0.16 -0.41,-0.23 -0.71,-0.23l-1.16 0.02 0.03 1.87zm10.1 3.52l-0.34 -1.11 -2.75 -0.15 -0.47 1.07 -2.08 -0.12 3.29 -6.66 2.08 0.12 2.43 6.98 -2.16 -0.12zm-2.45 -2.71l1.65 0.09 -0.69 -2.27 -0.96 2.18zm5.77 -3.87l2.02 0.2 -0.68 6.8 -2.02 -0.2 0.67 -6.8zm8.16 3.43c-0.32,-0.28 -0.68,-0.53 -1.08,-0.75 -0.4,-0.23 -0.74,-0.36 -1.01,-0.41 -0.17,-0.03 -0.31,-0.02 -0.43,0.03 -0.11,0.05 -0.18,0.14 -0.2,0.27 -0.03,0.18 0.04,0.34 0.21,0.47 0.17,0.13 0.46,0.3 0.85,0.49 0.45,0.22 0.81,0.43 1.1,0.62 0.28,0.19 0.51,0.45 0.69,0.77 0.18,0.32 0.22,0.71 0.14,1.17 -0.09,0.47 -0.28,0.84 -0.59,1.12 -0.31,0.28 -0.68,0.46 -1.13,0.54 -0.45,0.08 -0.93,0.08 -1.45,-0.02 -0.58,-0.11 -1.13,-0.31 -1.68,-0.61 -0.54,-0.3 -0.99,-0.66 -1.35,-1.08l1.02 -1.38c0.29,0.36 0.65,0.68 1.11,0.97 0.45,0.29 0.85,0.47 1.21,0.53 0.22,0.04 0.39,0.03 0.53,-0.03 0.14,-0.06 0.22,-0.17 0.25,-0.32 0.03,-0.19 -0.04,-0.35 -0.22,-0.48 -0.18,-0.14 -0.47,-0.3 -0.86,-0.48 -0.44,-0.21 -0.81,-0.4 -1.09,-0.59 -0.28,-0.19 -0.51,-0.44 -0.68,-0.75 -0.17,-0.32 -0.22,-0.7 -0.14,-1.14 0.08,-0.43 0.26,-0.79 0.55,-1.07 0.29,-0.28 0.66,-0.47 1.11,-0.57 0.45,-0.1 0.95,-0.09 1.51,0.01 0.51,0.09 0.99,0.26 1.47,0.49 0.47,0.24 0.87,0.51 1.2,0.81l-1.02 1.4zm5.6 -1.09c0.68,0.18 1.25,0.49 1.73,0.92 0.47,0.44 0.8,0.96 0.97,1.56 0.18,0.6 0.18,1.22 0.01,1.87 -0.17,0.65 -0.48,1.2 -0.93,1.65 -0.45,0.44 -0.99,0.74 -1.61,0.9 -0.63,0.16 -1.28,0.14 -1.96,-0.03 -0.69,-0.18 -1.26,-0.49 -1.73,-0.93 -0.47,-0.44 -0.79,-0.97 -0.96,-1.57 -0.17,-0.61 -0.18,-1.24 -0.01,-1.89 0.17,-0.65 0.48,-1.19 0.92,-1.63 0.45,-0.44 0.98,-0.73 1.61,-0.89 0.62,-0.15 1.28,-0.14 1.96,0.04zm-0.4 1.64c-0.29,-0.08 -0.58,-0.07 -0.87,0.03 -0.29,0.09 -0.54,0.26 -0.76,0.49 -0.22,0.23 -0.37,0.52 -0.46,0.85 -0.09,0.33 -0.09,0.66 -0.02,0.97 0.08,0.32 0.22,0.59 0.42,0.81 0.21,0.23 0.45,0.38 0.74,0.45 0.28,0.07 0.57,0.06 0.85,-0.04 0.28,-0.1 0.53,-0.26 0.74,-0.5 0.21,-0.24 0.36,-0.53 0.45,-0.86 0.09,-0.33 0.1,-0.65 0.03,-0.96 -0.07,-0.31 -0.2,-0.57 -0.4,-0.79 -0.2,-0.22 -0.44,-0.37 -0.73,-0.44z"/>
  <path class="fil5" d="M140.68 36.23l0.44 -1.08 -2.04 -1.85 -1.04 0.53 -1.55 -1.4 6.75 -3.1 1.55 1.4 -2.5 6.95 -1.6 -1.45zm-0.19 -3.65l1.23 1.11 0.89 -2.2 -2.12 1.09zm4.68 8.57l0.86 -1.87 -0.68 -0.83 -1.43 1.16 -1.28 -1.57 5.3 -4.32 2.01 2.47c0.58,0.71 0.86,1.39 0.85,2.05 -0.01,0.66 -0.31,1.23 -0.91,1.72 -0.39,0.32 -0.79,0.51 -1.2,0.59 -0.41,0.08 -0.81,0.04 -1.21,-0.11l-0.86 2.48 -1.45 -1.78zm1.39 -3.68l0.73 0.9c0.19,0.24 0.4,0.37 0.64,0.39 0.23,0.03 0.46,-0.06 0.7,-0.25 0.23,-0.19 0.36,-0.4 0.38,-0.63 0.02,-0.23 -0.07,-0.46 -0.26,-0.7l-0.73 -0.9 -1.45 1.18zm5.96 7.88l0.95 1.47 -2.33 1.51c-0.42,-0.17 -0.85,-0.44 -1.29,-0.81 -0.44,-0.37 -0.79,-0.75 -1.05,-1.16 -0.38,-0.58 -0.59,-1.19 -0.63,-1.83 -0.04,-0.64 0.07,-1.24 0.35,-1.8 0.28,-0.56 0.7,-1.02 1.27,-1.39 0.56,-0.36 1.16,-0.55 1.79,-0.57 0.63,-0.02 1.23,0.14 1.8,0.46 0.57,0.32 1.05,0.79 1.44,1.39 0.28,0.44 0.49,0.92 0.61,1.46 0.12,0.54 0.15,1.05 0.07,1.53l-1.79 -0.22c0.06,-0.32 0.07,-0.65 0.01,-0.99 -0.06,-0.34 -0.17,-0.63 -0.33,-0.88 -0.18,-0.27 -0.4,-0.48 -0.68,-0.61 -0.28,-0.13 -0.58,-0.19 -0.9,-0.16 -0.32,0.03 -0.62,0.14 -0.91,0.32 -0.29,0.19 -0.52,0.43 -0.68,0.71 -0.16,0.28 -0.23,0.58 -0.22,0.89 0.01,0.31 0.1,0.6 0.28,0.88 0.16,0.25 0.42,0.48 0.8,0.71l1.43 -0.93zm4.53 1.29l2.46 5.01 -1.4 0.69 -1.57 -3.19 -0.96 0.47 1.42 2.9 -1.4 0.69 -1.42 -2.9 -0.97 0.48 1.61 3.28 -1.4 0.69 -2.5 -5.1 6.13 -3.01zm4.55 11.59l0.51 1.78 -6.56 1.9 -0.48 -1.66 2.85 -3.84 -3.65 1.06 -0.52 -1.79 6.56 -1.9 0.48 1.67 -2.86 3.84 3.66 -1.06zm0.78 3.26l0.93 5.93 -1.6 0.25 -0.31 -1.96 -5.15 0.81 -0.31 -2.01 5.15 -0.81 -0.31 -1.95 1.6 -0.25zm0.9 7.39l0.07 2.03 -6.83 0.25 -0.07 -2.03 6.83 -0.25zm-0.25 8.67l-0.17 1.84 -6.8 -0.62 0.16 -1.72 4.05 -2.54 -3.79 -0.35 0.17 -1.85 6.8 0.62 -0.16 1.73 -4.06 2.53 3.79 0.35zm-8.35 7.22l1.15 -0.14 0.62 -2.69 -0.97 -0.65 0.47 -2.03 6 4.38 -0.47 2.03 -7.29 1.2 0.49 -2.11zm3.09 -1.94l-0.38 1.61 2.36 -0.29 -1.98 -1.32z"/>
  <path class="fil5" d="M38.2 112.15l0.95 0.74 -3.88 4.98 -0.95 -0.74 3.88 -4.98zm1.16 0.95l4.33 2.79 -0.58 0.9 -1.65 -1.07 -2.84 4.4 -1.02 -0.66 2.84 -4.4 -1.65 -1.07 0.58 -0.9zm5.13 10.55l0.18 -1.44 -2.67 -1.54 -1.15 0.88 -1.09 -0.62 5.54 -4.1 1.09 0.62 -0.77 6.83 -1.13 -0.65zm-1.6 -3.66l1.92 1.1 0.37 -2.85 -2.29 1.74zm4.19 -4.32l0.75 0.96 -1.46 0.23 -0.75 -0.53 1.46 -0.66zm3.92 4.15l1.09 0.51 -2.67 5.72 -1.1 -0.51 2.67 -5.72zm4.87 2.13c0.62,0.26 1.06,0.6 1.3,1.01 0.25,0.41 0.28,0.84 0.09,1.29 -0.13,0.32 -0.34,0.56 -0.62,0.71 -0.28,0.15 -0.59,0.2 -0.94,0.15 0.36,0.23 0.59,0.53 0.7,0.88 0.11,0.35 0.08,0.72 -0.08,1.11 -0.21,0.5 -0.57,0.81 -1.07,0.93 -0.51,0.12 -1.09,0.05 -1.76,-0.23l-2.66 -1.12 2.44 -5.82 2.59 1.08zm-1.06 2.35c0.29,0.12 0.54,0.15 0.76,0.09 0.22,-0.06 0.37,-0.2 0.47,-0.43 0.09,-0.22 0.08,-0.43 -0.03,-0.62 -0.11,-0.19 -0.31,-0.34 -0.6,-0.46l-1.41 -0.59 -0.59 1.41 1.41 0.59zm-1.04 2.48c0.35,0.15 0.66,0.2 0.92,0.15 0.26,-0.05 0.44,-0.21 0.54,-0.46 0.1,-0.24 0.08,-0.47 -0.06,-0.69 -0.14,-0.22 -0.39,-0.4 -0.75,-0.54l-1.41 -0.59 -0.65 1.54 1.41 0.59zm7.46 3.69l-0.12 -1.44 -2.93 -0.95 -0.94 1.1 -1.19 -0.39 4.59 -5.14 1.19 0.39 0.64 6.85 -1.23 -0.4zm-2.32 -3.25l2.11 0.69 -0.23 -2.86 -1.88 2.17zm4.44 -2.64l5.01 1.17 -0.24 1.04 -1.91 -0.45 -1.19 5.1 -1.19 -0.28 1.19 -5.1 -1.91 -0.45 0.24 -1.04zm5.54 1.32l4.55 0.83 -0.19 1.04 -3.36 -0.61 -0.28 1.53 3.02 0.55 -0.19 1.04 -3.02 -0.55 -0.28 1.56 3.47 0.63 -0.19 1.04 -4.66 -0.85 1.13 -6.21zm3.03 -1.37l1.03 0.65 -1.3 0.71 -0.88 -0.25 1.16 -1.11zm6.19 5.99l2.25 0.24 -0.08 0.81 -2.25 -0.24 0.08 -0.81zm10.66 -2.62l-2.39 4.2 -0.05 2.06 -1.21 -0.03 0.04 -2.02 -2.26 -4.34 1.23 0.03 1.66 3 1.76 -2.93 1.22 0.03zm4.85 6.17l-0.59 -1.32 -3.08 0.07 -0.53 1.35 -1.25 0.03 2.63 -6.37 1.25 -0.03 2.87 6.25 -1.3 0.03zm-3.26 -2.3l2.22 -0.05 -1.16 -2.63 -1.06 2.68zm4.67 -4.15l1.2 -0.13 0.28 2.68 3.13 -0.33 -0.28 -2.68 1.2 -0.13 0.65 6.28 -1.2 0.12 -0.26 -2.55 -3.13 0.33 0.26 2.55 -1.2 0.12 -0.65 -6.28zm12.32 4.6l-0.8 -1.2 -3.03 0.58 -0.3 1.42 -1.23 0.24 1.52 -6.72 1.23 -0.24 3.88 5.68 -1.27 0.25zm-3.6 -1.72l2.18 -0.42 -1.58 -2.39 -0.6 2.82zm6.46 -5.41c0.77,-0.21 1.41,-0.19 1.93,0.06 0.52,0.25 0.87,0.71 1.06,1.37 0.19,0.7 0.13,1.29 -0.19,1.79 -0.31,0.5 -0.85,0.86 -1.62,1.07l-1.33 0.37 0.49 1.79 -1.17 0.32 -1.67 -6.09 2.5 -0.69zm0.84 3.29c0.44,-0.12 0.75,-0.31 0.93,-0.57 0.18,-0.26 0.22,-0.57 0.12,-0.95 -0.1,-0.37 -0.3,-0.62 -0.58,-0.74 -0.29,-0.12 -0.65,-0.12 -1.09,-0l-1.27 0.35 0.62 2.25 1.27 -0.35zm2.26 -4.14l4.4 -1.42 0.32 1 -3.25 1.05 0.48 1.48 2.92 -0.94 0.32 1 -2.92 0.94 0.49 1.51 3.36 -1.08 0.32 1 -4.5 1.46 -1.94 -6.01zm2.02 -2.64l1.21 0.09 -0.81 1.24 -0.89 0.19 0.49 -1.52zm8.11 2.33l2.05 -0.96 0.34 0.74 -2.05 0.96 -0.34 -0.74zm5.35 -6.14l1.05 -0.61 3.16 5.46 -1.05 0.61 -3.16 -5.46zm1.58 -0.83l4.34 -2.77 0.58 0.9 -1.66 1.06 2.82 4.41 -1.03 0.66 -2.82 -4.41 -1.66 1.06 -0.58 -0.9zm11.73 -0.29l-1.23 -0.77 -2.52 1.78 0.31 1.41 -1.02 0.72 -1.39 -6.75 1.02 -0.72 5.88 3.57 -1.06 0.75zm-3.99 -0.08l1.81 -1.28 -2.43 -1.53 0.62 2.81zm0.45 -5.18l3.92 -3.34 0.7 0.82 -1.5 1.28 3.4 3.99 -0.93 0.79 -3.4 -3.99 -1.5 1.28 -0.7 -0.82zm4.27 -3.74l0.88 -0.83 4.34 4.58 -0.88 0.83 -4.34 -4.58z"/>
 </g>
</svg>
