<svg width="16" height="13" viewBox="0 0 16 13" fill="none" xmlns="http://www.w3.org/2000/svg">
<path fill-rule="evenodd" clip-rule="evenodd" d="M5.20304 8.99542C5.20304 8.99542 5.00371 9.02297 4.81226 9.11221C4.62211 9.20144 4.03462 9.46388 2.77047 9.50456C1.50632 9.54655 0.516248 9.05184 0.327413 8.95605C0.139889 8.86026 0.0664524 8.59912 0.362819 8.42591C0.659186 8.25401 0.91359 8.20808 0.997516 8.20808C1.08013 8.20939 1.08669 8.15165 1.08669 8.15165C1.08669 8.15165 1.088 8.18577 1.20078 8.18577C1.31355 8.18577 1.30175 8.0283 1.30175 8.0283C1.30175 8.0283 1.33978 8.15165 1.47354 8.10966C1.60861 8.06767 2.2656 7.71862 2.2656 7.71862L2.1843 7.57427C2.1843 7.57427 2.30363 7.67794 2.42952 7.59789C2.55541 7.51785 2.71408 7.40762 2.71408 7.40762C2.71408 7.40762 2.61442 7.36956 2.47148 7.36169C2.32986 7.35513 2.29838 7.43386 2.29838 7.43386C2.29838 7.43386 2.2892 7.33151 2.1502 7.34201C2.0112 7.3525 1.88399 7.46142 1.88399 7.46142C1.88399 7.46142 1.88924 7.34463 1.7463 7.36825C1.60336 7.39187 1.40928 7.53491 1.40928 7.53491C1.40928 7.53491 1.43944 7.44699 1.25192 7.4916C1.0644 7.53622 1.04735 7.58346 1.04735 7.58346C1.04735 7.58346 0.941128 7.54672 0.850645 7.58215C0.760161 7.61758 0.76934 7.65826 0.76934 7.65826C0.76934 7.65826 0.732622 7.62414 0.542475 7.66744C0.351017 7.71074 0.142511 7.76586 0.0638299 7.53228C-0.016163 7.2987 -0.048947 7.094 0.135954 6.95359C0.320856 6.81318 0.298563 6.7292 0.400849 6.56123C0.503135 6.39458 0.757538 5.96285 1.54435 5.17551C3.3396 3.38038 4.88831 2.40015 7.40743 1.95005C8.43685 1.76634 9.4702 1.7191 10.2806 1.86607C10.2806 1.86607 11.4202 0.877959 12.3145 0.493476C13.2102 0.10768 13.6036 -0.0209184 13.6692 0.00270174C13.7347 0.0263219 13.7413 0.120802 13.6744 0.307139C13.6075 0.493476 13.4239 1.22701 13.5787 1.83982C13.7334 2.45264 14.2842 3.135 14.2842 3.135C14.2842 3.135 14.1281 3.135 13.9616 3.14156C13.7951 3.14681 13.736 3.25835 13.736 3.25835C13.736 3.25835 14.9425 3.90659 15.551 5.22669C16.1594 6.5468 15.9994 7.74617 15.9208 7.88921C15.8421 8.03355 15.8421 8.03355 15.8421 8.03355C15.8421 8.03355 16.0296 8.48234 15.968 8.90356C15.9063 9.32479 15.8408 9.47307 15.8408 9.47307L15.5418 9.02035L15.151 9.46651C15.151 9.46651 15.0068 10.2696 14.4822 11.116C13.9577 11.9624 13.4567 12.3678 13.2089 12.4833C12.961 12.5988 12.906 12.6316 12.906 12.6316C12.906 12.6316 12.9545 12.4361 12.9387 12.2904C12.923 12.1448 12.9296 12.1671 12.8902 12.1605C12.8509 12.154 12.8299 12.1566 12.8312 12.028C12.8325 11.8981 12.8351 11.9125 12.7617 11.8233C12.687 11.7354 12.6843 11.713 12.6948 11.633C12.7053 11.553 12.7315 11.5766 12.6568 11.4742C12.5821 11.3719 12.5676 11.3509 12.5742 11.2406C12.5821 11.1304 12.5716 11.0753 12.5388 11.0084C12.506 10.9401 12.3709 10.931 12.3683 10.8339C12.3657 10.7367 12.3631 10.6711 12.2372 10.6829C12.1113 10.6948 12.2398 10.557 12.1139 10.5609C11.988 10.5648 12.0418 10.553 12.0667 10.4284C12.0916 10.305 12.0628 10.1869 11.9788 10.0767C11.8962 9.96778 11.8857 9.89167 11.7546 9.84181C11.6234 9.79194 11.63 9.6909 11.6274 9.60036C11.6248 9.50981 11.6116 9.55705 11.5054 9.51768C11.3992 9.47832 11.394 9.49538 11.2576 9.22768C11.1212 8.95999 11.0805 8.85107 10.9625 8.83664C10.8445 8.82351 10.7239 8.79202 10.6714 8.73035C10.6189 8.66867 10.4878 8.52039 10.3278 8.43247C10.1678 8.34455 10.1482 8.34324 10.1482 8.34324C10.1482 8.34324 11.1094 7.93514 12.1441 7.85115C13.18 7.76717 13.6928 7.91939 13.6928 7.91939C13.6928 7.91939 13.622 7.54934 13.3348 7.19897C13.0463 6.84861 13.0463 6.84861 13.0463 6.84861L12.9361 6.84467C12.9361 6.84467 13.0305 7.073 13.0528 7.16354C13.0751 7.25409 13.0712 7.25409 13.0712 7.25409C13.0712 7.25409 12.5716 7.16092 12.2621 7.0835C11.9526 7.00608 11.9408 7.00739 11.9408 7.00739L11.8962 7.02838C11.8962 7.02838 11.8306 7.20553 11.8647 7.35119C11.9001 7.49816 11.9972 7.67663 11.9972 7.67663C11.9972 7.67663 11.5028 7.63988 11.1776 7.53622C10.8524 7.43386 10.8104 7.41549 10.8104 7.41549C10.8104 7.41549 9.42168 7.88658 8.81714 8.07161C8.21261 8.25663 8.1195 8.27632 8.1195 8.27632C8.1195 8.27632 8.10114 8.4246 8.03689 8.61487C7.97263 8.80514 8.00148 8.95736 8.00148 8.95736L7.50185 8.586L7.40481 8.48365C7.40481 8.48365 6.50128 8.69623 6.00559 8.82351C5.5099 8.95211 5.20304 8.99279 5.20304 8.99279V8.99542ZM10.9442 1.77684C10.9442 1.77684 11.39 1.09054 12.2844 0.669315C13.1787 0.248089 13.344 0.220532 13.4305 0.187726C13.5184 0.15492 13.5407 0.191663 13.5184 0.26646C13.5157 0.275646 13.5092 0.294017 13.5026 0.320262C13.3872 0.35438 13.1354 0.440987 12.6253 0.660129C11.828 1.00262 11.0923 1.77028 11.0923 1.77028C11.0923 1.77028 11.6248 1.311 12.2778 0.964567C12.7932 0.690311 13.2744 0.556463 13.4554 0.51316C13.4371 0.598455 13.4187 0.702121 13.4056 0.821534C13.3085 0.835968 13.0909 0.885833 12.6214 1.04724C11.849 1.31231 11.255 1.86738 11.255 1.86738C11.255 1.86738 11.7415 1.48552 12.5676 1.19158C13.0791 1.01049 13.2981 0.98425 13.3898 0.989499C13.3846 1.06167 13.382 1.13778 13.3833 1.21651C13.2679 1.22833 12.9794 1.27163 12.5611 1.44091C12.0116 1.66399 11.5841 2.0629 11.5841 2.0629C12.5021 1.51308 13.18 1.38842 13.3872 1.36217C13.3898 1.42516 13.3951 1.49077 13.403 1.55638C13.2954 1.56951 13.041 1.61412 12.645 1.75584C12.2293 1.90412 11.9041 2.15082 11.7756 2.25711C11.3271 2.11408 11.053 1.97892 10.9455 1.77553L10.9442 1.77684ZM13.4174 1.68104L13.42 1.6981C13.4253 1.73222 13.4318 1.76634 13.4397 1.80046C12.9768 1.912 12.5112 2.06684 12.1427 2.37653C12.085 2.35422 12.03 2.33454 11.9775 2.3201L11.9329 2.30698C12.0326 2.23087 12.2542 2.08521 12.6607 1.91331C13.0922 1.73091 13.3243 1.69023 13.4187 1.68104H13.4174ZM13.4646 1.90806C13.4777 1.95793 13.4921 2.00648 13.5066 2.05372C13.4449 2.0734 13.3295 2.11146 13.1197 2.17707C12.8601 2.25843 12.6135 2.43689 12.4916 2.53399C12.3749 2.47626 12.2581 2.42246 12.1493 2.38046C12.2057 2.34635 12.3303 2.27942 12.5807 2.17051C12.8928 2.03272 13.3138 1.93955 13.4646 1.90937V1.90806ZM13.5616 2.20594C13.5839 2.26236 13.6062 2.31485 13.6298 2.36734C13.5643 2.37128 13.4607 2.38703 13.3151 2.43295C13.1053 2.49988 12.9046 2.63897 12.8168 2.7059C12.767 2.67834 12.7158 2.64947 12.6634 2.62191C12.7342 2.56286 12.8522 2.47757 13.0096 2.40408C13.2089 2.31223 13.4515 2.23874 13.5616 2.20594V2.20594ZM13.6915 2.49463C13.7046 2.52087 13.719 2.54712 13.7321 2.57205C13.5367 2.60092 13.2246 2.73739 13.0817 2.85812C13.0436 2.83581 13.003 2.81219 12.9623 2.78725C13.02 2.73345 13.1276 2.64422 13.2626 2.5878C13.4082 2.52743 13.597 2.5025 13.6915 2.49332V2.49463ZM13.7977 2.68621C13.82 2.72296 13.8423 2.75839 13.8619 2.78988C13.7924 2.78988 13.6901 2.79907 13.5616 2.83581C13.4148 2.8778 13.3269 2.93685 13.2784 2.98015C13.2535 2.96441 13.2259 2.94735 13.1984 2.93029C13.3544 2.7925 13.5879 2.6954 13.7977 2.68753V2.68621ZM13.9472 2.91454C13.9931 2.97884 14.0219 3.01296 14.0219 3.01296C14.0219 3.01296 13.7531 3.01296 13.6141 3.05889C13.4751 3.10481 13.4751 3.10481 13.4751 3.10481C13.4751 3.10481 13.4489 3.08776 13.403 3.05757C13.4554 3.02477 13.5367 2.98015 13.6377 2.95128C13.7452 2.91979 13.8672 2.91454 13.9472 2.91454ZM8.37128 6.67802L8.26637 6.44838C8.26637 6.44838 8.73453 5.88674 9.79017 5.4524C10.8458 5.01673 11.5513 4.96162 11.8215 4.96293C12.0916 4.96425 12.4181 5.02986 12.4181 5.02986C12.4181 5.02986 11.748 5.34873 11.0373 5.93005C10.3265 6.51005 9.86754 7.34201 9.86754 7.34201C9.86754 7.34201 9.42561 7.384 9.05056 7.30395C8.67552 7.22391 8.52209 7.16486 8.52209 7.16486C8.52209 7.16486 9.00204 7.15436 9.3784 7.15173C9.75476 7.14911 9.84131 7.13992 9.84131 7.13992C9.84131 7.13992 9.8623 7.10581 9.90164 7.04676C9.84131 7.04413 9.74296 7.04151 9.59478 7.04151C9.30497 7.03888 8.96664 6.98771 8.96664 6.98771C8.96664 6.98771 9.13318 6.96015 9.44004 6.95752C9.66035 6.9549 9.86492 6.95621 9.96327 6.95752C9.9895 6.92078 10.0183 6.87879 10.0511 6.83286C9.94098 6.80662 9.69575 6.75806 9.43086 6.77644C9.07417 6.80268 8.59683 6.94046 8.59683 6.94046C8.59683 6.94046 9.16859 6.69245 9.60002 6.65965C9.90426 6.63734 10.076 6.67277 10.1521 6.69508C10.2229 6.60191 10.3042 6.50087 10.396 6.39326C10.2846 6.38014 10.0262 6.37096 9.63281 6.47987C9.09515 6.62815 8.65847 6.7725 8.65847 6.7725C8.65847 6.7725 9.33644 6.45625 9.86623 6.31059C10.2452 6.20693 10.4144 6.2581 10.4813 6.29616C10.5757 6.18987 10.6806 6.08095 10.792 5.97466C10.6622 5.96548 10.3803 5.97466 9.90557 6.13082C9.21711 6.35652 8.56274 6.69245 8.56274 6.69245C8.56274 6.69245 9.37447 6.18462 10.1023 5.96416C10.5993 5.81326 10.834 5.82376 10.9324 5.84606C10.952 5.829 10.9717 5.81063 10.9914 5.79358L11.293 5.53375C10.6622 5.4852 9.41512 6.04552 8.88664 6.29222C9.66559 5.82376 10.5363 5.39597 11.4635 5.3881L11.7507 5.1414C11.7507 5.1414 9.50036 5.17945 8.36735 6.67933L8.37128 6.67802ZM14.7183 8.10704C14.7183 8.10704 14.7065 7.83672 14.9202 7.73305C15.134 7.62939 15.349 7.67925 15.3988 8.07554C15.4487 8.47184 15.4172 8.54007 15.4172 8.54007L15.8486 9.02429C15.8486 9.02429 15.8421 9.09383 15.829 9.1227C15.8159 9.15288 15.8027 9.17257 15.8027 9.17257L15.3713 8.61881C15.3713 8.61881 15.3031 9.00854 15.1995 9.18438C15.0959 9.36153 15.0343 9.44289 15.0343 9.44289C15.0343 9.44289 14.7996 10.0216 14.5229 10.6278C14.2449 11.2328 14.1072 11.3273 14.1072 11.3273L14.4035 10.6265C14.4035 10.6265 14.1124 11.133 13.7767 11.5831C13.441 12.0332 13.0804 12.339 13.0804 12.339L13.0436 12.1933C13.0436 12.1933 13.0436 12.1841 13.0423 12.1723C13.1315 12.1159 13.281 12.0044 13.4384 11.8115C13.6901 11.5031 13.9944 10.9677 13.9944 10.9677C13.9944 10.9677 13.9065 11.1186 13.6547 11.4152C13.462 11.6422 13.1263 11.9479 12.9781 12.0792C12.9466 12.0634 12.9374 12.0477 12.9322 12.0227C13.0305 11.9453 13.2338 11.7668 13.517 11.4244C13.9262 10.9296 14.4547 10.1659 14.4547 10.1659C14.4547 10.1659 14.0586 10.7039 13.6193 11.1816C13.2876 11.5425 13.0148 11.7931 12.902 11.8941C12.8784 11.8482 12.8351 11.8364 12.8247 11.7708C12.9099 11.7222 13.0738 11.6212 13.2443 11.4782C13.4921 11.2708 13.9734 10.6961 13.9734 10.6961C13.9734 10.6961 13.917 10.7446 13.5079 11.1304C13.1958 11.4244 12.9348 11.5936 12.8286 11.6579C12.8417 11.5608 12.8456 11.5201 12.826 11.4795C12.9479 11.4178 13.2063 11.2734 13.5367 11.0071C14.0023 10.6318 14.4809 9.87461 14.4809 9.87461C14.4809 9.87461 14.3288 10.099 13.8187 10.5832C13.4135 10.9677 12.9138 11.259 12.7237 11.3627C12.6752 11.3154 12.6607 11.2958 12.6765 11.2C12.6778 11.1882 12.6791 11.1777 12.6804 11.1685C12.7722 11.1252 12.9296 11.0451 13.142 10.9139C13.4987 10.6921 13.7688 10.4218 14.1085 10.0688C14.4481 9.71583 14.8048 9.05972 14.8048 9.05972C14.8048 9.05972 14.7668 9.12533 14.5806 9.37596C14.393 9.6266 13.9446 10.162 13.4253 10.5662C13.0607 10.8496 12.7879 10.9861 12.6568 11.0412C12.6424 11.0136 12.6227 10.9874 12.603 10.9559C12.5532 10.8758 12.6463 10.8391 12.7971 10.7774C12.9479 10.7144 13.9721 9.97828 14.3406 9.54655C14.7078 9.11483 14.8756 8.70804 14.8756 8.70804C14.8756 8.70804 14.3589 9.16994 14.4652 8.99673C14.5727 8.82351 14.5058 8.88913 14.5058 8.88913C14.5058 8.88913 14.3104 9.05184 14.1399 9.16469C13.9682 9.27623 14.1085 9.16601 14.313 8.91406C14.5176 8.66342 14.6501 8.49021 14.6501 8.49021C14.6501 8.49021 14.2842 8.80252 14.0521 8.96786C13.82 9.13189 13.6233 9.25786 13.9144 8.97836C14.2055 8.69885 14.2894 8.57157 14.2894 8.57157C14.2894 8.57157 13.5616 9.10958 13.0017 9.3904C12.4417 9.67253 11.9919 9.89954 11.9919 9.89954C11.9919 9.89954 11.9605 9.88773 11.8949 9.80244L11.8713 9.77095C11.908 9.7342 11.9801 9.67909 12.1218 9.59642C12.4404 9.41008 12.9663 9.16863 12.9663 9.16863C12.9663 9.16863 12.7119 9.19881 12.304 9.38253C12.0208 9.51112 11.8831 9.6371 11.8254 9.70271C11.811 9.67515 11.8018 9.64497 11.7874 9.59511C11.7808 9.56886 11.7729 9.54918 11.7651 9.53474C11.8765 9.47176 12.0995 9.34972 12.4063 9.20275C12.8574 8.98754 13.7334 8.72116 13.7334 8.72116C13.7334 8.72116 13.0738 8.85501 12.4732 9.08727C12.0457 9.25261 11.7729 9.39565 11.6523 9.46388L11.6457 9.46126C11.5631 9.43239 11.4844 9.49144 11.4084 9.28804C11.4045 9.27623 11.4005 9.26574 11.3953 9.25524C11.4976 9.2185 11.7415 9.13583 12.0549 9.05447C12.4745 8.94555 12.7748 8.90225 12.7748 8.90225C12.7748 8.90225 12.7224 8.88781 12.5362 8.91012C12.3499 8.93243 12.6043 8.81827 13.0686 8.71066C13.5328 8.60306 13.6823 8.57944 13.6823 8.57944C13.6823 8.57944 13.041 8.57682 12.3303 8.7789C11.8031 8.92849 11.4648 9.04922 11.3258 9.10171C11.3035 9.06103 11.2799 9.02429 11.255 8.98886C11.3533 8.95474 11.7651 8.81302 12.3644 8.6608C13.0541 8.48496 13.9262 8.39179 13.9262 8.39179C13.9262 8.39179 12.5466 8.4574 11.8411 8.65424C11.3795 8.78284 11.2222 8.84714 11.1684 8.87732L11.1579 8.86419C11.1212 8.81827 11.0897 8.7894 11.0596 8.76709C11.1933 8.70673 11.5592 8.54663 11.8726 8.47052C12.2634 8.37604 13.0004 8.31437 13.0004 8.31437C13.0004 8.31437 12.2122 8.27632 11.6602 8.41279C11.2418 8.51645 11.0058 8.62668 10.9153 8.67261L10.9127 8.6713C10.8288 8.60569 10.7645 8.55057 10.7645 8.55057C10.7645 8.55057 11.175 8.28681 11.9369 8.22383C12.6988 8.16084 13.6429 8.33668 13.6429 8.33668C12.9046 8.05324 12.1637 8.02699 11.3113 8.23826C11.3113 8.23826 12.0549 7.83803 12.9178 7.97188C13.7793 8.10573 13.8934 8.15297 13.8934 8.15297C13.8934 8.15297 13.8357 8.00468 13.8632 7.92989C13.8908 7.8564 13.8318 7.88265 13.8396 7.78029C13.8475 7.67794 13.8357 7.67269 13.7675 7.62939C13.6993 7.58608 13.6901 7.56509 13.7256 7.51785C13.7623 7.47061 13.7098 7.4378 13.6718 7.42599C13.6338 7.41418 13.5931 7.39318 13.6233 7.32495C13.6534 7.25671 13.6443 7.24097 13.5577 7.21735C13.4712 7.19373 13.4515 7.18323 13.4528 7.14255C13.4541 7.10187 13.3662 7.1163 13.3938 7.04807C13.4213 6.97983 13.639 6.98377 13.6508 7.09924C13.6626 7.21472 13.7295 7.1373 13.7518 7.21735C13.7728 7.29739 13.8764 7.32888 13.8829 7.35513C13.8895 7.38137 13.8882 7.37088 13.8987 7.43518C13.9091 7.49947 14.0259 7.53097 13.9839 7.57296C13.9419 7.61495 13.9144 7.68319 13.9773 7.71074C14.0403 7.7383 14.0534 7.72387 14.0036 7.77504C13.9537 7.82491 14.0429 7.81703 14.0101 7.89577C13.9773 7.9745 13.9996 8.07948 14.0481 8.08604C14.0967 8.0926 14.1465 7.98106 14.119 7.93251C14.0901 7.88527 14.0809 7.90364 14.094 7.83147C14.1072 7.75798 14.0809 7.69237 14.0665 7.66219C14.0521 7.63332 14.1386 7.56771 14.0586 7.49554C13.9786 7.42337 13.9839 7.42861 13.9747 7.38531C13.9655 7.34201 13.9367 7.37088 13.9105 7.29608C13.8842 7.22128 13.8685 7.16223 13.8685 7.16223C13.8685 7.16223 14.0363 7.28821 14.1124 7.39843C14.1885 7.50866 14.1911 7.50079 14.2016 7.56771C14.2121 7.63463 14.2304 7.61495 14.2409 7.69893C14.2514 7.7816 14.3012 7.79866 14.3209 7.76586C14.3419 7.73305 14.355 7.67006 14.4284 7.77373C14.5019 7.87608 14.7196 8.11491 14.7196 8.11491L14.7183 8.10704ZM12.0916 9.95728C12.0916 9.95728 12.4653 9.86149 12.8928 9.62529C13.3217 9.3904 13.3217 9.38646 13.3217 9.38646C13.3217 9.38646 12.8942 9.74208 12.5558 9.89298C12.2175 10.0452 12.0693 10.1029 12.0916 9.95597V9.95728ZM12.4588 10.6659C12.4588 10.6659 12.7184 10.5425 13.0056 10.368C13.2928 10.1935 13.3977 10.1134 13.3977 10.1134C13.3977 10.1134 13.1971 10.3838 12.9545 10.5543C12.7119 10.7249 12.565 10.7905 12.5139 10.7761C12.4627 10.7617 12.4286 10.6934 12.4588 10.6672V10.6659ZM3.56384 7.55196C3.56384 7.55196 2.93833 7.21735 2.35871 7.21341C1.77909 7.20947 1.2847 7.35907 1.0421 7.41418C0.799501 7.46929 0.312988 7.64382 0.230372 7.54409C0.147757 7.44436 0.0743207 7.24228 0.248731 7.14517C0.423142 7.04938 0.558212 6.95752 0.573948 6.85911C0.590996 6.75938 0.673611 6.64259 0.77852 6.50087C0.88474 6.35915 1.00932 6.31584 1.04866 6.34209C1.08931 6.36833 1.12472 6.37096 1.12472 6.37096C1.12472 6.37096 1.22176 6.21743 1.31618 6.19512C1.41059 6.17281 1.47354 6.18987 1.47354 6.18987C1.47354 6.18987 1.41846 5.91824 1.92596 5.60724C2.43345 5.29493 2.82293 5.45108 2.89243 5.55081C2.96193 5.65054 2.89112 5.87625 2.89112 5.87625C2.89112 5.87625 3.0852 5.7319 3.16126 5.69253C3.23863 5.65448 3.23469 5.53375 3.23207 5.46158C3.22945 5.38941 3.32649 5.38678 3.38157 5.42615C3.43664 5.46683 3.4432 5.46683 3.4432 5.46683C3.4432 5.46683 3.42222 5.37104 3.35927 5.30149C3.29633 5.23194 3.30157 4.99574 3.4432 4.91307C3.58483 4.8304 3.73563 4.83696 3.81431 4.85927C3.89299 4.88026 3.91922 4.75298 3.85628 4.65325C3.79333 4.55352 3.75006 4.40261 4.01626 4.4118C4.28247 4.42098 4.22346 4.28976 4.16576 4.20709C4.10937 4.12442 4.14871 4.03912 4.35459 4.09161C4.56179 4.14541 4.59064 4.12573 4.62998 4.02206C4.66932 3.9184 4.70341 3.8869 4.83979 3.8226C4.97618 3.75831 5.02207 3.69532 5.07977 3.77799C5.13616 3.86066 5.04699 3.87509 5.39057 3.87641C5.73414 3.87772 5.78397 3.91184 5.99904 4.03125C6.2141 4.15066 6.61406 4.38293 6.83306 4.53515C7.05074 4.68605 7.1032 4.68474 7.16483 4.88945C7.22647 5.09416 7.35891 5.58624 7.24745 5.81457C7.13598 6.04159 7.04681 6.30535 6.87502 6.45494C6.70323 6.60453 6.64947 6.60716 6.64947 6.60716C6.64947 6.60716 6.84224 6.63996 6.99436 6.46281C7.14778 6.28435 7.26581 6.03503 7.26581 6.03503C7.26581 6.03503 7.33662 6.14263 7.29597 6.38145C7.25532 6.62028 7.1609 6.92734 6.95239 7.20291C6.74389 7.47848 6.33081 7.92201 6.07247 8.12278C5.81544 8.32356 5.7184 8.38392 5.7184 8.38392C5.7184 8.38392 6.5026 7.96007 6.88814 7.50735C7.27367 7.05594 7.3117 6.85911 7.30515 6.77512C7.29728 6.69245 7.37072 6.65177 7.39957 6.56779C7.42973 6.48381 7.4612 6.19905 7.42448 6.0429C7.38645 5.88674 7.34318 5.82244 7.3917 5.76077C7.44022 5.69909 7.46907 5.57312 7.46644 5.47995C7.46382 5.38678 7.46251 5.35529 7.46251 5.35529C7.46251 5.35529 7.74052 5.77258 7.75363 6.1715C7.76674 6.57042 7.68938 6.9011 7.45071 7.2344C7.21204 7.5664 6.65209 8.02962 6.65209 8.02962C6.65209 8.02962 7.63036 7.35907 7.80084 7.01526C7.97263 6.67146 8.06049 6.05865 7.83756 5.64529C7.61594 5.23194 7.35367 5.09416 7.47038 5.05873C7.58709 5.0233 7.62774 4.99443 7.60545 4.93931C7.58316 4.8842 7.53332 4.86845 7.46644 4.91963C7.39825 4.97081 7.32744 4.93144 7.31564 4.86583C7.30252 4.80022 7.23302 4.71886 7.20942 4.68605C7.18581 4.65325 7.19893 4.60601 7.31695 4.60994C7.43497 4.61388 7.44153 4.61388 7.44153 4.61388C7.44153 4.61388 7.41268 4.5404 7.25794 4.47085C7.10451 4.4013 7.03763 4.48266 6.96157 4.41048C6.8842 4.33831 6.96157 4.2727 7.05861 4.21759C7.15696 4.16247 7.19368 4.23596 7.31039 4.25039C7.4271 4.26483 7.50447 4.20446 7.50447 4.20446C7.50447 4.20446 7.45858 4.20971 7.29728 4.14935C7.13467 4.08768 6.93534 4.05487 6.80683 4.08505C6.67963 4.11392 6.58521 4.1546 6.51178 4.08374C6.43834 4.01288 6.13411 3.87116 6.28622 3.85279C6.43965 3.83442 6.54849 3.71631 6.64553 3.80292C6.74257 3.88953 6.81994 3.87903 6.90256 3.7793C6.98649 3.67957 7.05468 3.67432 7.1727 3.67301C7.29072 3.6717 7.39694 3.73469 7.52677 3.69007C7.65528 3.64545 7.69069 3.62052 7.72609 3.61921C7.7615 3.6179 7.67495 3.47224 7.50316 3.4578C7.33137 3.44337 7.30252 3.73337 7.04812 3.54966C6.79372 3.36595 6.91567 3.7045 6.69799 3.6507C6.48161 3.5969 6.44752 3.57722 6.40687 3.66251C6.36622 3.74781 6.22328 3.77668 6.18525 3.6822C6.14591 3.58903 6.07116 3.55753 5.99117 3.63233C5.91117 3.70713 5.84036 3.72419 5.80758 3.66907C5.77479 3.61396 5.70267 3.60871 5.6371 3.61265C5.57022 3.6179 5.54662 3.52342 5.51908 3.46568C5.49154 3.40794 5.23582 3.47749 5.17419 3.54048C5.11256 3.60346 5.01683 3.6402 4.93028 3.58247C4.84373 3.52342 4.7139 3.5431 4.68505 3.60084C4.6562 3.65858 4.52245 3.71894 4.57752 3.59953C4.6326 3.48011 4.85815 3.34233 4.94733 3.42369C5.0365 3.50505 5.06928 3.47355 5.08108 3.36332C5.09289 3.2531 5.13747 3.20717 5.24369 3.24522C5.34991 3.28328 5.38139 3.25047 5.42597 3.19011C5.47056 3.12975 5.61087 3.11794 5.65284 3.14418C5.6948 3.17043 5.73808 3.10744 5.73808 3.09038C5.73808 3.07201 5.57809 2.96703 5.4758 2.97359C5.37352 2.98015 5.3945 3.15599 5.2214 3.11531C5.0483 3.07463 5.0247 3.12712 4.97618 3.20586C4.92766 3.28459 4.84504 3.33052 4.73095 3.30821C4.61818 3.2859 4.58801 3.30034 4.54867 3.38563C4.51064 3.47093 4.41229 3.61921 4.3559 3.56147C4.2982 3.50373 4.1474 3.50505 4.12248 3.61658C4.09757 3.72812 4.04249 3.79374 3.99921 3.75699C3.95594 3.72025 3.88381 3.73075 3.86283 3.78586C3.84185 3.84229 3.79333 3.87772 3.71203 3.86197C3.63072 3.84491 3.55598 3.8331 3.5245 3.92365C3.49303 4.01419 3.42877 4.1336 3.31731 4.14541C3.20584 4.15722 3.18093 4.13098 3.07471 4.25564C2.96849 4.3803 2.90161 4.43017 2.77047 4.45904C2.64065 4.48791 2.61311 4.54171 2.54623 4.65062C2.47935 4.75954 2.35215 4.91701 2.35215 4.91701L1.95481 4.95768C1.95481 4.95768 2.78359 4.18609 3.07602 4.00107C3.36845 3.81473 3.40648 3.85147 3.53893 3.77143C3.67137 3.69138 3.63203 3.52867 3.90742 3.48143C4.1828 3.43418 4.27591 3.30165 4.37295 3.20979C4.4713 3.11794 4.5867 3.19011 4.74013 3.12187C4.89356 3.05364 4.91585 2.97753 5.03912 2.89748C5.16239 2.81744 5.36171 2.86205 5.49678 2.76888C5.63185 2.67572 5.61481 2.60748 5.8797 2.59829C6.1446 2.58911 6.12361 2.47232 6.29278 2.45395C6.46194 2.43558 6.5262 2.42508 6.67307 2.37653C6.81994 2.32797 6.88814 2.32141 7.01796 2.30435C7.14778 2.2873 7.03632 2.18625 7.28941 2.21643C7.5425 2.24662 7.42579 2.24662 7.71823 2.17576C8.01197 2.1049 8.19294 2.17707 8.3044 2.13901C8.41587 2.10096 8.62569 2.12852 8.73453 2.1377C8.84337 2.14689 8.91681 2.1272 9.16859 2.12327C9.42037 2.11933 9.59084 2.0944 10.855 2.31354C12.1191 2.53268 13.02 2.9854 13.4371 3.2321C13.8541 3.4788 14.3786 3.8541 14.5911 4.09555C14.8035 4.33569 14.8835 4.46822 14.8415 4.51677C14.7996 4.56533 14.7694 4.52334 14.713 4.46691C14.6566 4.41048 14.6015 4.49578 14.6828 4.5627C14.7655 4.62963 14.8874 4.57058 14.9504 4.71098C15.0133 4.85139 15.0881 4.91832 15.1366 4.95244C15.1851 4.98787 15.1602 5.11909 14.9281 4.93013C14.696 4.74117 14.7392 4.62307 14.6029 4.68999C14.4665 4.75691 14.3629 4.71623 14.2527 4.55221C14.1413 4.38818 14.0547 4.52202 13.8567 4.36849C13.6587 4.21496 13.6141 4.18347 13.6561 4.2622C13.6993 4.34094 13.6115 4.43804 13.82 4.48266C14.0285 4.52727 14.0849 4.46691 14.1701 4.59551C14.254 4.72411 14.355 4.77922 14.5084 4.7989C14.6619 4.8199 14.6251 4.79103 14.7563 4.92488C14.8887 5.05873 14.9438 5.09416 15.0395 5.11909C15.1353 5.14533 15.1444 5.11909 15.2612 5.22144C15.3779 5.3238 15.4067 5.32905 15.4133 5.41303C15.4198 5.49701 15.4762 5.57312 15.5129 5.58624C15.5497 5.59937 15.5982 5.6033 15.5995 5.72009C15.6008 5.83819 15.61 5.82113 15.6506 5.88674C15.6913 5.95236 15.7162 5.96679 15.7136 6.06258C15.7123 6.15838 15.7083 6.20955 15.7437 6.26335C15.7791 6.31715 15.7778 6.3434 15.7018 6.37358C15.6257 6.40245 15.5483 6.49693 15.6546 6.5468C15.7608 6.59666 15.8198 6.60847 15.7582 6.70033C15.6965 6.79218 15.6008 6.75675 15.547 6.68589C15.4933 6.61503 15.467 6.65177 15.5274 6.76069C15.5877 6.87092 15.6467 6.80006 15.5838 6.92209C15.5208 7.04413 15.6047 7.12418 15.6703 7.10187C15.7359 7.07956 15.7175 6.98639 15.7005 6.93915C15.6834 6.89191 15.8001 6.87354 15.8119 6.94178C15.8237 7.01001 15.7975 7.05069 15.7936 7.14124C15.7883 7.23178 15.7936 7.35775 15.7857 7.44567C15.7778 7.53359 15.7739 7.53884 15.728 7.56377C15.6821 7.58871 15.6598 7.61233 15.7018 7.62939C15.7437 7.64644 15.7634 7.695 15.7582 7.75667C15.7529 7.81835 15.7123 7.75536 15.6428 7.63595C15.5746 7.51653 15.3949 7.30789 15.3411 7.24359C15.2874 7.17798 15.2533 7.17142 15.2533 7.17142C15.2533 7.17142 15.4946 7.53753 15.5523 7.64382C15.61 7.75011 15.5772 7.78292 15.4998 7.68712C15.4225 7.59133 15.2939 7.32495 15.0618 7.08481C14.8297 6.84467 14.7038 6.81318 14.7038 6.81318C14.7038 6.81318 15.1549 7.28164 15.2192 7.43124C15.2834 7.58083 15.2362 7.57558 15.1235 7.43649C15.0107 7.2987 14.7314 7.05725 14.5111 6.88141C14.2908 6.70558 14.2173 6.67146 14.2173 6.67146C14.2173 6.67146 14.6632 7.1163 14.7943 7.33151C14.9254 7.54672 14.9504 7.59789 14.9504 7.59789C14.9504 7.59789 14.852 7.65301 14.835 7.63332C14.8192 7.61364 14.4442 7.11106 14.1426 6.84336C13.8423 6.57435 13.7833 6.57435 13.7833 6.57435C13.7833 6.57435 13.9341 6.76069 14.2422 7.09662C14.5504 7.43255 14.7287 7.69762 14.7287 7.69762L14.6409 7.83278C14.6409 7.83278 14.2488 7.22916 13.8947 6.93128C13.5407 6.63209 13.5 6.60847 13.5 6.60847C13.5 6.60847 13.5682 6.52449 13.9852 6.52711C14.4022 6.52974 14.7117 6.55992 14.7117 6.55992C14.7117 6.55992 14.4206 6.44838 13.9157 6.45625C13.4108 6.46412 13.1656 6.61372 13.1656 6.61372L13.3374 6.69245L12.805 6.72395L12.6135 6.40901C12.6135 6.40901 12.7119 6.29354 12.9532 6.28173C13.1958 6.27123 13.3387 6.24892 13.3387 6.24892C13.3387 6.24892 13.3492 6.21743 13.0397 6.23317C12.7302 6.24892 12.5663 6.3329 12.5663 6.3329L12.5244 6.24367C12.5244 6.24367 12.4286 6.3434 12.2778 6.37883C12.127 6.41426 11.9434 6.40639 11.9434 6.40639C11.9434 6.40639 12.2988 6.49299 12.388 6.49431C12.4758 6.49431 12.5217 6.49037 12.5217 6.49037L12.5834 6.59404C12.5073 6.6006 12.3709 6.60847 12.2267 6.59929C12.0103 6.58616 11.8438 6.53499 11.8438 6.53499C11.8438 6.53499 12.2136 6.65834 12.3998 6.67539C12.5007 6.68458 12.5847 6.68589 12.6384 6.68458L12.6752 6.74625C12.5532 6.73969 12.2765 6.72132 12.1126 6.69377C11.8975 6.65702 11.8451 6.64521 11.8451 6.64521C11.8451 6.64521 12.2568 6.77512 12.4706 6.80924C12.5807 6.82761 12.6686 6.83942 12.7276 6.8473L12.7001 6.92472L11.71 6.70426L12.6555 7.04676L12.6411 7.08875C12.6411 7.08875 11.7533 6.84598 11.6379 6.80399C11.5238 6.762 11.3572 6.74363 11.3572 6.74363L11.5657 6.51005C11.5657 6.51005 11.3271 6.63078 11.1986 6.67671C11.0701 6.72132 11.011 6.74363 11.011 6.74363C11.011 6.74363 11.1841 6.8053 11.2694 6.83155C11.3546 6.85779 11.4372 6.88404 11.4372 6.88404C11.4372 6.88404 9.69969 7.59658 8.69912 7.90889C7.69855 8.21989 6.48293 8.57682 6.03182 8.69098C5.58071 8.80514 5.22009 8.7579 5.22009 8.7579C5.22009 8.7579 4.20116 9.18438 3.19797 9.31035C2.19479 9.43764 1.41322 9.18963 0.92408 9.06103C0.434944 8.93243 0.150379 8.69229 0.496578 8.55582C0.844088 8.41935 1.33585 8.28156 1.88662 8.07161C2.4387 7.86165 2.94488 7.47717 2.94488 7.47717C2.94488 7.47717 3.83661 7.74093 3.93627 7.78817C4.03593 7.83541 4.09888 7.84984 4.03331 7.89839C3.96905 7.94695 3.66088 8.10179 3.28584 8.21595C2.91079 8.33012 2.78227 8.33405 2.78227 8.33405C2.78227 8.33405 3.49565 8.27894 3.87988 8.08998C4.26411 7.90102 4.13297 7.83147 4.28116 7.71731C4.42934 7.60314 4.66407 7.17535 4.06741 6.95227C3.47205 6.7292 2.42296 6.80531 2.42296 6.80531C2.42296 6.80531 3.61368 6.81974 3.90086 7.073C4.18805 7.32626 4.16576 7.77373 3.55466 7.55459L3.56384 7.55196ZM15.8696 8.93112L15.4893 8.50202L15.4906 8.39573L15.8631 8.74478C15.8631 8.74478 15.8801 8.86551 15.8696 8.93112ZM15.8959 8.61356L15.8526 8.39835L15.4828 8.14378L15.4933 8.28156L15.8959 8.61225V8.61356ZM15.787 8.26188L15.471 8.0598L15.4487 7.96138L15.7818 8.13459L15.7883 8.26188H15.787ZM15.5549 7.93776C15.5549 7.93776 15.4657 7.90889 15.4356 7.86821C15.4067 7.82753 15.328 7.75536 15.3648 7.74749C15.4015 7.73961 15.4107 7.77373 15.4998 7.82753C15.5877 7.88133 15.6244 7.94432 15.5549 7.93776ZM11.7493 7.4588C11.7493 7.4588 11.5028 7.42337 11.352 7.38793C11.2012 7.3525 11.1474 7.36432 11.1841 7.34463C11.2222 7.32495 11.3284 7.26327 11.3284 7.26327C11.3284 7.26327 11.491 7.32101 11.5998 7.33545C11.7087 7.35119 11.7887 7.35382 11.7887 7.35382L11.748 7.4588H11.7493ZM11.7546 7.19373L11.5907 7.18848C11.5907 7.18848 11.5723 7.13992 11.6615 7.11499C11.7507 7.09006 11.8031 7.12155 11.7546 7.19373V7.19373ZM7.89264 8.75922L7.52677 8.44953L7.69855 8.39179L7.92542 8.60175L7.89264 8.7579V8.75922ZM7.95296 8.44166L7.83887 8.35111L8.01853 8.296L7.95296 8.44166ZM0.623779 6.97721C0.644761 6.96015 0.971289 6.66883 1.14045 6.67015C1.31093 6.67146 1.33716 6.68327 1.38043 6.60978C1.42371 6.5363 1.45125 6.44444 1.28339 6.44313C1.11554 6.44182 1.06046 6.42607 1.04604 6.43132C1.03161 6.43657 1.13127 6.52711 1.06046 6.56254C0.989648 6.59797 0.695904 6.77775 0.623779 6.97721ZM2.34822 6.83549C2.34822 6.83549 2.24986 6.83417 2.17643 6.78825C2.1043 6.74232 2.11348 6.69639 2.11348 6.69639L0.862447 7.16748C0.862447 7.16748 1.97579 6.88273 2.10824 6.87617C2.24068 6.8696 2.34822 6.83549 2.34822 6.83549ZM3.13765 6.1072C3.10618 6.11638 3.00127 6.13869 2.84784 6.19774C2.69441 6.25679 2.65638 6.18856 2.4269 6.24105C2.19741 6.29485 1.80269 6.55729 1.62828 6.64915C1.45387 6.74101 1.42502 6.76856 1.42502 6.76856C1.42502 6.76856 1.53648 6.5796 1.64795 6.52449C1.75942 6.46937 1.79089 6.46281 1.79089 6.46281C1.79089 6.46281 1.58894 6.3644 1.56665 6.26598C1.54435 6.16756 1.54566 6.12163 1.54566 6.12163C1.54566 6.12163 1.62566 6.26204 1.71614 6.31847C1.80662 6.37489 1.86301 6.38408 1.9194 6.37358C1.97579 6.36308 2.25511 6.19774 2.41247 6.15313C2.56983 6.1072 2.59082 6.01797 2.58295 5.86181C2.57508 5.70566 2.44263 5.62167 2.39674 5.59937C2.35084 5.57706 2.26953 5.56656 2.26953 5.56656C2.26953 5.56656 2.55148 5.539 2.66425 5.70434C2.77703 5.86968 2.72589 6.10064 2.72589 6.10064C2.72589 6.10064 2.9357 6.10982 3.13765 6.10851V6.1072ZM2.19741 5.68335C2.19741 5.68335 2.39674 5.81982 2.34166 5.94842C2.28789 6.07702 2.12791 6.16625 1.99021 6.2253C1.85252 6.28435 1.70958 6.21743 1.7109 6.04684C1.71221 5.87756 1.85908 5.78439 1.93907 5.74371C2.01906 5.70434 1.99808 5.72271 1.98235 5.78176C1.96661 5.84082 1.9653 5.91955 2.05972 5.94054C2.15413 5.96023 2.20659 5.84738 2.1961 5.7962C2.18561 5.74502 2.1961 5.68335 2.1961 5.68335H2.19741ZM1.87875 5.86444C1.9194 5.86312 1.9535 5.89462 1.95481 5.9353C1.95612 5.97597 1.92465 6.01009 1.88399 6.01141C1.84334 6.01272 1.80925 5.98122 1.80794 5.94054C1.80662 5.89987 1.8381 5.86575 1.87875 5.86444ZM2.23937 9.14239C2.23937 9.14239 4.31001 8.85501 5.06666 8.44559C5.82331 8.03486 6.10263 7.29214 6.20098 7.38531C6.30065 7.47848 6.30065 7.48635 6.24164 7.62414C6.18394 7.76323 5.62136 8.47446 4.82668 8.71591C4.032 8.95736 2.23806 9.14239 2.23806 9.14239H2.23937ZM4.93421 5.85131C4.93421 5.85131 4.5513 5.85919 4.10675 5.99697C3.6622 6.13475 3.49041 6.10589 3.47336 6.18593C3.45631 6.26598 3.50614 6.27123 3.72907 6.21743C3.95201 6.16362 4.41229 5.96548 4.93552 5.85131H4.93421ZM4.63916 6.37358C4.63916 6.37358 5.22796 6.30535 5.44695 6.28566C5.66595 6.26598 5.77086 6.22267 5.7984 6.17543C5.82594 6.12819 5.84823 6.12426 5.92429 6.17806C6.00035 6.23186 6.01084 6.25942 6.01084 6.25942C6.01084 6.25942 5.88626 6.30272 5.81413 6.33028C5.7407 6.35783 5.15059 6.38408 4.64047 6.37358H4.63916ZM5.26992 7.03363C5.26992 7.03363 5.88626 6.92603 6.04887 6.58747C6.21147 6.24892 6.17607 6.06521 6.20361 5.77389C6.21934 5.60461 6.2495 5.46814 6.24295 5.33954C6.22852 5.34217 6.21148 5.34348 6.1918 5.34348C6.1105 5.34086 6.08427 5.35135 6.06591 5.38547C6.04756 5.41959 5.99903 5.48651 5.80495 5.50488C5.61087 5.52326 5.37089 5.48783 5.37089 5.48783C5.37089 5.48783 5.55317 5.4524 5.7761 5.43534C5.99903 5.41828 6.01346 5.33167 5.95838 5.28312C5.90331 5.23456 5.98986 5.21488 6.06329 5.26081C6.10788 5.28837 6.18 5.27 6.22983 5.25162C6.21672 5.18995 6.19049 5.12959 6.14591 5.06791C6.09608 4.99968 6.00428 4.89995 5.89544 4.79234C5.8915 4.79366 5.88626 4.79497 5.8797 4.79628C5.78266 4.81203 5.75774 4.83565 5.66857 4.90782C5.5794 4.97999 5.59383 5.0561 5.36958 5.07447C5.14534 5.09284 4.38344 5.4104 4.38344 5.4104C4.38344 5.4104 4.66276 5.27 4.93159 5.14008C5.20042 5.01017 5.24763 4.96031 5.47187 4.89207C5.69742 4.82384 5.67251 4.77922 5.70923 4.69393C5.7184 4.67162 5.72889 4.65587 5.73939 4.64406C5.54006 4.45641 5.33155 4.28057 5.25156 4.23465C5.18468 4.19659 5.12698 4.17035 5.07453 4.14935C5.05879 4.18741 5.03125 4.24383 4.98798 4.31469C4.90274 4.44854 4.76505 4.43148 4.63522 4.55614C4.5054 4.6808 4.41229 4.7661 4.30607 4.8409C4.19985 4.91569 3.7317 5.1742 3.7317 5.1742C3.7317 5.1742 4.26804 4.70574 4.41885 4.62044C4.56966 4.53515 4.67325 4.3803 4.76505 4.33044C4.85684 4.28057 4.94733 4.16641 4.95519 4.15066L4.97355 4.11523C4.94864 4.10736 4.92372 4.1008 4.89881 4.09424C4.79127 4.06537 4.78078 3.95908 4.88831 3.95383C4.99716 3.94858 5.22271 3.95383 5.54268 4.12179C5.86265 4.28976 6.17082 4.53515 6.36097 4.69786C6.54981 4.85927 6.60751 5.01673 6.49604 5.18995C6.38457 5.36448 6.20361 5.85394 6.34655 6.07046C6.48948 6.28697 6.43047 6.3972 6.35048 6.55073C6.27049 6.70295 5.95183 6.95096 5.74857 6.98246C5.5453 7.01395 5.26861 7.03495 5.26861 7.03495L5.26992 7.03363ZM5.29352 4.51809C5.29352 4.51809 5.25681 4.59813 5.1873 4.62831C5.1178 4.6585 5.0365 4.65718 4.82537 4.81203C4.61424 4.96687 4.32837 5.17027 4.32837 5.17027C4.32837 5.17027 4.83979 4.84483 5.05486 4.80022C5.26992 4.7556 5.31582 4.67687 5.39843 4.60994C5.48105 4.54171 5.46662 4.50365 5.39974 4.49315C5.33287 4.48266 5.29484 4.5194 5.29484 4.5194L5.29352 4.51809ZM15.5208 6.19118C15.5208 6.19118 15.4867 6.09276 15.3923 6.02322C15.2979 5.95367 15.2008 5.96285 15.1641 5.91692C15.1274 5.86968 15.1523 5.8067 15.0828 5.77389C15.0133 5.74109 14.9871 5.73059 14.8782 5.72271C14.7707 5.71484 14.8074 5.69909 14.7917 5.6348C14.776 5.57181 14.7143 5.57181 14.6356 5.56131C14.5556 5.55081 14.4757 5.51538 14.4586 5.45502C14.4416 5.39335 14.4429 5.38941 14.4009 5.36185C14.3576 5.33429 14.4101 5.25556 14.4612 5.24506C14.5111 5.23456 14.5648 5.2595 14.6042 5.36316C14.6422 5.46814 14.6907 5.50751 14.8087 5.5062C14.9281 5.50488 14.9373 5.54556 14.9727 5.61511C15.0081 5.68466 15.0618 5.70959 15.1562 5.71484C15.2507 5.72009 15.3267 5.80014 15.3687 5.88018C15.4107 5.96023 15.4998 5.93136 15.5746 6.03896C15.648 6.14656 15.5392 6.2253 15.5221 6.18987L15.5208 6.19118ZM14.7523 6.13607C14.7523 6.13607 14.6068 6.14788 14.5753 6.11507C14.5438 6.08358 14.5111 6.04027 14.4389 6.01009C14.3655 5.97991 14.3629 5.89068 14.4153 5.89987C14.4678 5.90905 14.5897 5.96023 14.6055 5.98516C14.6212 6.01141 14.5635 6.05471 14.671 6.06389C14.7786 6.07308 14.8048 6.12688 14.7523 6.13607ZM15.0146 6.39589C15.0054 6.38277 14.9425 6.31716 14.915 6.28173C14.8874 6.24498 14.9661 6.18987 15.0448 6.25811C15.1235 6.32503 15.1379 6.42738 15.0146 6.3972V6.39589ZM15.4644 6.45756C15.4644 6.45756 15.3608 6.41295 15.3136 6.33553C15.2677 6.2581 15.332 6.2148 15.4251 6.27779C15.5195 6.34078 15.5142 6.46675 15.4644 6.45756ZM14.9897 6.08095C14.9897 6.08095 14.9412 6.0429 14.831 5.98385C14.7222 5.92349 14.6828 5.93005 14.5924 5.87493C14.5019 5.81982 14.4665 5.73321 14.5097 5.7214C14.5517 5.70959 14.6409 5.74634 14.7143 5.81195C14.7878 5.87756 14.7878 5.85787 14.894 5.91036C15.0002 5.96285 15.0736 6.09408 14.9897 6.08095ZM14.258 5.61774C14.258 5.61774 14.0954 5.66366 13.9498 5.59543C13.8042 5.52719 13.7374 5.38941 13.6547 5.30805C13.5721 5.22669 13.5511 5.21751 13.4462 5.20701C13.3413 5.19651 13.3125 5.09022 13.2377 5.06529C13.163 5.04035 13.1643 5.0233 12.9781 5.02986C12.7932 5.03642 12.7447 4.99705 12.7381 4.9485C12.7315 4.89995 12.8207 4.88814 12.6555 4.85796C12.4903 4.82777 12.4562 4.6808 12.5558 4.70967C12.6568 4.73854 12.8194 4.68343 12.8587 4.82252C12.8968 4.96162 12.9322 4.95375 13.0397 4.94587C13.1472 4.93931 13.2495 4.95637 13.3151 5.01149C13.3807 5.0666 13.3912 5.06791 13.5066 5.09153C13.622 5.11515 13.5997 5.11253 13.7072 5.18732C13.8147 5.26343 13.7715 5.38285 13.9511 5.42878C14.1321 5.4747 14.2134 5.4524 14.2606 5.51276C14.3078 5.57312 14.2567 5.61642 14.2567 5.61642L14.258 5.61774ZM12.2713 4.74379C12.2713 4.74379 12.1755 4.7451 12.1034 4.72411C12.0313 4.70311 11.9775 4.70049 11.9775 4.70049C11.9775 4.70049 12.0077 4.60601 12.1585 4.62044C12.3093 4.63619 12.2713 4.74379 12.2713 4.74379ZM11.8057 4.66375C11.8057 4.66375 11.748 4.69524 11.6877 4.70967C11.6274 4.72411 11.6536 4.71886 11.5369 4.59157C11.4202 4.46429 11.4254 4.4341 11.6012 4.4761C11.7769 4.51809 11.9015 4.60732 11.8057 4.66375V4.66375ZM11.053 4.6165C11.053 4.6165 10.6648 4.64144 10.598 4.64406C10.5311 4.64669 10.6294 4.56664 10.7265 4.50496C10.8235 4.4446 10.8943 4.43279 10.9743 4.4984C11.053 4.56533 11.0543 4.61519 11.0543 4.61519L11.053 4.6165ZM10.4275 4.61257C10.3895 4.62175 10.3068 4.66374 10.0721 4.67293C9.83738 4.68212 9.77575 4.64144 9.69706 4.75691C9.61838 4.87239 9.43086 4.85271 9.34169 4.77791C9.25251 4.70311 9.19481 4.53383 9.41775 4.48659C9.64068 4.43935 9.68133 4.56795 9.7587 4.5942C9.83476 4.61913 9.8859 4.51284 9.97638 4.45116C10.0669 4.38949 10.3029 4.4118 10.3449 4.45772C10.3868 4.50365 10.4288 4.61257 10.4288 4.61257H10.4275ZM9.05319 4.77397C9.05319 4.77397 8.76862 4.76872 8.75026 4.77266C8.7319 4.7766 8.72273 4.64931 8.84599 4.63881C8.96926 4.62831 9.08728 4.72804 9.05319 4.77397ZM8.68601 4.85664C8.68601 4.85664 8.63749 4.96293 8.5693 4.93275C8.50111 4.90126 8.28604 4.83433 8.17064 4.90388C8.05393 4.97343 8.03033 5.07972 7.92411 5.09678C7.81789 5.11384 7.81395 5.0128 7.8192 4.96425C7.82576 4.91438 7.81395 4.89339 7.77068 4.92094C7.7274 4.9485 7.76281 4.78709 7.80871 4.74773C7.85461 4.70836 7.90444 4.77922 7.9582 4.83827C8.01197 4.89863 8.05656 4.91832 8.14573 4.82384C8.2349 4.72936 8.39226 4.7123 8.45914 4.77397C8.52602 4.83565 8.57323 4.83171 8.60864 4.82515C8.64404 4.81859 8.68732 4.85796 8.68732 4.85796L8.68601 4.85664ZM6.40556 2.89092C6.40556 2.89092 6.24295 2.79644 6.14591 2.88305C6.04887 2.96965 6.03706 3.02871 5.90724 3.01821C5.77742 3.00771 5.71185 2.86074 5.92429 2.84106C6.13673 2.82137 6.12361 2.67965 6.28229 2.72296C6.44227 2.76626 6.53669 2.85549 6.40556 2.88961V2.89092ZM6.64029 2.69277C6.64029 2.69277 6.77142 2.7492 6.896 2.70196C7.02058 2.65472 7.00747 2.68359 7.09795 2.63372C7.18844 2.58255 7.33793 2.52612 7.48349 2.53793C7.62905 2.54974 7.68413 2.57336 7.56086 2.63897C7.43891 2.70327 7.35104 2.58517 7.19237 2.66915C7.0337 2.75314 6.98386 2.85549 6.77405 2.86074C6.56423 2.86599 6.52489 2.67834 6.63898 2.69409L6.64029 2.69277ZM8.10639 2.6954C8.06442 2.68621 7.90706 2.66391 7.81002 2.61404C7.71298 2.56418 7.72085 2.42639 7.90182 2.43033C8.08278 2.43427 8.27555 2.73739 8.1077 2.6954H8.10639ZM8.53782 2.65866C8.53782 2.65866 8.72928 2.4277 8.84993 2.50381C8.97188 2.57992 9.0545 2.57599 9.12794 2.51431C9.20137 2.45264 9.17121 2.42902 9.27481 2.44739C9.3784 2.46576 9.58953 2.42902 9.58953 2.42902C9.58953 2.42902 9.42168 2.20987 9.2512 2.29911C9.08204 2.38834 9.06237 2.47232 8.85911 2.38965C8.65585 2.30698 8.4893 2.35816 8.42242 2.44608C8.35554 2.53399 8.53651 2.65866 8.53651 2.65866H8.53782ZM10.9835 2.58648C10.9835 2.58648 10.876 2.59436 10.6976 2.53531C10.5193 2.47626 10.4314 2.48151 10.358 2.54712C10.2846 2.61273 10.0341 2.57861 9.9436 2.47757C9.85312 2.37784 9.88721 2.28205 10.0341 2.38309C10.181 2.48413 10.2255 2.46838 10.3488 2.39752C10.4721 2.32666 10.6294 2.40671 10.6911 2.4487C10.7527 2.492 10.6924 2.43558 10.8432 2.45526C10.994 2.47494 11.0766 2.59304 10.9848 2.5878L10.9835 2.58648ZM11.512 2.7387C11.512 2.7387 11.3061 2.63766 11.2615 2.61929C11.2169 2.59961 11.3494 2.50644 11.4805 2.56024C11.6116 2.61273 11.63 2.75707 11.512 2.74001V2.7387ZM12.346 3.05495C12.346 3.05495 12.127 2.97359 11.9539 2.88567C11.7808 2.79775 11.8936 2.66653 12.1205 2.75839C12.3473 2.85024 12.5362 3.06545 12.3447 3.05495H12.346ZM12.6161 3.0392C12.6161 3.0392 12.801 3.17174 12.9138 3.17961C13.0266 3.18749 13.0279 3.24391 13.1236 3.34102C13.2194 3.43681 13.2967 3.44206 13.4082 3.46961C13.5197 3.49848 13.5918 3.55885 13.6534 3.63102C13.7151 3.70319 13.8016 3.77668 13.9105 3.79636C14.0193 3.81604 14.0849 3.87772 14.2212 4.00238C14.3576 4.12835 14.3852 4.14541 14.4232 4.10998C14.4612 4.07455 14.4324 4.0155 14.3419 3.94333C14.2514 3.86985 14.1137 3.77012 13.997 3.72944C13.8803 3.68876 13.7859 3.66645 13.7505 3.58247C13.7151 3.49848 13.5944 3.43287 13.4371 3.38694C13.2797 3.34102 13.2784 3.3069 13.1971 3.21111C13.1158 3.11531 13.0135 3.08907 12.8942 3.05626C12.7748 3.02346 12.7774 2.99459 12.7079 2.96047C12.6384 2.92635 12.5401 2.9854 12.6175 3.0392H12.6161ZM5.69087 3.43812C5.71972 3.44075 6.01346 3.50898 6.01346 3.50898C6.01346 3.50898 5.94789 3.33577 6.17345 3.34889C6.399 3.36201 6.45539 3.27278 6.53145 3.22423C6.6075 3.17568 6.65603 3.14681 6.65603 3.14681C6.65603 3.14681 6.5957 3.11662 6.47506 3.08251C6.35441 3.04839 6.32294 3.15074 6.26524 3.20848C6.20754 3.26622 6.09739 3.22423 6.01871 3.20192C5.94002 3.17961 5.56891 3.42762 5.69218 3.43812H5.69087ZM6.77142 3.07595C6.77142 3.07595 6.90387 3.13893 7.04812 3.25703C7.19237 3.37513 7.2422 3.40532 7.49005 3.22816C7.73658 3.05101 7.69593 3.07726 7.8651 3.07463C8.03426 3.07201 8.05131 3.07201 8.07885 2.95522C8.10639 2.83843 8.12081 2.82793 7.99886 2.89092C7.87821 2.95522 7.89919 2.97884 7.7274 2.98015C7.55562 2.98278 7.49267 2.98803 7.34055 3.09169C7.18975 3.19536 7.20548 3.135 7.05337 3.01296C6.90125 2.89092 6.72028 3.03789 6.77142 3.07463V3.07595ZM8.32538 2.8883C8.32538 2.8883 8.34374 2.88567 8.39095 2.96572C8.43816 3.04576 8.48012 3.03395 8.61519 2.98671C8.75026 2.93947 8.80403 2.96703 8.85124 3.02871C8.89845 3.09038 8.9273 3.10482 9.07024 3.05101C9.21317 2.9959 9.2394 3.00377 9.46364 2.98803C9.68657 2.97228 9.67346 2.97884 9.76263 3.04183C9.8518 3.10482 9.98556 3.09825 10.0656 3.04445C10.1455 2.99196 10.1718 2.92504 10.2596 3.00377C10.3462 3.08251 10.4458 3.11663 10.5822 3.05364C10.7199 2.99065 10.813 2.93029 10.8838 3.02739C10.956 3.12581 11.011 3.1783 11.1566 3.15206C11.3022 3.12581 11.2432 3.14943 11.4307 3.16255C11.6182 3.17568 11.6903 3.17174 11.8083 3.19011C11.9264 3.20979 11.9172 3.1678 11.8923 3.12056C11.8674 3.07332 11.8333 3.02871 11.6667 3.06414C11.5002 3.10088 11.4359 3.13106 11.39 3.02477C11.3441 2.91848 11.2956 2.88961 11.2104 2.94079C11.1251 2.99196 11.133 3.03133 10.9979 2.9211C10.8629 2.80956 10.7973 2.78332 10.6727 2.85549C10.5481 2.92635 10.4813 2.9316 10.4144 2.82793C10.3475 2.72427 10.3108 2.65997 10.2164 2.73214C10.1219 2.80431 10.0564 2.94472 9.98294 2.85549C9.9095 2.76626 9.78624 2.6954 9.70362 2.77807C9.62232 2.86074 9.59216 2.88961 9.52396 2.78594C9.45446 2.68228 9.3784 2.7059 9.32071 2.80431C9.26301 2.90273 9.16465 2.98803 9.0204 2.85418C8.87615 2.72033 8.80141 2.73214 8.69519 2.79513C8.58897 2.8568 8.56799 2.89748 8.43947 2.83187C8.31096 2.76626 8.23097 2.82269 8.32276 2.88961L8.32538 2.8883ZM12.1178 3.2216C12.1375 3.22685 12.2463 3.23079 12.3853 3.34495C12.5244 3.45912 12.6253 3.42106 12.6004 3.34102C12.5755 3.26097 12.4968 3.12975 12.3499 3.13368C12.2031 3.13893 12.1191 3.2216 12.1191 3.2216H12.1178ZM12.9702 3.51292C12.9702 3.51292 12.9807 3.5969 13.0555 3.67695C13.1302 3.75831 13.2876 3.64677 13.3085 3.7465C13.3295 3.84491 13.3544 3.8869 13.4869 3.88034C13.618 3.87378 13.6193 3.88953 13.7649 3.97482C13.9118 4.06012 13.9616 4.0903 14.0206 4.1756C14.0796 4.26089 14.0704 4.3475 14.1832 4.33831C14.296 4.32913 14.3301 4.30157 14.3891 4.36981C14.4494 4.43804 14.4534 4.46166 14.4796 4.49709C14.5045 4.53252 14.5937 4.51677 14.5097 4.3908C14.4258 4.26351 14.4127 4.24252 14.2947 4.2189C14.1767 4.19528 14.174 4.25827 14.094 4.13229C14.0141 4.005 13.9118 3.91709 13.7859 3.87378C13.6613 3.83048 13.7111 3.84491 13.601 3.7688C13.4908 3.69269 13.5118 3.67826 13.3977 3.66382C13.2836 3.64939 13.2404 3.61527 13.2023 3.55491C13.1643 3.49455 12.9466 3.4683 12.9676 3.51686L12.9702 3.51292ZM15.4526 5.71353C15.4264 5.69516 15.2874 5.48126 15.2205 5.49307C15.1549 5.50488 15.1235 5.4419 15.0553 5.38416C14.9871 5.32642 15.0435 5.32773 14.9045 5.3133C14.7655 5.29886 14.7537 5.24506 14.6789 5.18208C14.6042 5.11778 14.713 5.14271 14.5294 5.14008C14.3458 5.13615 14.3026 5.06529 14.2514 4.94063C14.2003 4.81596 14.3039 4.82121 14.355 4.92094C14.4061 5.02067 14.473 5.05348 14.4809 4.98655C14.4888 4.91963 14.5937 4.9485 14.7012 5.05479C14.8087 5.16239 14.8205 5.13352 14.9399 5.21488C15.0592 5.29624 15.1156 5.38285 15.168 5.33692C15.2205 5.29099 15.2716 5.31724 15.3228 5.41434C15.3739 5.51013 15.4526 5.71353 15.4526 5.71353V5.71353ZM14.1767 5.3028C14.1399 5.2923 14.0796 5.22013 14.0245 5.18208C13.9682 5.14402 13.8869 5.03248 14.0849 5.1204C14.2829 5.20963 14.2737 5.32773 14.1767 5.3028ZM13.7413 4.97343C13.7413 4.97343 13.6888 4.96425 13.6626 4.93275C13.6364 4.90126 13.5787 4.82121 13.3925 4.83433C13.2063 4.84746 13.1486 4.80284 13.1223 4.76741C13.0961 4.73198 13.0856 4.76085 12.9925 4.73329C12.8994 4.70574 12.8942 4.67293 12.7774 4.63356C12.6607 4.5942 12.544 4.55089 12.6817 4.54302C12.8194 4.53515 12.8404 4.5299 12.906 4.59682C12.9715 4.66374 12.9912 4.69918 13.0895 4.67949C13.1879 4.65981 13.2876 4.74379 13.3164 4.76216C13.3466 4.78053 13.4043 4.77135 13.5931 4.79497C13.7819 4.81728 13.7859 4.97474 13.74 4.97343H13.7413ZM12.4575 4.4118C12.4575 4.4118 12.3919 4.46691 12.2122 4.39211C12.0326 4.31863 12.0431 4.34225 11.9001 4.31469C11.7572 4.28713 11.6746 4.26745 11.5487 4.23202C11.4228 4.19659 11.3599 4.11654 11.5408 4.12967C11.7205 4.1441 11.672 4.15591 11.8923 4.21496C12.1139 4.27532 12.0405 4.1651 12.1965 4.2294C12.3526 4.2937 12.5676 4.35143 12.4562 4.41048L12.4575 4.4118ZM11.2104 4.2084C11.192 4.20446 11.1789 4.26351 11.0569 4.20184C10.935 4.14016 10.9179 4.11654 10.8563 4.11917C10.7947 4.12179 10.758 4.03912 10.9061 4.04437C11.0543 4.04962 11.3035 4.02206 11.2104 4.20971V4.2084ZM10.6412 4.17953C10.6189 4.19003 10.6635 4.18084 10.5612 4.2189C10.459 4.25827 10.6176 4.10998 10.3278 4.14804C10.0367 4.18609 9.90819 4.24908 9.82295 4.15985C9.73903 4.07062 9.76263 4.07324 10.0249 4.07849C10.2872 4.08243 10.3226 4.09424 10.4052 4.06406C10.4878 4.03519 10.6203 3.99451 10.6045 4.06012C10.5888 4.12573 10.5862 4.14148 10.6255 4.14016C10.6635 4.13885 10.6806 4.16379 10.6412 4.17822V4.17953ZM9.28268 4.18347C9.2735 4.1874 9.21973 4.29107 9.14105 4.25564C9.06237 4.22021 8.93385 4.23071 8.87878 4.29632C8.8237 4.36193 8.75026 4.29632 8.71355 4.27401C8.67683 4.2517 8.67552 4.29107 8.58372 4.33306C8.49062 4.37505 8.38571 4.38293 8.35423 4.30026C8.32407 4.21759 8.46439 4.09292 8.62044 4.14935C8.77649 4.20578 8.78567 4.18872 8.84206 4.14016C8.89714 4.09161 9.00205 4.10736 9.0309 4.12179C9.05974 4.13754 9.04925 4.13492 9.14367 4.09555C9.23809 4.05487 9.31415 4.16247 9.28268 4.18478V4.18347ZM8.23228 4.38162C8.21785 4.38293 8.05918 4.4118 7.98312 4.41967C7.90706 4.42754 7.81002 4.40261 7.77724 4.48397C7.74445 4.56533 7.72347 4.5732 7.61332 4.49053C7.50316 4.40786 7.49005 4.3803 7.65266 4.31732C7.81395 4.25433 7.9228 4.33569 8.0736 4.30288C8.22441 4.27008 8.25719 4.3475 8.23359 4.38293L8.23228 4.38162ZM7.61856 4.12048C7.61856 4.12048 7.58447 3.96695 7.72085 4.09292C7.85723 4.2189 7.91624 4.19397 8.07623 4.08899C8.23621 3.98401 8.2349 3.94858 8.35292 4.00894C8.47094 4.0693 8.47357 4.08111 8.66765 3.97614C8.86173 3.87116 8.90763 3.81736 8.97188 3.8974C9.03614 3.97745 9.05843 4.02731 9.22235 3.93677C9.38627 3.84623 9.42168 3.76618 9.54626 3.8436C9.67084 3.92102 9.74296 3.96957 9.84262 3.86985C9.94229 3.77012 10.021 3.83048 10.0957 3.8974C10.1705 3.96433 10.2505 3.97089 10.4458 3.94071C10.6399 3.91052 10.7121 3.97482 10.7553 3.92496C10.7986 3.87509 10.7789 3.77143 10.6452 3.77536C10.5114 3.7793 10.4983 3.89478 10.3226 3.86853C10.1469 3.84229 10.1364 3.67039 9.97638 3.72156C9.8164 3.77274 9.86623 3.87509 9.74296 3.80817C9.61969 3.74125 9.53052 3.62446 9.40332 3.70844C9.27612 3.79242 9.21973 3.90003 9.13449 3.80948C9.04925 3.72025 8.85911 3.7045 8.7201 3.82785C8.5811 3.9512 8.57061 3.95776 8.40669 3.8974C8.24408 3.83704 8.15491 3.85672 8.07754 3.9289C8.00017 4.00107 7.94771 4.06799 7.79166 3.97089C7.63561 3.87378 7.48349 4.09161 7.61725 4.12048H7.61856ZM7.96476 3.50242C7.97919 3.4998 8.14442 3.30559 8.37259 3.49586C8.60077 3.68613 8.72535 3.59559 8.76075 3.51161C8.79616 3.42894 8.89976 3.4683 8.98106 3.52342C9.06237 3.57853 9.12269 3.41319 8.9627 3.34102C8.80403 3.26884 8.67683 3.36726 8.57454 3.40663C8.47226 3.44599 8.38833 3.41056 8.25064 3.31346C8.11294 3.21635 7.76806 3.44075 7.96476 3.50111V3.50242ZM9.16596 3.37382C9.16596 3.37382 9.25907 3.4998 9.44528 3.4893C9.63019 3.4788 9.6892 3.34364 9.79673 3.40532C9.90426 3.46699 10.0983 3.47355 9.95934 3.36332C9.82033 3.2531 9.77575 3.19798 9.58953 3.28197C9.40201 3.36726 9.24202 3.30165 9.20137 3.27278C9.15941 3.24391 9.09515 3.25441 9.16859 3.37251L9.16596 3.37382ZM10.2806 3.35939C10.2806 3.35939 10.3868 3.55885 10.5442 3.49717C10.7016 3.4355 10.7003 3.3817 10.8222 3.45256C10.9442 3.52342 10.8471 3.47618 11.0333 3.58247C11.2196 3.68876 11.3572 3.62052 11.4097 3.58903C11.4608 3.55753 11.4005 3.57591 11.331 3.46437C11.2615 3.35151 11.213 3.32002 11.1146 3.39088C11.015 3.46174 10.9809 3.50242 10.9219 3.40663C10.8629 3.31084 10.8327 3.27278 10.7383 3.32265C10.6439 3.37251 10.5612 3.49192 10.4563 3.41319C10.3501 3.33446 10.2741 3.2426 10.2819 3.3607L10.2806 3.35939ZM10.8707 3.85672C10.8707 3.85672 10.9074 3.91446 11.0438 3.90921C11.1802 3.90528 11.2327 3.93677 11.2327 3.93677C11.2327 3.93677 11.1907 3.83179 11.0871 3.77799C10.9835 3.72419 10.8327 3.83048 10.8707 3.85672V3.85672ZM11.39 3.94727C11.39 3.94727 11.3808 3.96564 11.6012 3.9932C11.8215 4.02075 11.8411 3.99319 11.8359 3.95908C11.8293 3.92365 11.8005 3.83442 11.6339 3.82129C11.4687 3.80817 11.4031 3.87772 11.39 3.94858V3.94727ZM12.1296 4.0798C12.1296 4.0798 12.2975 4.14541 12.3683 4.14148C12.4391 4.13754 12.5558 4.15722 12.6122 4.24777C12.6686 4.337 12.6594 4.33569 12.805 4.33569C12.9505 4.33569 13.0122 4.32388 13.0528 4.41048C13.0935 4.49578 13.2141 4.48528 13.2994 4.48922C13.3846 4.49315 13.3636 4.55352 13.4449 4.58764C13.5262 4.62044 13.6167 4.57976 13.5603 4.50628C13.5039 4.43279 13.5118 4.45904 13.3335 4.41048C13.1551 4.36324 13.1709 4.36456 13.1066 4.29501C13.0423 4.22546 13.0568 4.26745 12.8837 4.24252C12.7106 4.21759 12.7643 4.20578 12.6752 4.13098C12.586 4.05618 12.5388 4.12179 12.4496 4.07587C12.3604 4.02994 12.3565 4.01813 12.2726 3.99844C12.19 3.97876 12.0824 4.04044 12.1283 4.08111L12.1296 4.0798ZM13.702 4.6585C13.702 4.6585 13.9091 4.7661 13.976 4.82121C14.0442 4.87633 14.1308 4.79234 14.0062 4.7018C13.8829 4.61126 13.6665 4.64406 13.702 4.6585V4.6585ZM11.6051 3.51948C11.6051 3.51948 11.7638 3.66383 11.908 3.65726C12.0523 3.6507 12.1847 3.6284 12.2581 3.73075C12.3316 3.83179 12.3565 3.84623 12.5414 3.83966C12.7263 3.8331 12.7879 3.86591 12.7984 3.94202C12.8076 4.01944 12.8168 4.04044 12.9702 4.03256C13.1236 4.02469 13.1997 4.04175 13.2666 4.11261C13.3335 4.18216 13.4043 4.13229 13.4515 4.08899C13.4987 4.047 13.5144 3.9512 13.3295 3.95514C13.1433 3.95908 13.1315 4.04175 12.9899 3.88953C12.8469 3.73731 12.923 3.67695 12.7237 3.715C12.5244 3.75306 12.5781 3.81604 12.4863 3.69926C12.3958 3.58115 12.4142 3.56672 12.2267 3.57066C12.0391 3.57459 12.085 3.65201 11.9342 3.5326C11.7834 3.41188 11.5671 3.38826 11.6064 3.5221L11.6051 3.51948Z" fill="black"/>
</svg>
